<?xml version="1.0" encoding="UTF-8" standalone="no"?>
<!-- Created with Inkscape (http://www.inkscape.org/) -->

<svg
   width="43.232449"
   height="49.607765"
   viewBox="0 0 11.438585 13.125387"
   version="1.1"
   id="svg1"
   xml:space="preserve"
   inkscape:export-filename="C#.svg"
   inkscape:export-xdpi="96"
   inkscape:export-ydpi="96"
   xmlns:inkscape="http://www.inkscape.org/namespaces/inkscape"
   xmlns:sodipodi="http://sodipodi.sourceforge.net/DTD/sodipodi-0.dtd"
   xmlns="http://www.w3.org/2000/svg"
   xmlns:svg="http://www.w3.org/2000/svg"><sodipodi:namedview
     id="namedview1"
     pagecolor="#ffffff"
     bordercolor="#000000"
     borderopacity="0.25"
     inkscape:showpageshadow="2"
     inkscape:pageopacity="0.0"
     inkscape:pagecheckerboard="0"
     inkscape:deskcolor="#d1d1d1"
     inkscape:document-units="mm" /><defs
     id="defs1" /><g
     inkscape:label="Layer 1"
     inkscape:groupmode="layer"
     id="layer1"
     transform="translate(-0.17370761,-0.09477717)"><path
       id="path9"
       style="fill:#00fff2;fill-opacity:1;stroke:#ffffff;stroke-width:0"
       d="m 3.1334686,-27.675292 c -0.179012,-0.0013 -15.4891816,8.610746 -15.6448586,8.699129 -0.155677,0.08838 -15.398686,8.821899 -15.489315,8.9762801 -0.09063,0.1543809 -0.284338,17.7198147 -0.285634,17.8988267 -0.0013,0.1790119 -0.0601,17.7459782 0.02828,17.9016542 0.08838,0.155677 15.202015,9.109069 15.356396,9.199698 0.154381,0.09063 15.3385837,8.924078 15.5175956,8.925374 0.1790119,0.0013 15.4891814,-8.610746 15.6448584,-8.699129 0.155677,-0.08838 15.398686,-8.821899 15.489315,-8.97628 0.09063,-0.154381 0.287166,-17.7198148 0.288463,-17.8988268 0.0013,-0.1790119 0.0601,-17.7459777 -0.02828,-17.9016546 -0.08838,-0.155677 -15.204843,-9.1090686 -15.359224,-9.1996976 -0.154381,-0.09063 -15.3385835,-8.924078 -15.5175954,-8.925374 z M -14.657892,-9.0270283 h 1.057697 c -0.291281,0.1682945 -0.822806,0.4750313 -1.057697,0.6108621 z m 32.562347,0 h 2.505666 v 1.4988747 c -0.738033,-0.4481213 -1.529187,-0.9244505 -2.505666,-1.4988747 z m -15.571329,0.172512 c 0.5953708,-9.14e-4 1.1867577,0.049164 1.9428811,0.1498874 1.0630364,0.1415169 2.7578911,0.5568152 3.7669832,0.9219494 1.0091025,0.3651342 2.5452337,1.1272159 3.4134747,1.6940112 0.868243,0.5667899 2.131166,1.5914626 2.805441,2.2765928 0.674265,0.6851301 1.515571,1.6677923 1.87218,2.1860946 0.357429,0.5195173 0.565643,1.02393907 0.463802,1.12274203 -0.101626,0.0985622 -1.699782,1.05717591 -3.55205,2.12953337 -1.852271,1.0723519 -3.4108577,1.9485371 -3.46438,1.9485371 -0.053522,0 -0.7261312,-0.6167165 -1.4960467,-1.3716118 C 7.1030213,1.2399813 6.3097209,0.68153538 5.4270297,0.33104045 4.4450315,-0.05888481 3.7411359,-0.16910865 2.2228315,-0.17518327 0.39897344,-0.1822977 0.1774759,-0.13478729 -1.3603275,0.62515927 -2.4418779,1.1597263 -3.2974176,1.774277 -3.8716497,2.426637 -4.35045,2.9705622 -5.0072895,3.9595292 -5.3337596,4.6240439 c -0.5352768,1.0895306 -0.5955258,1.4302236 -0.5910656,3.4643803 0.00403,1.9848698 0.079206,2.4287348 0.6136902,3.7019378 0.4601386,1.09612 0.912042,1.72945 1.8665232,2.613132 0.7705569,0.713402 1.7428427,1.357504 2.50283799,1.660075 0.98481057,0.392113 1.66797063,0.497978 3.28904021,0.503396 1.8950789,0.0066 2.154866,-0.04868 3.5152854,-0.718329 0.9357566,-0.460741 1.9151374,-1.179878 2.7008026,-1.985302 l 1.2330365,-1.264145 3.2013701,1.843898 c 1.760991,1.013948 3.292297,1.930199 3.402163,2.036208 0.122488,0.118154 0.08092,0.41592 -0.107467,0.769233 -0.168945,0.316866 -0.977595,1.292405 -1.795821,2.169127 -0.818226,0.876721 -2.061426,1.983969 -2.76302,2.460417 -0.701605,0.476447 -1.9165752,1.15702 -2.7008027,1.513015 -0.7842309,0.35594 -2.2963278,0.826548 -3.3597419,1.046384 -1.0634031,0.219836 -2.6602169,0.39392 -3.5463941,0.384617 C 1.2405,24.812784 -0.11153275,24.677188 -0.87955637,24.522313 -1.647574,24.367437 -2.8572721,24.02518 -3.5662186,23.761563 -4.2751542,23.497892 -5.4820407,22.916525 -6.2500528,22.469137 -7.0180764,22.021749 -8.2098806,21.151118 -8.8971221,20.53474 -9.5843532,19.918363 -10.73903,18.628262 -11.462178,17.66991 c -0.723152,-0.958357 -1.577519,-2.371134 -1.90046,-3.139153 -0.322939,-0.768018 -0.740895,-2.140748 -0.927605,-3.051482 -0.186726,-0.910729 -0.339368,-2.4384578 -0.339368,-3.3936789 0,-0.9552157 0.152696,-2.4801165 0.339368,-3.3908506 0.186726,-0.910734 0.609514,-2.300489 0.938918,-3.0882475 0.329397,-0.78776396 1.046097,-2.10557788 1.592201,-2.9270478 0.546113,-0.8214699 1.663454,-2.1256042 2.4830411,-2.8987672 0.8195863,-0.7731575 2.1597891,-1.7959324 2.977953,-2.2737646 0.8181634,-0.4778158 2.2066735,-1.1105571 3.0854195,-1.4055486 0.8787564,-0.294975 2.48905151,-0.6554217 3.57750285,-0.8003425 C 1.1389947,-8.8020334 1.7377553,-8.8535969 2.333126,-8.8545163 Z M 18.478552,3.3966635 c 0.14769,0.040848 0.1934,0.2252982 0.195137,0.647627 0.0016,0.3926616 0.05885,0.9304165 0.130091,1.1962717 0.111384,0.4157014 0.274168,0.4835992 1.156678,0.4835992 0.168421,0 0.317843,0.00754 0.449663,0.019796 V 6.572581 c -0.07606,0.00405 -0.138266,0.013801 -0.217761,0.01414 -0.423396,0.00178 -0.894502,0.081795 -1.046384,0.1781681 -0.151888,0.096373 -0.331034,0.5159513 -0.398758,0.9332616 -0.06772,0.4173432 -0.01367,0.9663779 0.121607,1.2188963 0.193272,0.3611392 0.44578,0.4581466 1.182131,0.4581466 0.13338,0 0.249116,0.00679 0.359165,0.016968 v 0.8229664 c -0.125028,0.0076 -0.235936,0.0198 -0.373305,0.0198 -0.693041,0 -0.978451,0.10384 -1.145366,0.415726 -0.122325,0.228537 -0.223418,0.766292 -0.223418,1.196271 0,0.628505 -0.07106,0.770015 -0.373304,0.712673 -0.279477,-0.05309 -0.403666,-0.347457 -0.483599,-1.145367 l -0.107467,-1.071837 h -1.182131 -1.182132 l -0.107466,1.071837 c -0.0799,0.79791 -0.203838,1.092282 -0.483599,1.145367 -0.311612,0.0591 -0.376133,-0.08949 -0.376133,-0.868216 0,-0.516727 -0.11558,-1.05731 -0.257354,-1.1991 -0.141791,-0.141796 -0.674057,-0.257354 -1.182131,-0.257354 -0.780553,0 -0.92195,-0.06681 -0.92195,-0.4298659 0,-0.3630546 0.141408,-0.4298659 0.92195,-0.4298659 0.508073,0 1.04034,-0.115558 1.182131,-0.257354 0.14179,-0.141796 0.257354,-0.6171384 0.257354,-1.0576965 0,-0.4417456 -0.150366,-0.9535313 -0.33654,-1.1397104 -0.187257,-0.1872736 -0.697097,-0.3365398 -1.145366,-0.3365398 -0.444487,0 -0.872475,-0.063637 -0.95023,-0.1414033 -0.0777,-0.077766 -0.03264,-0.2713237 0.09898,-0.4298659 0.133203,-0.1604577 0.652422,-0.2884627 1.173647,-0.2884627 0.796296,0 0.953154,-0.072495 1.043556,-0.4835992 0.05845,-0.2658606 0.13163,-0.7739246 0.164028,-1.1283982 0.03683,-0.4034919 0.180057,-0.6447989 0.381789,-0.6447989 0.229139,0 0.353484,0.3108109 0.429866,1.0746649 l 0.107466,1.0746649 h 1.182132 1.182131 l 0.107467,-1.0718368 c 0.0799,-0.7978993 0.203854,-1.092282 0.483599,-1.1453666 0.07413,-0.014048 0.13457,-0.016455 0.183824,-0.00283 z m -1.954193,3.2353069 c -0.235465,-3.94e-4 -0.47039,0.020479 -0.647627,0.059389 -0.61634,0.135393 -0.644799,0.1903788 -0.644799,1.2698014 0,0.6207775 0.06862,1.1970376 0.152715,1.2811137 0.08407,0.084038 0.640544,0.1253588 1.235865,0.090498 l 1.083149,-0.065046 0.06222,-1.2160682 c 0.063,-1.1994375 0.05468,-1.2184707 -0.591066,-1.3602995 -0.180027,-0.039523 -0.41499,-0.05899 -0.650455,-0.059389 z M 20.410121,23.9567 v 1.317878 h -2.214375 c 0.776111,-0.459608 1.566715,-0.926202 2.214375,-1.317878 z m -35.068013,0.868216 c 0.257627,0.153343 0.481026,0.289205 0.752266,0.449662 h -0.752266 z"
       transform="matrix(0.18272714,0,0,0.18272714,5.3682277,5.1704077)" /><path
       style="fill:#00fff2;fill-opacity:1;stroke:#ffffff;stroke-width:0"
       d="m 32.331721,36.597406 c 0.01013,-0.0096 0.306781,-0.190732 0.65923,-0.402499 0.352448,-0.211768 0.655731,-0.394011 0.673961,-0.404986 0.01823,-0.01097 0.03314,0.17015 0.03314,0.402499 v 0.422453 h -0.692375 c -0.380806,0 -0.684089,-0.0079 -0.673961,-0.01747 z"
       id="path10"
       transform="matrix(0.26458333,0,0,0.26458333,0.17370761,0.09477717)" /><path
       style="fill:#00fff2;fill-opacity:1;stroke:#ffffff;stroke-width:0"
       d="m 9.5238444,36.504388 c 0,-0.135804 0.020867,-0.135705 0.243068,0.0012 l 0.1767767,0.10888 -0.2099223,2.27e-4 c -0.1945148,2.09e-4 -0.2099224,-0.0079 -0.2099224,-0.110259 z"
       id="path11"
       transform="matrix(0.26458333,0,0,0.26458333,0.17370761,0.09477717)" /><rect
       style="fill:#00fff2;fill-opacity:1;stroke:#ffffff;stroke-width:0"
       id="rect20"
       width="0.61973119"
       height="0.31571212"
       x="2.5590882"
       y="3.392215" /><rect
       style="fill:#00fff2;fill-opacity:1;stroke:#ffffff;stroke-width:0"
       id="rect21"
       width="1.0874529"
       height="0.67819637"
       x="8.5225391"
       y="3.4389873" /><rect
       style="fill:#00fff2;fill-opacity:1;stroke:#ffffff;stroke-width:0"
       id="rect22"
       width="0.92375028"
       height="0.17539562"
       x="8.6043901"
       y="9.5544481" /><rect
       style="fill:#00fff2;fill-opacity:1;stroke:#ffffff;stroke-width:0"
       id="rect23"
       width="1.1225319"
       height="0.8769781"
       x="8.5926971"
       y="9.2504292" /><rect
       style="fill:#00fff2;fill-opacity:1;stroke:#ffffff;stroke-width:0"
       id="rect24"
       width="1.6019467"
       height="0.97052246"
       x="2.1498315"
       y="9.3205862" /></g></svg>
