<?xml version="1.0" encoding="UTF-8" standalone="no"?>
<!-- Created with Inkscape (http://www.inkscape.org/) -->

<svg
   width="43.022518"
   height="49.442574"
   viewBox="0 0 11.383041 13.081681"
   version="1.1"
   id="svg1"
   xml:space="preserve"
   xmlns:inkscape="http://www.inkscape.org/namespaces/inkscape"
   xmlns:sodipodi="http://sodipodi.sourceforge.net/DTD/sodipodi-0.dtd"
   xmlns="http://www.w3.org/2000/svg"
   xmlns:svg="http://www.w3.org/2000/svg"><sodipodi:namedview
     id="namedview1"
     pagecolor="#ffffff"
     bordercolor="#000000"
     borderopacity="0.25"
     inkscape:showpageshadow="2"
     inkscape:pageopacity="0.0"
     inkscape:pagecheckerboard="0"
     inkscape:deskcolor="#d1d1d1"
     inkscape:document-units="mm" /><defs
     id="defs1" /><g
     inkscape:label="Layer 1"
     inkscape:groupmode="layer"
     id="layer1"
     transform="translate(-0.08465065,-0.07928744)"><path
       id="path12"
       style="fill:#00fff2;fill-opacity:1;stroke:#ffffff;stroke-width:0"
       d="M 5.7339182,0.07928744 5.626948,0.13354769 C 5.3767773,0.26075157 2.7261292,1.8099847 1.4597605,2.5690579 L 0.08465065,3.393297 0.08930153,5.9352607 c 0.00269,1.3980986 0.01502852,2.8736461 0.02738851,3.2788697 l 0.0227376,0.7369059 0.10025228,0.058395 c 0.78753418,0.459326 3.47545098,1.987678 4.38526208,2.493388 0.6506863,0.361678 1.1922073,0.657987 1.2030273,0.658357 0.050842,0.0017 2.6349501,-1.504428 4.3883627,-2.557466 L 11.467935,9.8523343 11.462768,7.34241 c -0.0026,-1.3805116 -0.01498,-2.8558443 -0.02739,-3.2783529 L 11.413158,3.2956286 11.08863,3.1064928 C 10.169134,2.5699814 8.0934291,1.3902137 6.9860382,0.77485222 Z M 5.7762929,3.005207 c 0.5457753,0 1.0913224,0.019913 1.3559896,0.060462 C 7.8250504,3.1718017 8.4134063,3.3776681 8.5590688,3.5648628 8.7949011,3.8679336 8.3040757,4.1857076 7.3493235,4.3482775 6.632446,4.4703433 5.6458833,4.507 4.8817739,4.4397448 3.5248478,4.3203099 2.7023732,3.9390167 2.993517,3.5648628 3.13918,3.3776681 3.7270197,3.1718023 4.4197866,3.0656685 4.6844535,3.0251205 5.2305176,3.005207 5.7762929,3.005207 Z M 2.9351227,4.0692248 3.0431264,4.1338203 C 3.813874,4.5959497 5.8205947,4.7628758 7.3705108,4.4934883 7.8590802,4.4085717 8.1169605,4.3316066 8.4081736,4.1839465 L 8.6169464,4.0780098 V 4.671772 5.2650174 L 8.4975738,5.3621691 C 8.2491081,5.5647734 7.6607765,5.7301793 6.8832021,5.8158882 6.3437635,5.8753491 5.1550887,5.8743191 4.6259755,5.8138211 3.8910786,5.7298092 3.2953285,5.5585498 3.0544952,5.3621691 L 2.9351227,5.2650174 V 4.6671211 Z M 8.321874,4.8030301 c -0.078193,0.00359 -0.2180746,0.072705 -0.2180746,0.1152385 0,0.091442 0.089593,0.1051968 0.2118734,0.033073 0.089643,-0.052868 0.1071119,-0.1242525 0.035657,-0.1457276 -0.00806,-0.00242 -0.018285,-0.0031 -0.029456,-0.00258 z M 7.9802927,4.9379056 c -0.107026,0 -0.2251958,0.073246 -0.1917195,0.1188558 0.037761,0.05145 0.1903402,0.043419 0.2578654,-0.013436 0.071544,-0.060245 0.04317,-0.1054199 -0.066146,-0.1054198 z m -0.3539835,0.087333 c -0.1109309,0.012507 -0.2000847,0.079677 -0.1663981,0.1255737 0.029416,0.040076 0.1651846,0.044039 0.2351277,0.00672 0.08538,-0.045565 0.034266,-0.1439115 -0.06873,-0.1322916 z M 2.9351227,5.520299 3.0364085,5.5797269 c 0.5403098,0.3209306 1.4336262,0.4796938 2.7212809,0.4826579 1.2349522,0.00283 2.065872,-0.1314531 2.6504842,-0.4278809 L 8.6169464,5.5285672 V 6.1223294 6.7160916 L 8.4975738,6.8111763 C 8.2678643,6.9951338 7.8447615,7.1302517 7.1467519,7.241641 6.8526156,7.2885804 5.1159479,7.3304404 4.8781565,7.296418 4.8277597,7.289209 4.6624525,7.2684565 4.5112538,7.2504259 3.8573992,7.1724959 3.2932614,7.0023858 3.0544952,6.8111763 L 2.9351227,6.7160916 V 6.1181953 Z M 8.321874,6.2535876 c -0.078193,0.00359 -0.2180746,0.072704 -0.2180746,0.1152384 0,0.091442 0.089593,0.1057078 0.2118734,0.03359 0.089643,-0.052868 0.1071119,-0.1247694 0.035657,-0.1462443 -0.00806,-0.00242 -0.018285,-0.0031 -0.029456,-0.00258 z M 7.9771922,6.3879463 c -0.047272,0.00116 -0.1026921,0.014682 -0.1493449,0.043408 -0.05819,0.035826 -0.061661,0.050946 -0.022221,0.09095 0.036945,0.037488 0.068197,0.04138 0.1441772,0.017053 0.053471,-0.017117 0.1087938,-0.047319 0.12299,-0.066663 0.039851,-0.054291 -0.016814,-0.086676 -0.095601,-0.084749 z m -0.350883,0.08785 C 7.5153783,6.4883092 7.4262245,6.5554732 7.4599111,6.60137 7.4893271,6.641446 7.6250957,6.645409 7.6950388,6.60809 7.7804188,6.562525 7.7293048,6.4641785 7.6263088,6.4757983 Z M 8.6169464,6.9708565 V 7.5687528 8.1666491 L 8.4975738,8.2617337 C 8.2681707,8.4454466 7.8481505,8.5798029 7.1467519,8.6927152 6.9274048,8.7280361 6.5710112,8.7447015 5.9044505,8.7511095 5.3903703,8.7560595 4.9285561,8.7542254 4.8781565,8.7469754 4.8277597,8.7398387 4.6624525,8.7195213 4.5112538,8.7015002 3.8573992,8.623573 3.2932614,8.4529436 3.0544952,8.2617337 L 2.9351227,8.1666491 V 7.5692695 6.97189 l 0.1560628,0.0894 C 3.6133686,7.3612248 4.5134466,7.5125528 5.7762929,7.5124255 7.0745859,7.5122947 7.9704981,7.3549216 8.5161773,7.0308011 Z M 8.321874,7.704145 c -0.078193,0.00359 -0.2180746,0.072709 -0.2180746,0.1152385 0,0.091442 0.089593,0.1057103 0.2118734,0.03359 0.089643,-0.052867 0.1071119,-0.124252 0.035657,-0.1457275 -0.00806,-0.00242 -0.018285,-0.00361 -0.029456,-0.0031 z M 7.9864939,7.8390205 c -0.046701,-0.00308 -0.1064225,0.010739 -0.1586466,0.042891 -0.057782,0.035577 -0.061407,0.051206 -0.022738,0.090434 0.064416,0.065356 0.2619995,0.00927 0.2619995,-0.074414 0,-0.035599 -0.033914,-0.055833 -0.080615,-0.058911 z m -0.3513997,0.091467 c -0.055338,-0.00292 -0.1195808,0.011599 -0.153479,0.045992 -0.082999,0.08421 0.04107,0.1414662 0.1974039,0.09095 0.031885,-0.010306 0.057878,-0.045376 0.057878,-0.077515 0,-0.036183 -0.046465,-0.056505 -0.1018025,-0.059428 z m 0.9818522,0.521932 V 9.0503161 9.6482124 L 8.4975738,9.743297 c -0.2294031,0.1837129 -0.6494233,0.31755 -1.3508219,0.430465 -0.2193471,0.03531 -0.5757407,0.05249 -1.2423014,0.05891 -0.5140802,0.0049 -0.9758944,0.0031 -1.026294,-0.0041 -0.050397,-0.0071 -0.215704,-0.02797 -0.3669027,-0.04599 C 3.8573992,10.104617 3.2932614,9.9345089 3.0544952,9.743297 L 2.9351227,9.6482124 V 9.0508329 8.4534533 l 0.1560628,0.0894 C 3.6133686,8.8427878 4.5134466,8.9941169 5.7762929,8.9939888 7.0745859,8.9938579 7.9704981,8.8359682 8.5161773,8.5118477 Z M 8.321874,9.1857083 c -0.078193,0.00359 -0.2180746,0.07271 -0.2180746,0.1152385 0,0.09144 0.089593,0.1057156 0.2118734,0.03359 0.089643,-0.05287 0.1071119,-0.1247689 0.035657,-0.1462443 -0.00806,-0.00242 -0.018285,-0.0031 -0.029456,-0.00258 z M 7.9864939,9.3205838 c -0.046701,-0.00308 -0.1064225,0.010741 -0.1586466,0.042891 -0.057782,0.03558 -0.061407,0.051204 -0.022738,0.090434 0.064416,0.06536 0.2619995,0.00927 0.2619995,-0.074414 0,-0.0356 -0.033914,-0.055834 -0.080615,-0.058911 z m -0.3513997,0.091467 c -0.055338,-0.00292 -0.1195808,0.011592 -0.153479,0.045992 -0.082999,0.08421 0.041069,0.1414685 0.1974039,0.090951 0.031885,-0.01031 0.057878,-0.045375 0.057878,-0.077515 0,-0.036185 -0.046465,-0.056507 -0.1018029,-0.059428 z" /><path
       style="fill:#f9f9f9;fill-opacity:1;stroke:#ffffff;stroke-width:0"
       d="M 5.2752375,8.2503368 C 4.6929915,8.0490075 4.4827175,7.760799 4.5176635,7.2119799 c 0.0336,-0.5277187 0.305417,-0.9573421 0.785162,-1.2410085 0.199772,-0.1181219 0.301187,-0.1409205 0.626867,-0.1409205 0.3444,0 0.400053,0.014203 0.489898,0.1250318 0.126721,0.1563161 0.126522,0.1940588 -0.0017,0.32228 -0.07816,0.078167 -0.147805,0.095797 -0.288328,0.072993 -0.285271,-0.046293 -0.545786,0.024862 -0.75113,0.2051555 -0.250837,0.2202384 -0.340415,0.4097409 -0.340415,0.7201546 0,0.392482 0.13136,0.4765798 0.834151,0.534034 0.372242,0.030432 0.436816,0.023748 0.436125,-0.04513 -0.0015,-0.14866 -0.08722,-0.2196649 -0.344423,-0.2852785 -0.306588,-0.078211 -0.389687,-0.1811942 -0.301821,-0.3740404 0.06219,-0.1364857 0.06236,-0.1365179 0.74806,-0.1365179 0.74407,0 0.85231,0.037235 0.85231,0.2932103 0,0.1355058 -0.134144,0.236409 -0.31429,0.236409 -0.09575,0 -0.109406,0.032543 -0.109406,0.2607464 0,0.2032479 -0.03023,0.2966792 -0.137113,0.4236957 -0.13592,0.1615299 -0.141572,0.1629345 -0.648785,0.1612202 -0.344364,-0.00116 -0.598621,-0.031794 -0.777588,-0.093678 z"
       id="path16" /></g></svg>
