<?xml version="1.0" encoding="UTF-8" standalone="no"?>
<!-- Created with Inkscape (http://www.inkscape.org/) -->

<svg
   width="11.335338mm"
   height="13.010434mm"
   viewBox="0 0 11.335338 13.010435"
   version="1.1"
   id="svg1"
   xml:space="preserve"
   inkscape:export-filename="BorisPaunovic.svg"
   inkscape:export-xdpi="96"
   inkscape:export-ydpi="96"
   xmlns:inkscape="http://www.inkscape.org/namespaces/inkscape"
   xmlns:sodipodi="http://sodipodi.sourceforge.net/DTD/sodipodi-0.dtd"
   xmlns="http://www.w3.org/2000/svg"
   xmlns:svg="http://www.w3.org/2000/svg"><sodipodi:namedview
     id="namedview1"
     pagecolor="#ffffff"
     bordercolor="#000000"
     borderopacity="0.25"
     inkscape:showpageshadow="2"
     inkscape:pageopacity="0.0"
     inkscape:pagecheckerboard="0"
     inkscape:deskcolor="#d1d1d1"
     inkscape:document-units="mm" /><defs
     id="defs1" /><g
     inkscape:label="Layer 1"
     inkscape:groupmode="layer"
     id="layer1"
     transform="translate(-55.725455,-25.345177)"><path
       id="path84604-9"
       style="fill:#43f7ff;fill-opacity:1;stroke:#ffffff;stroke-width:0"
       d="m 61.439835,25.356546 -0.204122,0.102319 c -0.430454,0.21674 -4.08307,2.299187 -5.079793,2.895947 l -0.36742,0.220142 -0.02015,0.367419 c -0.02839,0.52828 -0.03168,6.084272 -0.0036,6.127792 0.04862,0.07539 3.770063,2.263462 5.241024,3.081465 0.189518,0.10539 0.3491,0.191203 0.3545,0.191203 0.101813,0 5.325144,-2.991753 5.571236,-3.191019 l 0.0801,-0.0646 0.01602,-2.345076 c 0.0088,-1.289741 0.0088,-2.747162 0,-3.239079 L 67.01161,28.60854 66.371856,28.227168 c -0.842271,-0.501998 -3.260235,-1.91355 -4.192509,-2.447396 z m -3.516065,4.017326 h 3.600814 c 3.201708,0 3.597417,0.0045 3.569808,0.03772 -0.029,0.03493 -0.571977,0.50522 -0.775663,0.671794 -0.05019,0.04105 -0.218073,0.1883 -0.373104,0.327629 -0.155034,0.13932 -0.326629,0.285926 -0.381372,0.325561 -0.05475,0.03963 -0.172528,0.14173 -0.261483,0.22686 -0.08895,0.08514 -0.232824,0.213024 -0.319877,0.28422 -0.300732,0.245958 -0.538367,0.452232 -0.568957,0.49351 -0.01689,0.02277 -0.167107,0.151252 -0.33383,0.285771 -0.166721,0.13452 -0.35581,0.297941 -0.42013,0.363285 -0.06432,0.06535 -0.12692,0.118285 -0.139009,0.117306 -0.01208,-9.73e-4 -0.195602,-0.153079 -0.407727,-0.337964 -0.212124,-0.184889 -0.458299,-0.401225 -0.547254,-0.480591 -0.08895,-0.07936 -0.256781,-0.224293 -0.373103,-0.322461 -0.116327,-0.09817 -0.329143,-0.283197 -0.47284,-0.410828 -0.143694,-0.12763 -0.314608,-0.275167 -0.379822,-0.328145 -0.06522,-0.05297 -0.261351,-0.223654 -0.435632,-0.379305 -0.174283,-0.15565 -0.37289,-0.325314 -0.441317,-0.376721 -0.168031,-0.126232 -0.400754,-0.332648 -0.476973,-0.42323 z m 7.506519,0.295589 0.0067,1.133781 c 0.0035,0.623589 0.0035,1.643122 0,2.266011 l -0.0067,1.132748 -0.14056,-0.118856 c -0.07725,-0.06522 -0.262234,-0.224492 -0.411344,-0.3545 -0.149109,-0.130017 -0.314448,-0.270036 -0.36742,-0.311093 -0.05298,-0.04105 -0.175838,-0.148219 -0.272851,-0.238228 -0.235598,-0.218592 -0.534077,-0.471289 -0.557072,-0.471289 -0.01018,0 -0.09092,-0.06949 -0.179834,-0.155029 -0.190455,-0.183215 -0.47097,-0.427419 -0.603064,-0.525033 -0.05157,-0.03811 -0.08728,-0.07952 -0.07958,-0.09198 0.0077,-0.01252 0.200813,-0.183992 0.429431,-0.380855 0.228617,-0.196866 0.813315,-0.701701 1.299146,-1.121895 z m -7.821745,0.01757 c 0.01567,0.0097 0.192395,0.158784 0.392741,0.331246 0.200345,0.172462 0.531567,0.456356 0.736389,0.630969 0.204822,0.174611 0.405945,0.349534 0.447001,0.388607 0.07368,0.07014 0.557244,0.481526 0.764295,0.650089 0.05862,0.04773 0.143371,0.127761 0.188102,0.177767 l 0.08165,0.09095 -0.178801,0.145727 c -0.09827,0.08016 -0.252452,0.213389 -0.342614,0.296106 -0.205623,0.188642 -0.485435,0.42807 -0.599447,0.513147 -0.04789,0.03574 -0.193485,0.162586 -0.323494,0.282154 -0.130014,0.119575 -0.338836,0.299582 -0.464055,0.399975 -0.125216,0.100397 -0.298601,0.251303 -0.385506,0.33538 -0.0869,0.08408 -0.200342,0.186137 -0.251664,0.22686 l -0.09302,0.07441 v -2.280481 c 0,-1.705339 0.0072,-2.276069 0.02842,-2.262911 z m 2.88923,2.567285 0.08217,0.04703 c 0.04518,0.02583 0.197848,0.14825 0.338997,0.271818 0.319385,0.279607 0.55622,0.45837 0.606682,0.45837 0.02122,0 0.174169,-0.114494 0.339514,-0.254765 0.389023,-0.330033 0.619492,-0.516524 0.638721,-0.516248 0.01369,1.94e-4 0.207626,0.157419 0.376204,0.304891 0.479243,0.419241 0.657057,0.570311 0.754476,0.640271 0.06393,0.04592 0.116272,0.09073 0.116272,0.09974 0,0.02036 0.56055,0.500198 0.627869,0.537435 0.02703,0.01494 0.117983,0.09425 0.202054,0.176216 0.08407,0.08198 0.236876,0.219571 0.339515,0.305925 0.10263,0.08635 0.191184,0.160982 0.196887,0.165881 0.0057,0.0049 -1.614926,0.0088 -3.601848,0.0088 h -3.612699 l 0.379822,-0.330729 c 0.208963,-0.181877 0.79281,-0.686815 1.29759,-1.122435 z" /></g></svg>
