<?xml version="1.0" encoding="UTF-8" standalone="no"?>
<!-- Created with Inkscape (http://www.inkscape.org/) -->

<svg
   width="43.022518"
   height="49.442574"
   viewBox="0 0 11.383041 13.081681"
   version="1.1"
   id="svg1"
   xml:space="preserve"
   xmlns:inkscape="http://www.inkscape.org/namespaces/inkscape"
   xmlns:sodipodi="http://sodipodi.sourceforge.net/DTD/sodipodi-0.dtd"
   xmlns="http://www.w3.org/2000/svg"
   xmlns:svg="http://www.w3.org/2000/svg"><sodipodi:namedview
     id="namedview1"
     pagecolor="#ffffff"
     bordercolor="#000000"
     borderopacity="0.25"
     inkscape:showpageshadow="2"
     inkscape:pageopacity="0.0"
     inkscape:pagecheckerboard="0"
     inkscape:deskcolor="#d1d1d1"
     inkscape:document-units="mm" /><defs
     id="defs1" /><g
     inkscape:label="Layer 1"
     inkscape:groupmode="layer"
     id="layer1"
     transform="translate(-0.08465065,-0.07928744)"><path
       id="path12-2-1"
       style="fill:#00fff2;fill-opacity:1;stroke:#ffffff;stroke-width:0"
       d="M 5.7504547,0.08032097 5.6434845,0.13458122 C 5.3933137,0.2617851 2.7426657,1.8110182 1.476297,2.5700915 l -1.37510989,0.8242391 0.004651,2.5419637 c 0.00269,1.3980986 0.0150285,2.8736463 0.0273885,3.2788696 l 0.0227376,0.7369059 0.10025228,0.058394 c 0.78753421,0.459327 3.47545101,1.987679 4.38526201,2.493388 0.6506864,0.361679 1.1922074,0.657988 1.2030274,0.658358 0.050842,0.0017 2.6349505,-1.504429 4.3883621,-2.557467 l 1.251604,-0.7513754 -0.0052,-2.5099243 C 11.476672,5.9629317 11.464292,4.487599 11.451882,4.0650905 L 11.429695,3.2966621 11.105167,3.1075264 C 10.185671,2.5710149 8.1099655,1.3912476 7.0025746,0.77588575 Z M 5.6114451,2.5706082 h 0.1586466 c 0.2415954,0 0.1960735,-0.040315 2.146639,1.9037598 C 9.9957519,6.5464712 9.9481972,6.4869333 9.812739,6.8432157 9.7634981,6.9727254 6.1486819,10.587544 6.0191721,10.636783 5.8919536,10.685153 5.6749456,10.683355 5.5825063,10.633165 5.4703322,10.572284 1.8564053,6.9588561 1.7982411,6.8494168 1.618327,6.510897 1.6221532,6.5054978 3.0927358,5.0288561 L 4.3210846,3.7953397 4.7799713,4.2531929 5.238858,4.7115628 5.2176707,4.8929471 5.1964833,5.0748481 5.2502268,5.204556 c 0.02979,0.071301 0.1207106,0.1831935 0.2020549,0.2485636 L 5.600593,5.5719754 5.6000763,6.673717 5.5995595,7.7749417 5.471402,7.8581408 5.3427276,7.9413398 5.2745147,8.092235 C 5.1508938,8.3645057 5.2274467,8.6740793 5.4589996,8.8389595 l 0.1188558,0.084749 0.2005046,0.012919 0.1999878,0.013436 0.1260904,-0.069246 C 6.2557862,8.7981118 6.3823327,8.6233532 6.4144968,8.451903 L 6.438268,8.3263293 6.3933095,8.1764676 6.3488678,8.0271227 6.2088246,7.8974149 6.0687815,7.7682238 V 6.6819852 c 0,-0.5973084 0.012193,-1.0862386 0.027388,-1.0862386 0.015194,0 0.2049159,0.1784036 0.4216797,0.3958415 l 0.3942912,0.3953247 0.00155,0.2501139 0.00155,0.2501139 0.073897,0.099735 C 7.2880503,7.3873653 7.8185502,7.3568165 8.0428212,6.9264147 L 8.1260203,6.7667345 8.1053497,6.6060208 C 8.0794954,6.4050963 7.9648235,6.2348235 7.7885732,6.1357653 L 7.6521474,6.0587674 7.4712799,6.0685859 7.2904124,6.0778877 6.8428945,5.6319201 6.3958933,5.1859525 6.4170807,5.033507 6.4377512,4.8810615 6.3586863,4.717764 6.2796214,4.5544665 6.1473297,4.4717842 6.0145213,4.3896187 5.8047149,4.3860013 5.5949086,4.3829007 5.1298207,3.9188464 4.6642161,3.4542752 4.9970123,3.1168281 C 5.180201,2.9311294 5.3936298,2.7322832 5.4708852,2.6749946 Z" /></g></svg>
