<?xml version="1.0" encoding="UTF-8" standalone="no"?>
<!-- Created with Inkscape (http://www.inkscape.org/) -->

<svg
   width="17.30336mm"
   height="19.878891mm"
   viewBox="0 0 17.303359 19.878891"
   version="1.1"
   id="svg1"
   xmlns:inkscape="http://www.inkscape.org/namespaces/inkscape"
   xmlns:sodipodi="http://sodipodi.sourceforge.net/DTD/sodipodi-0.dtd"
   xmlns="http://www.w3.org/2000/svg"
   xmlns:svg="http://www.w3.org/2000/svg">
  <sodipodi:namedview
     id="namedview1"
     pagecolor="#ffffff"
     bordercolor="#000000"
     borderopacity="0.25"
     inkscape:showpageshadow="2"
     inkscape:pageopacity="0.0"
     inkscape:pagecheckerboard="0"
     inkscape:deskcolor="#d1d1d1"
     inkscape:document-units="mm" />
  <defs
     id="defs1" />
  <g
     inkscape:label="Layer 1"
     inkscape:groupmode="layer"
     id="layer1"
     transform="translate(-1.324226,-0.036755)">
    <path
       id="path3"
       style="fill:#43f7ff;stroke:#ffffff;stroke-width:0"
       d="m 10.011566,0.03675501 c -0.0497,-1.77e-4 -4.2914898,2.40667969 -4.3346198,2.43137589 -0.04313,0.024696 -4.266207,2.4643882 -4.29121,2.5073406 -0.025,0.042952 -0.06132,4.9200227 -0.0615,4.9697227 -1.77e-4,0.0497 0.0017,4.9271088 0.02635,4.9702388 0.0247,0.04313 4.229656,2.512826 4.272608,2.53783 0.04295,0.025 4.267866,2.462204 4.317566,2.462382 0.0497,1.77e-4 4.2909728,-2.40668 4.3341018,-2.431376 0.04313,-0.0247 4.266208,-2.464905 4.291211,-2.507858 0.025,-0.04295 0.06132,-4.919506 0.0615,-4.969205 1.77e-4,-0.0497 -0.0011,-4.92711 -0.02584,-4.9702396 -0.0247,-0.04313 -4.230172,-2.5128263 -4.273124,-2.5378296 -0.04295,-0.025003 -4.26735,-2.46220479 -4.317049,-2.46238179 z m 2.862357,5.69112529 c 0.609048,1e-7 1.145363,0.099106 1.608688,0.2971395 0.46706,0.1942973 0.825558,0.4818747 1.075903,0.8629964 0.250344,0.3811217 0.38491,0.8124878 0.403593,1.2944946 l -1.042314,0.078548 C 14.863743,7.7416871 14.673326,7.3491603 14.348252,7.0838697 14.026914,6.8185791 13.550348,6.6859611 12.918882,6.6859612 c -0.657622,0 -1.137567,0.1214471 -1.440223,0.3643188 -0.298918,0.2391352 -0.448551,0.5286605 -0.448551,0.8686808 0,0.2951826 0.106381,0.5380769 0.31936,0.7286378 0.209244,0.1905607 0.754782,0.3868242 1.636593,0.5885945 0.885547,0.1980338 1.492783,0.3719557 1.821594,0.5214152 0.478271,0.2204529 0.831441,0.5007547 1.059367,0.8407757 0.227926,0.336283 0.341581,0.724915 0.341581,1.16582 0,0.437169 -0.124826,0.850089 -0.375171,1.238684 -0.250344,0.384858 -0.61079,0.685554 -1.081587,0.902271 -0.467061,0.212979 -0.994154,0.31936 -1.580782,0.31936 -0.743561,0 -1.367295,-0.108329 -1.871721,-0.325045 C 10.798653,13.682758 10.404178,13.357773 10.116469,12.92434 9.8324962,12.487171 9.6828632,11.994108 9.6679172,11.444844 l 1.0257768,-0.08992 c 0.04857,0.411013 0.160799,0.749118 0.336414,1.014408 0.179351,0.261554 0.455758,0.474315 0.829407,0.638721 0.373648,0.160669 0.793844,0.241329 1.260905,0.241329 0.41475,0 0.781039,-0.0617 1.098641,-0.185002 0.317601,-0.123304 0.553221,-0.291382 0.706417,-0.504362 0.156932,-0.216716 0.235127,-0.452335 0.235127,-0.706417 0,-0.257817 -0.07482,-0.481749 -0.224275,-0.67231 -0.14946,-0.194297 -0.395733,-0.357048 -0.73949,-0.487825 -0.220453,-0.08594 -0.70819,-0.218558 -1.46296,-0.397909 C 11.97911,10.112469 11.450586,9.9404952 11.14793,9.7798262 10.755599,9.5743226 10.462178,9.3202575 10.267881,9.017602 10.07732,8.71121 9.9821102,8.36921 9.9821102,7.9918248 c 0,-0.41475 0.1175508,-0.8014331 0.3529498,-1.1601359 0.235399,-0.3624393 0.579347,-0.6368979 1.031462,-0.8237223 0.452115,-0.1868243 0.954401,-0.2800863 1.507401,-0.2800863 z m -5.6999098,0.1400432 1.087272,-1e-7 v 5.5991416 c 0,0.687513 -0.08404,1.219933 -0.252181,1.597318 -0.164406,0.377385 -0.427694,0.664963 -0.790133,0.862997 -0.358703,0.198033 -0.780846,0.297139 -1.266589,0.297139 -0.721142,0 -1.274472,-0.207434 -1.65933,-0.622184 -0.381122,-0.41475 -0.564267,-1.031209 -0.549321,-1.8495 l 0.980819,-0.134358 c 0.02615,0.62773 0.144223,1.057148 0.353467,1.28881 0.209243,0.231662 0.498768,0.347782 0.86868,0.347782 0.272764,0 0.507867,-0.0617 0.7059,-0.185001 0.198034,-0.127041 0.334548,-0.297067 0.409278,-0.510047 0.07473,-0.216716 0.112138,-0.560664 0.112138,-1.031461 z" />
  </g>
</svg>
