<?xml version="1.0" encoding="UTF-8" standalone="no"?>
<!-- Created with Inkscape (http://www.inkscape.org/) -->

<svg
   width="43.022518"
   height="49.442574"
   viewBox="0 0 11.383041 13.081681"
   version="1.1"
   id="svg1"
   xml:space="preserve"
   sodipodi:docname="VSCode.svg"
   inkscape:version="1.3.2 (091e20e, 2023-11-25, custom)"
   xmlns:inkscape="http://www.inkscape.org/namespaces/inkscape"
   xmlns:sodipodi="http://sodipodi.sourceforge.net/DTD/sodipodi-0.dtd"
   xmlns="http://www.w3.org/2000/svg"
   xmlns:svg="http://www.w3.org/2000/svg"><sodipodi:namedview
     id="namedview1"
     pagecolor="#ffffff"
     bordercolor="#000000"
     borderopacity="0.25"
     inkscape:showpageshadow="2"
     inkscape:pageopacity="0.0"
     inkscape:pagecheckerboard="0"
     inkscape:deskcolor="#d1d1d1"
     inkscape:document-units="mm"
     inkscape:zoom="5.8707974"
     inkscape:cx="-1.5330115"
     inkscape:cy="32.619078"
     inkscape:window-width="1920"
     inkscape:window-height="1017"
     inkscape:window-x="-8"
     inkscape:window-y="-8"
     inkscape:window-maximized="1"
     inkscape:current-layer="layer1" /><defs
     id="defs1" /><g
     inkscape:label="Layer 1"
     inkscape:groupmode="layer"
     id="layer1"
     transform="translate(-0.08465065,-0.07928744)"><path
       id="path12"
       style="fill:#00fff2;fill-opacity:1;stroke:#ffffff;stroke-width:0"
       d="M 5.7339182,0.07928744 5.626948,0.13354769 C 5.3767779,0.26075133 2.7261266,1.8099863 1.4597605,2.5690579 L 0.08465065,3.393297 0.08930153,5.9352607 c 0.00269,1.3980958 0.01502854,2.8736469 0.02738851,3.2788697 l 0.0227376,0.7369059 0.10025228,0.058395 c 0.78753258,0.459324 3.47545278,1.987678 4.38526208,2.493388 0.6506849,0.361676 1.1922073,0.657987 1.2030273,0.658357 0.050842,0.0017 2.6349535,-1.50443 4.3883627,-2.557466 L 11.467935,9.8523343 11.462768,7.34241 c -0.0026,-1.3805088 -0.01498,-2.8558451 -0.02739,-3.2783529 L 11.413158,3.2956286 11.08863,3.1064928 C 10.169136,2.5699826 8.0934269,1.3902125 6.9860382,0.77485222 Z m 1.6856852,2.81843266 0.8645468,0.4103108 0.8640299,0.4108277 0.082166,0.1147216 0.082682,0.114205 V 6.6220405 9.2962959 L 9.2324127,9.4063667 9.1523142,9.5169543 8.2970693,9.929849 7.4418243,10.342744 7.2888621,10.342227 7.1358998,10.34171 7.26044,10.287967 l 0.1245402,-0.05426 0.033073,-0.08733 -0.062528,0.05426 c -0.036758,0.03228 -0.1034426,0.07007 -0.1483114,0.08372 l -0.081649,0.0248 L 6.997407,10.202701 C 6.9267503,10.14429 6.3026038,9.5812446 5.6109283,8.9510973 4.9192528,8.3209503 4.1893091,7.6616164 3.9882883,7.4860705 3.7872675,7.3105245 3.399386,6.9564119 3.1263255,6.6995552 2.8532657,6.4426985 2.4601968,6.0796029 2.2529937,5.8923693 2.0457907,5.7051357 1.8610396,5.5124848 1.8426829,5.4644884 L 1.80961,5.3771553 1.8566355,5.2707018 c 0.0627,-0.1413053 0.4942269,-0.530639 0.6242513,-0.5632731 l 0.1028361,-0.025838 0.080098,0.049609 c 0.1322276,0.082282 2.4813415,1.8391246 2.5476481,1.90531 0.033735,0.033674 0.5452125,0.4267303 1.1363647,0.8738485 l 1.0748698,0.813387 v 0.9089885 0.9012373 l 0.038241,-0.09974 V 6.5972358 3.1602363 L 7.4196034,3.0832384 C 7.3969452,3.0409009 7.3239504,2.982506 7.2573395,2.9535306 L 7.1358998,2.9008206 7.27801,2.8992704 Z m -0.2775024,0.035657 0.07338,0.026355 c 0.040291,0.014391 0.1032851,0.051629 0.1400432,0.083199 l 0.067179,0.057361 v 0.8759155 0.8764323 l -0.076481,0.097152 c -0.042009,0.053406 -0.076816,0.081631 -0.077515,0.063045 -6.989e-4,-0.018586 -0.035171,0.00674 -0.076481,0.056327 -0.041311,0.049588 -0.075782,0.075442 -0.076481,0.057361 -6.987e-4,-0.01808 -0.033127,0.00479 -0.07183,0.05116 -0.038703,0.046367 -0.077522,0.077507 -0.0863,0.06873 -0.00878,-0.00878 -0.087866,0.049981 -0.1762166,0.1307414 -0.08835,0.08076 -0.1615652,0.1358 -0.162264,0.1224731 -6.988e-4,-0.013327 -0.035171,0.016559 -0.076481,0.066146 -0.04131,0.049588 -0.075265,0.075442 -0.075964,0.057361 -6.987e-4,-0.01808 -0.035171,0.00777 -0.076481,0.057361 -0.041311,0.049588 -0.075782,0.074925 -0.076481,0.056844 -6.988e-4,-0.01808 -0.035171,0.00777 -0.076481,0.057361 -0.041311,0.049588 -0.075782,0.075442 -0.076481,0.057361 -6.989e-4,-0.01808 -0.034654,0.00777 -0.075964,0.057361 -0.041311,0.049588 -0.075782,0.075442 -0.076481,0.057361 -6.988e-4,-0.01808 -0.033127,0.00479 -0.07183,0.05116 -0.038703,0.046367 -0.078238,0.076791 -0.08785,0.067179 -0.00961,-0.00961 -0.089217,0.048397 -0.1767334,0.1291911 -0.087516,0.080795 -0.1594982,0.1365503 -0.1601969,0.1240234 -6.989e-4,-0.012527 -0.033127,0.015128 -0.07183,0.061495 -0.038703,0.046367 -0.079813,0.075217 -0.091467,0.063562 -0.011655,-0.011655 -0.043801,0.014857 -0.071313,0.058911 -0.068233,0.1092589 -0.028704,0.1295892 -0.664559,-0.3498494 L 4.0425486,5.7430244 4.1934438,5.5900622 C 4.2763478,5.5060438 4.3306487,5.4629539 4.3143666,5.4944608 4.2980845,5.5259679 4.384225,5.4489229 4.5055694,5.322895 4.6269144,5.1968675 4.7386591,5.0974368 4.7541331,5.1022367 4.7696072,5.1070337 4.8805486,5.0041374 5.0006297,4.8733101 5.1207106,4.7424826 5.2069681,4.6609356 5.1918325,4.6924426 5.176697,4.7239497 5.2711931,4.6382867 5.4021555,4.5017565 5.533118,4.3652267 5.6270264,4.2790468 5.6109283,4.3105537 5.5948305,4.3420609 5.6823626,4.265481 5.8052317,4.1400215 5.9281007,4.0145623 6.0398417,3.9149358 6.0532786,3.9188464 6.0667156,3.9227545 6.1645873,3.8343018 6.2708364,3.7219592 6.3770855,3.6096164 6.4707671,3.5244981 6.4790924,3.5328234 6.4874179,3.5411489 6.5826753,3.4540547 6.6909658,3.3395536 6.7992561,3.2250523 6.887853,3.1422201 6.887853,3.1555855 c 0,0.013365 0.057141,-0.030871 0.127124,-0.098702 z m 0.3043742,0.5581055 c 0.00145,0.00806 0.00299,0.041652 0.00465,0.1033528 0.00666,0.2468043 0.00666,0.6502986 0,0.8971029 -0.00666,0.2468042 -0.012402,0.045057 -0.012402,-0.4485514 0,-0.3702065 0.00341,-0.576094 0.00775,-0.5519043 z M 3.0322743,6.628242 3.1175403,6.70369 c 0.6268626,0.554056 1.0274704,0.9561018 0.8325073,0.8356079 -0.019567,-0.012093 -0.062657,0.016527 -0.095601,0.063562 -0.032948,0.047034 -0.060273,0.069003 -0.060978,0.048576 -6.994e-4,-0.020427 -0.035171,0.00312 -0.076481,0.05271 -0.041308,0.049587 -0.075782,0.075441 -0.076481,0.057361 -6.994e-4,-0.018081 -0.033123,0.00531 -0.07183,0.051676 -0.0387,0.046367 -0.077522,0.07699 -0.0863,0.068213 -0.00878,-0.00878 -0.088384,0.049981 -0.1767334,0.1307414 -0.088351,0.08076 -0.1610486,0.1363169 -0.1617473,0.1229899 -6.986e-4,-0.013327 -0.035172,0.016042 -0.076481,0.065629 -0.041308,0.049587 -0.075266,0.075442 -0.075964,0.057361 -6.987e-4,-0.01808 -0.035172,0.00777 -0.076481,0.057361 -0.041308,0.049587 -0.075782,0.075441 -0.076481,0.057361 -6.986e-4,-0.018081 -0.033123,0.00479 -0.07183,0.05116 -0.0387,0.046367 -0.080942,0.073572 -0.094051,0.060462 -0.013113,-0.01311 -0.023771,-0.00789 -0.023771,0.011369 0,0.019254 -0.051421,0.03514 -0.1142049,0.03514 H 2.4204254 L 2.4002716,8.4777412 C 2.3890392,8.448479 2.3703905,8.4337228 2.3589304,8.4451851 2.3474703,8.4566466 2.268227,8.3906342 2.1832306,8.298424 2.0982342,8.2062136 2.0148333,8.1395313 1.9977122,8.1501126 1.9627589,8.1717149 1.9104054,8.1015198 1.8974599,8.0157539 1.8927583,7.984628 1.8710329,7.9533737 1.848884,7.9459907 1.7976516,7.928913 1.7958563,7.8240343 1.846817,7.8240343 c 0.021003,0 0.038241,-0.018071 0.038241,-0.040308 0,-0.060976 0.2355385,-0.3417357 0.2692342,-0.3209106 0.016139,0.00998 0.1279865,-0.089283 0.2485636,-0.2206584 0.1205771,-0.1313752 0.206855,-0.2134079 0.1917196,-0.181901 -0.015133,0.031507 0.077305,-0.052496 0.2051554,-0.1870687 z" /><g
       id="g26"
       transform="matrix(0.73462282,0,0,0.73462282,11.239546,1.8181305)"><path
         style="fill:#d5e6f7"
         d="m -5.1719586,6.5382031 c 1.14e-5,-1.2866586 0.00677,-1.8055732 0.015028,-1.1531435 0.00825,0.6524297 0.00824,1.7051504 -2.07e-5,2.3393793 -0.00827,0.6342289 -0.015019,0.1004228 -0.015007,-1.1862358 z"
         id="path32" /></g><path
       style="fill:#00fff2;fill-opacity:0.519685;stroke:#ffffff;stroke-width:0"
       d="m 27.399655,38.537881 c 0.15106,-0.07298 0.333873,-0.302571 0.40625,-0.510194 0.08889,-0.25498 0.131595,-4.626878 0.131595,-13.470891 V 11.463398 l -0.44185,-0.387949 c -0.409139,-0.359229 -0.420706,-0.388114 -0.15625,-0.390171 0.15708,-0.0012 1.776463,0.705279 3.598629,1.570003 2.837224,1.346427 3.353345,1.633727 3.59375,2.000468 L 34.8125,14.683994 34.8091,24.779497 34.8057,34.875 34.465312,35.275235 c -0.432116,0.508092 -6.382846,3.41684 -6.96352,3.403805 -0.356441,-0.008 -0.361981,-0.01565 -0.102212,-0.141159 z"
       id="path76"
       transform="matrix(0.26458333,0,0,0.26458333,0.08465065,0.07928744)" /><path
       style="fill:#00fff2;fill-opacity:0;stroke:#ffffff;stroke-width:0"
       d="M 18.770303,24.189095 C 18.504395,24.002826 17.556636,23.301076 16.664171,22.62965 l -1.622663,-1.220775 0.491217,-0.45139 c 0.27017,-0.248263 0.899602,-0.809361 1.398738,-1.246884 0.499136,-0.437522 1.229197,-1.123952 1.622358,-1.5254 0.393162,-0.401448 0.752025,-0.729589 0.797476,-0.729204 0.04545,3.86e-4 0.426632,-0.32744 0.847071,-0.728502 0.420438,-0.401062 1.171754,-1.087177 1.669591,-1.524699 0.497837,-0.437523 1.588321,-1.420491 2.423298,-2.184375 2.625803,-2.402231 2.353051,-2.196378 2.710833,-2.045942 0.169756,0.07138 0.398424,0.214118 0.508152,0.317202 l 0.199505,0.187425 v 3.260859 3.260859 l -0.231462,0.303461 c -0.127304,0.166904 -0.27947,0.303462 -0.338145,0.303462 -0.05868,0 -0.200101,0.09944 -0.314277,0.220971 -0.114175,0.121534 -0.244917,0.220971 -0.290538,0.220971 -0.08387,0 -0.165551,0.06196 -1.227636,0.93124 -0.324553,0.265635 -0.631891,0.482973 -0.682972,0.482973 -0.05108,0 -0.158029,0.09944 -0.237661,0.220971 -0.07963,0.121534 -0.19294,0.220971 -0.251796,0.220971 -0.05885,0 -0.200425,0.09944 -0.3146,0.220971 -0.114176,0.121534 -0.253387,0.220971 -0.30936,0.220971 -0.05597,0 -0.195184,0.09944 -0.309359,0.220971 -0.114175,0.121534 -0.255745,0.220971 -0.314601,0.220971 -0.05885,0 -0.172163,0.09944 -0.251795,0.220971 -0.07963,0.121533 -0.196598,0.22097 -0.259923,0.22097 -0.06333,0 -0.208554,0.09944 -0.322729,0.220971 -0.114176,0.121534 -0.254721,0.220971 -0.312323,0.220971 -0.0576,0 -0.279412,0.149155 -0.492911,0.331456 -0.868598,0.741671 -1.308423,1.082758 -1.396198,1.082758 -0.05092,0 -0.157744,0.09944 -0.237376,0.220971 -0.07963,0.121534 -0.193279,0.22097 -0.252549,0.22097 -0.05927,0 -0.325325,-0.152401 -0.591233,-0.338671 z"
       id="path77"
       transform="matrix(0.26458333,0,0,0.26458333,0.08465065,0.07928744)" /><path
       style="fill:#00fff2;fill-opacity:0.296588;stroke:#ffffff;stroke-width:0"
       d="m 26.153298,38.207624 c -0.553586,-0.478801 -2.267514,-2.023623 -5.868172,-5.289188 -1.579942,-1.432904 -3.86699,-3.498761 -5.08233,-4.590791 -1.21534,-1.092031 -3.064866,-2.777671 -4.110058,-3.745868 -4.7005796,-4.354305 -4.5975894,-4.242922 -4.4201974,-4.780425 0.1845118,-0.559076 1.7856889,-2.043142 2.4358912,-2.257728 0.2957997,-0.09762 0.3460402,-0.08461 0.7746596,0.200608 0.5961536,0.396703 8.9145166,6.640649 10.5836086,7.944288 0.707536,0.552618 2.626432,2.019017 4.264215,3.258664 l 2.977787,2.253903 5.23e-4,3.416718 5.22e-4,3.41672 -0.412901,0.273494 c -0.227096,0.150422 -0.480032,0.273495 -0.56208,0.273495 -0.08205,0 -0.34371,-0.168251 -0.581468,-0.37389 z"
       id="path78"
       transform="matrix(0.26458333,0,0,0.26458333,0.08465065,0.07928744)" /><path
       style="fill:#00fff2;fill-opacity:0;stroke:#ffffff;stroke-width:0"
       d="m 2.3881799,8.4748914 c 0,-0.019293 -0.011814,-0.035079 -0.026253,-0.035079 -0.014439,0 -0.092898,-0.062343 -0.1743528,-0.1385406 -0.081455,-0.076197 -0.1767328,-0.1524945 -0.211728,-0.169549 -0.035375,-0.01724 -0.073705,-0.062162 -0.086323,-0.1011669 -0.012483,-0.038587 -0.036938,-0.078574 -0.054346,-0.08886 -0.041929,-0.024775 -0.040077,-0.077001 0.00452,-0.1274614 0.019894,-0.022508 0.07628,-0.096534 0.1253028,-0.1645002 0.049023,-0.067966 0.1353524,-0.1536872 0.1918438,-0.190491 0.056491,-0.036804 0.2734154,-0.2337652 0.4820534,-0.4376914 l 0.3793417,-0.370775 0.2170033,0.195775 c 0.119352,0.1076762 0.3247237,0.3020298 0.4563819,0.4318969 0.2048836,0.2020964 0.2335284,0.2393397 0.1987818,0.2584516 -0.022328,0.012282 -0.054348,0.041557 -0.071155,0.065057 -0.016806,0.0235 -0.041598,0.042728 -0.055089,0.042728 -0.013491,0 -0.054647,0.023677 -0.091456,0.052619 -0.036809,0.02894 -0.1094507,0.08419 -0.161426,0.122777 -0.2231392,0.1656612 -0.4139654,0.3173325 -0.4691702,0.3729035 -0.03264,0.032857 -0.07027,0.059739 -0.083621,0.059739 -0.013351,0 -0.048992,0.02631 -0.079201,0.058465 -0.030209,0.032156 -0.067588,0.058465 -0.083064,0.058465 -0.015475,0 -0.041059,0.015568 -0.056849,0.034594 -0.078359,0.094416 -0.351194,0.1492978 -0.3511947,0.070644 z"
       id="path79" /></g></svg>
