<?xml version="1.0" encoding="UTF-8" standalone="no"?>
<!-- Created with Inkscape (http://www.inkscape.org/) -->

<svg
   width="43.022518"
   height="49.442574"
   viewBox="0 0 11.383041 13.081681"
   version="1.1"
   id="svg1"
   xml:space="preserve"
   xmlns:inkscape="http://www.inkscape.org/namespaces/inkscape"
   xmlns:sodipodi="http://sodipodi.sourceforge.net/DTD/sodipodi-0.dtd"
   xmlns="http://www.w3.org/2000/svg"
   xmlns:svg="http://www.w3.org/2000/svg"><sodipodi:namedview
     id="namedview1"
     pagecolor="#ffffff"
     bordercolor="#000000"
     borderopacity="0.25"
     inkscape:showpageshadow="2"
     inkscape:pageopacity="0.0"
     inkscape:pagecheckerboard="0"
     inkscape:deskcolor="#d1d1d1"
     inkscape:document-units="mm" /><defs
     id="defs1" /><g
     inkscape:label="Layer 1"
     inkscape:groupmode="layer"
     id="layer1"
     transform="translate(-0.08465065,-0.07928744)"><path
       id="path12-2-1"
       style="fill:#00fff2;fill-opacity:1;stroke:#ffffff;stroke-width:0"
       d="M 5.7504547,0.08032097 5.6434845,0.13458122 C 5.3933137,0.2617851 2.7426657,1.8110182 1.476297,2.5700915 l -1.37510989,0.8242391 0.004651,2.5419637 c 0.00269,1.3980986 0.0150285,2.8736463 0.0273885,3.2788696 l 0.0227376,0.7369059 0.10025228,0.058394 c 0.78753421,0.459327 3.47545101,1.987679 4.38526201,2.493388 0.6506864,0.361679 1.1922074,0.657988 1.2030274,0.658358 0.050842,0.0017 2.6349505,-1.504429 4.3883621,-2.557467 l 1.251604,-0.7513754 -0.0052,-2.5099243 C 11.476672,5.9629317 11.464292,4.487599 11.451882,4.0650905 L 11.429695,3.2966621 11.105167,3.1075264 C 10.185671,2.5710149 8.1099655,1.3912476 7.0025746,0.77588575 Z m 1.9673218,3.14916183 0.2392618,0.069763 c 0.3339249,0.097075 0.5638674,0.2416038 0.8087362,0.5095297 l 0.2098063,0.2299601 0.098702,0.2439127 0.098185,0.243396 V 6.6447782 8.7640287 L 9.0592966,9.0043241 C 8.8393654,9.473236 8.4044683,9.8340778 7.9213816,9.9479357 l -0.2744018,0.064595 -1.8438152,-0.0036 C 4.7892655,10.006714 3.8750775,9.9879227 3.7712473,9.9675728 3.1213747,9.8401819 2.5852373,9.2805084 2.4591827,8.5971138 L 2.4131907,8.3454495 V 6.6235908 4.9017321 L 2.4591827,4.6521349 C 2.5614307,4.0990223 2.9070312,3.646871 3.4208811,3.3938138 L 3.7035512,3.2548042 5.7106638,3.2418851 Z M 6.3157949,4.5167427 C 5.8505828,4.5055415 5.3918437,4.7303507 5.1696116,5.1492622 L 5.0683258,5.3399482 4.8766062,5.2820706 4.6843699,5.224193 4.462678,5.2887886 4.2415029,5.3528674 4.0931915,5.5259834 C 4.0117656,5.6211108 3.9295664,5.7632477 3.9102569,5.8417264 L 3.875117,5.9843534 3.6420562,6.1461006 C 3.2189466,6.4399056 3.0234,6.8435169 3.0591461,7.3486112 l 0.019637,0.2795695 0.1214397,0.2227254 c 0.3597353,0.6609518 0.5787358,0.717555 2.7300659,0.7069336 l 1.589567,-0.00775 0.1788005,-0.067696 c 0.098531,-0.0374 0.2763506,-0.142232 0.3948079,-0.232544 L 8.3084381,8.0860339 8.4438303,7.8111152 8.5792226,7.5361966 8.5771555,7.2178698 8.5756052,6.8990262 8.431428,6.629792 8.2872507,6.3605578 8.1001821,6.2179308 C 7.997199,6.1392971 7.8506988,6.0521714 7.7746205,6.024661 L 7.6361277,5.9750516 7.6118398,5.7414741 7.5880686,5.5078967 7.4547434,5.2376289 7.321935,4.9673612 7.1105784,4.8004463 C 6.8761568,4.6151467 6.5949221,4.5234634 6.3157949,4.5167427 Z" /></g></svg>
