<?xml version="1.0" encoding="UTF-8" standalone="no"?>
<!-- Created with Inkscape (http://www.inkscape.org/) -->

<svg
   width="17.249796mm"
   height="19.790007mm"
   viewBox="0 0 17.249796 19.790007"
   version="1.1"
   id="svg1"
   xml:space="preserve"
   sodipodi:docname="aaaaaaaaaaaaaaaaa.svg"
   inkscape:version="1.3.2 (091e20e, 2023-11-25, custom)"
   inkscape:export-filename="Programi\VSCodium\Boris Paunovic Portfolio Website\MyPortfolio\src\Pictures\Srbija.svg"
   inkscape:export-xdpi="96"
   inkscape:export-ydpi="96"
   xmlns:inkscape="http://www.inkscape.org/namespaces/inkscape"
   xmlns:sodipodi="http://sodipodi.sourceforge.net/DTD/sodipodi-0.dtd"
   xmlns="http://www.w3.org/2000/svg"
   xmlns:svg="http://www.w3.org/2000/svg"><sodipodi:namedview
     id="namedview1"
     pagecolor="#ffffff"
     bordercolor="#000000"
     borderopacity="0.25"
     inkscape:showpageshadow="2"
     inkscape:pageopacity="0.0"
     inkscape:pagecheckerboard="0"
     inkscape:deskcolor="#d1d1d1"
     inkscape:document-units="mm"
     inkscape:zoom="256"
     inkscape:cx="-752.17383"
     inkscape:cy="97.912109"
     inkscape:window-width="1920"
     inkscape:window-height="1017"
     inkscape:window-x="-8"
     inkscape:window-y="-8"
     inkscape:window-maximized="1"
     inkscape:current-layer="layer1" /><defs
     id="defs1" /><g
     inkscape:label="Layer 1"
     inkscape:groupmode="layer"
     id="layer1"
     transform="translate(-16.648387,-18.106768)"><path
       id="path924"
       style="fill:#42f7ff;fill-opacity:1;stroke:#ffffff;stroke-width:0"
       d="m 25.349665,18.129506 -0.734322,0.406176 c -1.570804,0.86769 -7.772316,4.428341 -7.810376,4.484481 -0.01527,0.02253 -0.05967,1.68238 -0.0956,3.574459 -0.02809,1.479056 -0.01135,5.432051 0.02481,5.864242 0.02664,0.318362 0.0507,0.365478 0.287838,0.555521 0.450037,0.360666 1.470764,0.976582 4.648295,2.80603 0.765301,0.440625 1.886273,1.085951 2.490804,1.434021 0.604522,0.348079 1.111969,0.628935 1.127579,0.623735 0.03482,-0.01157 2.077192,-1.165065 3.304192,-1.866036 1.636847,-0.935116 5.167035,-2.977462 5.197615,-3.007052 0.02819,-0.02727 0.08543,-2.30548 0.112138,-4.458125 0.0252,-2.030906 -0.0013,-4.906292 -0.04754,-5.174362 -0.0117,-0.06782 -0.04513,-0.152235 -0.07441,-0.187585 -0.286307,-0.34571 -1.256084,-0.935252 -6.217192,-3.781165 -1.13831,-0.65298 -2.101821,-1.207102 -2.141471,-1.230932 z m -3.218925,5.938655 h 1.868103 v 1.262972 c 0,0.694531 -0.01416,1.261688 -0.03152,1.260388 -0.01736,-0.0013 -0.983307,-0.479318 -2.146639,-1.062467 -1.163332,-0.58315 -2.115116,-1.074191 -2.115116,-1.09089 0,-0.01669 0.06373,-0.09423 0.14211,-0.172599 l 0.142627,-0.142627 0.136426,-0.02739 c 0.075,-0.015 0.976691,-0.02739 2.004012,-0.02739 z m 2.415356,0 h 0.757577 0.757576 v 1.578715 1.578198 h 2.441712 2.441194 v 0.778764 0.778764 h -2.441194 -2.441712 v 1.578715 1.578198 H 25.303673 24.546096 V 30.361317 28.782602 H 22.104901 19.66319 v -0.778764 -0.778764 h 2.441711 2.441195 v -1.578198 z m 2.062407,0 h 1.893424 1.893425 l 0.169498,0.06821 c 0.09337,0.03736 0.207533,0.120628 0.253731,0.185519 l 0.08423,0.118339 -0.642338,0.33538 c -0.731899,0.382629 -3.598533,1.817976 -3.630786,1.817976 -0.0117,0 -0.02119,-0.567923 -0.02119,-1.262455 z m -6.845061,0.802535 0.113688,0.0088 c 0.08921,0.0072 3.644219,1.909584 3.77083,2.017965 l 0.03101,0.02636 -0.602031,-0.03824 -0.602547,-0.03876 -1.413867,-0.77618 -1.414384,-0.77618 0.05839,-0.211873 z m 11.186914,0.09457 c 0.01173,0.0011 0.01653,0.129323 0.01034,0.284737 l -0.01137,0.28267 -1.483114,0.664042 -1.482597,0.664043 -0.4439,-0.04237 -0.443384,-0.04289 0.0026,-0.05633 c 0.0018,-0.04486 3.77151,-1.76153 3.851444,-1.753898 z m -0.113688,1.37666 v 0.7028 l -1.298112,0.03307 z m -11.079427,0.264584 0.859896,0.413411 -0.810286,0.01654 z m 0,2.33164 0.810287,0.01654 -0.810287,0.446484 z m 10.996745,0.132292 -0.08268,0.562239 -0.992188,-0.545703 z m -3.8809,0.0248 0.59893,0.02015 0.599446,0.02015 1.428337,0.769462 1.428337,0.769462 -0.05168,0.22531 -0.05219,0.225309 -0.113171,-0.0057 c -0.08882,-0.0045 -3.67694,-1.887451 -3.80597,-1.997294 z m -4.251937,0.02119 0.454236,0.04341 0.454236,0.04341 -0.0062,0.05633 c -0.0047,0.04401 -3.603462,1.690209 -3.817339,1.746146 l -0.05219,0.01344 0.01085,-0.297656 0.01085,-0.297656 1.472779,-0.653707 z m 1.356506,0.297656 c 0.01167,0 0.02119,0.568448 0.02119,1.262972 v 1.262455 l -1.904794,-0.001 -1.904793,-5.17e-4 -0.170015,-0.07751 c -0.144983,-0.06585 -0.35044,-0.279935 -0.306958,-0.319877 0.02554,-0.02347 4.243856,-2.126485 4.265372,-2.126485 z m 2.657203,0 c 0.01436,0 0.980453,0.484368 2.147155,1.07642 l 2.121318,1.07642 -0.08423,0.118339 c -0.04637,0.06511 -0.160877,0.149192 -0.254248,0.186552 l -0.169498,0.0677 H 28.501927 26.608503 V 30.67706 c 0,-0.694524 0.01201,-1.262972 0.02636,-1.262972 z" /><path
       style="fill:#000000"
       d="m 26.967137,44.1921 v -0.688993 l 3.663969,-1.832566 3.663968,-1.832566 h 1.152297 1.152298 l -0.0098,0.130876 c -0.0077,0.102557 -8.956185,4.693024 -9.49188,4.869201 l -0.130847,0.04304 z M 45.395145,33.32031 c 4.41e-4,-0.103901 9.374977,-4.894792 9.577845,-4.894792 0.02977,0 0.05328,0.294473 0.05224,0.654384 l -0.0019,0.654384 -3.688835,1.859183 -3.688835,1.859183 -1.12554,-7.32e-4 -1.12554,-7.33e-4 z"
       id="path927-6" /><path
       style="fill:#42f7ff;fill-opacity:0.443207;stroke:#ffffff;stroke-width:0"
       d="m 19.931572,28.161795 c -8.127104,-4.086124 -8.262875,-4.156767 -8.263751,-4.299708 -3.08e-4,-0.05013 0.233817,-0.323086 0.520277,-0.606557 l 0.520837,-0.515402 0.959668,-0.07395 c 0.527818,-0.04067 3.912944,-0.07598 7.522503,-0.07845 l 6.562835,-0.0045 -0.01125,3.778602 c -0.0062,2.078231 -0.03601,4.203316 -0.06629,4.722411 l -0.05505,0.943809 z"
       id="path927"
       transform="matrix(0.26458333,0,0,0.26458333,16.648387,18.106768)" /><path
       style="fill:#42f7ff;fill-opacity:0.690423;stroke:#ffffff;stroke-width:0"
       d="M 29.875261,46.315494 V 40.349281 H 20.638679 11.402097 V 37.432465 34.51565 h 9.236582 9.236582 v -5.966214 -5.966213 h 2.828428 2.828427 v 5.966213 5.966214 h 9.236582 9.236582 v 2.916815 2.916816 h -9.236582 -9.236582 v 5.966213 5.966214 h -2.828427 -2.828428 z"
       id="path928"
       transform="matrix(0.26458333,0,0,0.26458333,16.648387,18.106768)" /><path
       style="fill:#42f7ff;fill-opacity:0.412027;stroke:#ffffff;stroke-width:0"
       d="m 37.711673,30.244155 c -0.03177,-0.980709 -0.05788,-3.105618 -0.058,-4.72202 l -2.32e-4,-2.938912 7.181553,7e-5 7.181553,6.9e-5 0.537817,0.254433 c 0.524783,0.248266 1.185756,0.819085 1.185756,1.024024 0,0.122868 -3.861612,2.119097 -10.835858,5.601508 l -5.13481,2.563936 z"
       id="path929"
       transform="matrix(0.26458333,0,0,0.26458333,16.648387,18.106768)" /><path
       style="fill:#42f7ff;fill-opacity:0.636971;stroke:#ffffff;stroke-width:0"
       d="m 40.835417,32.861548 c -0.704898,-0.07144 -1.298867,-0.146785 -1.319933,-0.167442 -0.08696,-0.08528 0.232522,-0.257927 2.20882,-1.193652 5.048716,-2.390434 12.06607,-5.503631 12.2481,-5.433779 0.135986,0.05218 0.144687,0.22375 0.06395,1.260827 l -0.05626,0.72261 -5.542609,2.481468 c -4.712873,2.109989 -5.60083,2.47985 -5.931524,2.47066 -0.213904,-0.0059 -0.965649,-0.06926 -1.670546,-0.140692 z"
       id="path930"
       transform="matrix(0.26458333,0,0,0.26458333,16.648387,18.106768)" /><path
       style="fill:#42f7ff;fill-opacity:0.634744;stroke:#ffffff;stroke-width:0"
       d="m 51.649178,48.405157 c -2.686789,-1.3338 -10.056313,-5.213281 -11.992775,-6.313263 -0.555481,-0.315534 -0.754219,-0.467895 -0.632948,-0.485246 0.09723,-0.01391 1.071709,0.0082 2.165515,0.04908 l 1.988738,0.07437 5.303301,2.85554 c 2.916815,1.570547 5.333638,2.883178 5.370717,2.916957 0.03708,0.03378 -0.01781,0.426838 -0.121968,0.873464 -0.151117,0.647967 -0.221109,0.812048 -0.346392,0.812048 -0.08636,0 -0.866739,-0.352331 -1.734188,-0.782958 z"
       id="path931"
       transform="matrix(0.26458333,0,0,0.26458333,16.648387,18.106768)" /><path
       style="fill:#42f7ff;fill-opacity:0.391982;stroke:#ffffff;stroke-width:0"
       d="m 37.677034,47.5891 c 0.02826,-2.580934 0.07203,-4.713255 0.09726,-4.738493 0.039,-0.039 13.530826,6.727489 15.416298,7.731655 l 0.643722,0.342835 -0.382034,0.410241 c -0.244055,0.262074 -0.59556,0.507057 -0.973238,0.678305 l -0.591204,0.268065 h -7.131092 -7.131092 z"
       id="path932"
       transform="matrix(0.26458333,0,0,0.26458333,16.648387,18.106768)" /><path
       style="fill:#42f7ff;fill-opacity:0.434298;stroke:#ffffff;stroke-width:0"
       d="m 18.208,52.195076 -5.08233,-0.04595 -0.397748,-0.235483 c -0.413109,-0.244577 -0.926879,-0.707788 -1.05913,-0.954901 -0.06429,-0.120121 1.188696,-0.775157 7.925871,-4.143499 4.401227,-2.200452 8.027622,-3.975452 8.058657,-3.944445 0.03103,0.03101 0.06994,2.161148 0.08646,4.733644 l 0.03003,4.677267 -2.239744,-0.02034 C 24.298214,52.250181 21.003281,52.22035 18.208,52.195076 Z"
       id="path933"
       transform="matrix(0.26458333,0,0,0.26458333,16.648387,18.106768)" /><path
       style="fill:#42f7ff;fill-opacity:0.685969;stroke:#ffffff;stroke-width:0"
       d="m 11.44034,47.664211 c 0.03481,-0.595079 0.07027,-1.086925 0.07881,-1.092992 0.0085,-0.0061 2.500107,-1.113893 5.536816,-2.461836 l 5.521289,-2.450804 1.704458,0.156475 c 0.937452,0.08606 1.704458,0.188854 1.704458,0.228428 0,0.03957 -0.395701,0.270526 -0.879336,0.513225 -2.520067,1.264629 -13.395232,6.189467 -13.667755,6.189467 -0.03412,0 -0.03355,-0.486883 0.0013,-1.081963 z"
       id="path934"
       transform="matrix(0.26458333,0,0,0.26458333,16.648387,18.106768)" /><path
       style="fill:#42f7ff;fill-opacity:0.694878;stroke:#ffffff;stroke-width:0"
       d="m 23.953242,33.125114 -1.900349,-0.129636 -5.325398,-2.921305 c -2.928969,-1.606718 -5.322455,-2.965051 -5.318858,-3.018517 0.0036,-0.05346 0.09427,-0.395203 0.20149,-0.759416 0.131381,-0.446279 0.243157,-0.67149 0.342793,-0.690678 0.170282,-0.03279 2.834579,1.314228 6.957439,3.517557 3.246567,1.735023 6.947992,3.771395 7.262951,3.995778 l 0.210612,0.150044 -0.265165,-0.0071 c -0.145841,-0.0039 -1.120323,-0.06543 -2.165515,-0.136731 z"
       id="path935"
       transform="matrix(0.26458333,0,0,0.26458333,16.648387,18.106768)" /><path
       style="fill:#42f7ff;fill-opacity:0.253898;stroke:#ffffff;stroke-width:0"
       d="m 11.879749,32.994642 c -0.04255,-0.398259 -0.06469,-0.736784 -0.0492,-0.752277 0.01549,-0.01549 0.692145,0.289262 1.50367,0.677233 L 14.80972,33.625 14.107984,33.66365 c -0.385955,0.02126 -1.027791,0.04235 -1.426303,0.04687 l -0.724567,0.0082 z"
       id="path936"
       transform="matrix(0.26458333,0,0,0.26458333,16.648387,18.106768)" /><path
       style="fill:#42f7ff;fill-opacity:0.253898;stroke:#ffffff;stroke-width:0"
       d="m 49.65625,33.414443 c 0.4125,-0.23585 1.474219,-0.838383 2.359375,-1.338963 L 53.625,31.165336 v 1.297906 1.297906 l -1.734375,0.04118 c -0.953906,0.02265 -2.015625,0.04112 -2.359375,0.04106 l -0.625,-1.23e-4 z"
       id="path937"
       transform="matrix(0.26458333,0,0,0.26458333,16.648387,18.106768)" /><path
       style="fill:#42f7ff;fill-opacity:0.253898;stroke:#ffffff;stroke-width:0"
       d="M 51.20042,42.537147 49.43209,41.5625 50.38792,41.5239 c 1.878803,-0.07588 2.86208,-0.06434 2.86208,0.03359 0,0.09223 -0.24661,1.851807 -0.268696,1.917156 -0.0069,0.02043 -0.808303,-0.401443 -1.780884,-0.9375 z"
       id="path938"
       transform="matrix(0.26458333,0,0,0.26458333,16.648387,18.106768)" /><path
       style="fill:#42f7ff;fill-opacity:0.253898;stroke:#ffffff;stroke-width:0"
       d="M 11.75,41.819688 V 40.96875 l 0.734375,0.0082 c 0.403906,0.0045 1.054551,0.02562 1.445878,0.04687 l 0.711504,0.03865 -1.305254,0.713882 c -0.717889,0.392636 -1.368534,0.754464 -1.445878,0.804063 L 11.75,42.670626 Z"
       id="path939"
       transform="matrix(0.26458333,0,0,0.26458333,16.648387,18.106768)" /></g></svg>
