<?xml version="1.0" encoding="UTF-8" standalone="no"?>
<!-- Created with Inkscape (http://www.inkscape.org/) -->

<svg
   width="11.288629mm"
   height="12.986627mm"
   viewBox="0 0 11.288629 12.986627"
   version="1.1"
   id="svg1"
   xml:space="preserve"
   inkscape:export-filename="ButtontBackground.svg"
   inkscape:export-xdpi="96"
   inkscape:export-ydpi="96"
   xmlns:inkscape="http://www.inkscape.org/namespaces/inkscape"
   xmlns:sodipodi="http://sodipodi.sourceforge.net/DTD/sodipodi-0.dtd"
   xmlns="http://www.w3.org/2000/svg"
   xmlns:svg="http://www.w3.org/2000/svg"><sodipodi:namedview
     id="namedview1"
     pagecolor="#ffffff"
     bordercolor="#000000"
     borderopacity="0.25"
     inkscape:showpageshadow="2"
     inkscape:pageopacity="0.0"
     inkscape:pagecheckerboard="0"
     inkscape:deskcolor="#d1d1d1"
     inkscape:document-units="mm" /><defs
     id="defs1" /><g
     inkscape:label="Layer 1"
     inkscape:groupmode="layer"
     id="layer1"
     transform="translate(-53.736641,-23.518646)"><path
       id="path84604"
       style="fill:#43f7ff;fill-opacity:1;stroke:#ffffff;stroke-width:0"
       d="m 59.430867,23.518646 -0.203605,0.102836 c -0.430454,0.21674 -4.083068,2.298667 -5.079793,2.895431 l -0.367937,0.220141 -0.01964,0.36742 c -0.02839,0.528278 -0.03168,6.084271 -0.0036,6.127791 0.04862,0.07539 3.770061,2.263459 5.241024,3.081466 0.189518,0.10539 0.348583,0.191719 0.353983,0.191719 0.101813,0 5.325141,-2.991751 5.571237,-3.191019 l 0.0801,-0.06511 0.01602,-2.34456 c 0.0088,-1.289741 0.0088,-2.747676 0,-3.239595 l -0.01602,-0.894519 -0.639237,-0.380855 c -0.842271,-0.501998 -3.26075,-1.914065 -4.193026,-2.447913 z m -2.396753,1.77922 h 0.361218 v 0.541569 h 0.72192 v 1.443839 h -0.361218 v -1.083138 h -0.360702 v 1.083138 h -0.361218 z m 1.624707,0 h 0.360702 v 0.541569 h 0.361218 v 0.360701 h -0.361218 v 1.083138 h -0.360702 v -1.083138 h -0.361218 v -0.360701 h 0.361218 z m 2.888196,0 h 0.360701 v 1.985408 h -0.360701 z m -1.985925,0.541569 h 1.805057 v 1.443839 H 61.005448 V 26.200136 H 60.64423 v 1.083138 H 60.283528 V 26.200136 H 59.92231 v 1.083138 h -0.361218 z m -3.560507,1.721858 h 3.413229 3.413228 l -0.01964,0.169499 c -0.01093,0.09322 -0.107549,1.15729 -0.214457,2.364714 -0.343978,3.884924 -0.391337,4.390361 -0.413411,4.40955 -0.02785,0.02421 -2.754818,0.774701 -2.797763,0.769978 -0.01776,-0.002 -0.641731,-0.173911 -1.386478,-0.382405 -0.744746,-0.208494 -1.358156,-0.392396 -1.363224,-0.408761 -0.0087,-0.028 -0.22205,-2.390308 -0.478007,-5.292183 -0.06265,-0.71025 -0.122962,-1.367672 -0.133842,-1.460893 z m 1.298629,1.420585 -5.17e-4,0.05633 c -0.0011,0.09593 0.196291,2.376476 0.212391,2.453597 l 0.0155,0.07286 h 1.471228 1.471228 l -0.0186,0.152962 c -0.01026,0.08434 -0.0346,0.32803 -0.05426,0.541052 l -0.03566,0.387056 -0.03256,0.02015 c -0.01796,0.0111 -0.238674,0.07328 -0.489893,0.137976 l -0.456303,0.117823 -0.451652,-0.124024 -0.451135,-0.123506 -0.02377,-0.09457 c -0.01299,-0.05216 -0.03287,-0.207588 -0.04393,-0.345199 l -0.02015,-0.250114 h -0.421163 -0.421163 l 0.01912,0.169499 c 0.01052,0.09322 0.03641,0.387363 0.05788,0.653707 0.02148,0.266343 0.04303,0.489635 0.04806,0.496093 0.01338,0.01722 1.66688,0.483124 1.723926,0.485759 0.02664,0.0012 0.433179,-0.104589 0.903304,-0.235128 l 0.854728,-0.237195 0.102836,-1.158585 c 0.05658,-0.637251 0.106839,-1.224411 0.112138,-1.304313 l 0.0098,-0.145211 H 59.832393 58.28365 L 58.2635,30.51511 c -0.01128,-0.106537 -0.03099,-0.306291 -0.04341,-0.4439 l -0.02222,-0.250114 h 1.629358 1.629358 l 0.01912,-0.136943 c 0.01046,-0.07547 0.02855,-0.264762 0.04031,-0.420129 l 0.02119,-0.282154 h -2.118733 z" /></g></svg>
