<?xml version="1.0" encoding="UTF-8" standalone="no"?>
<!-- Created with Inkscape (http://www.inkscape.org/) -->

<svg
   width="11.335338mm"
   height="13.010434mm"
   viewBox="0 0 11.335338 13.010435"
   version="1.1"
   id="svg1"
   xml:space="preserve"
   inkscape:export-filename="LinkedIn.svg"
   inkscape:export-xdpi="96"
   inkscape:export-ydpi="96"
   xmlns:inkscape="http://www.inkscape.org/namespaces/inkscape"
   xmlns:sodipodi="http://sodipodi.sourceforge.net/DTD/sodipodi-0.dtd"
   xmlns="http://www.w3.org/2000/svg"
   xmlns:svg="http://www.w3.org/2000/svg"><sodipodi:namedview
     id="namedview1"
     pagecolor="#ffffff"
     bordercolor="#000000"
     borderopacity="0.25"
     inkscape:showpageshadow="2"
     inkscape:pageopacity="0.0"
     inkscape:pagecheckerboard="0"
     inkscape:deskcolor="#d1d1d1"
     inkscape:document-units="mm" /><defs
     id="defs1" /><g
     inkscape:label="Layer 1"
     inkscape:groupmode="layer"
     id="layer1"
     transform="translate(-55.725455,-25.345177)"><path
       id="path84604-9"
       style="fill:#43f7ff;fill-opacity:1;stroke:#ffffff;stroke-width:0"
       d="m 61.439835,25.356546 -0.204122,0.102319 c -0.430454,0.21674 -4.083069,2.299186 -5.079793,2.895947 l -0.36742,0.220142 -0.02015,0.367419 c -0.02839,0.52828 -0.03168,6.084272 -0.0036,6.127792 0.04862,0.07539 3.770062,2.263461 5.241024,3.081465 0.189518,0.10539 0.3491,0.191203 0.3545,0.191203 0.101813,0 5.325143,-2.991752 5.571236,-3.191019 l 0.0801,-0.0646 0.01602,-2.345076 c 0.0088,-1.289742 0.0088,-2.747161 0,-3.239079 L 67.01161,28.60854 66.371856,28.227168 C 65.529563,27.725174 63.1116,26.313623 62.179325,25.779776 Z m -2.407605,3.266467 c 0.19035,0 0.350474,0.06686 0.480074,0.200505 0.1296,0.1296 0.194303,0.287573 0.194303,0.473873 0,0.186299 -0.06685,0.346424 -0.200504,0.480074 -0.1296,0.129599 -0.287573,0.194303 -0.473873,0.194303 -0.1863,0 -0.346424,-0.0647 -0.480074,-0.194303 -0.1296,-0.13365 -0.194304,-0.293775 -0.194304,-0.480074 0,-0.19035 0.0647,-0.350475 0.194304,-0.480075 0.13365,-0.129599 0.293774,-0.194303 0.480074,-0.194303 z m 4.199227,1.459859 c 0.28347,-9.6e-5 0.472349,0.01568 0.571541,0.04806 0.08145,0.02659 0.187842,0.05634 0.236678,0.06615 0.04883,0.0098 0.203456,0.109845 0.343132,0.222209 0.226968,0.182588 0.267033,0.233187 0.379821,0.473873 0.06941,0.148117 0.126091,0.305523 0.126091,0.349849 0,0.04433 0.02474,0.129433 0.05478,0.189653 0.04785,0.09592 0.05648,0.302735 0.07028,1.667081 l 0.01602,1.557528 h -0.675411 -0.675411 l -0.02429,-1.450041 -0.02481,-1.45004 -0.139526,-0.189653 c -0.127441,-0.173116 -0.160997,-0.197066 -0.387574,-0.277502 -0.136459,-0.04844 -0.268187,-0.0882 -0.292488,-0.08837 -0.0243,-1.74e-4 -0.155647,0.03909 -0.291972,0.08733 -0.225018,0.07962 -0.26011,0.104674 -0.382922,0.271818 l -0.135393,0.183968 -0.02067,1.053166 c -0.01127,0.579192 -0.02867,1.234519 -0.03927,1.456242 l -0.01964,0.403076 h -0.65009 -0.650606 l -0.02067,-0.152445 c -0.01151,-0.08398 -0.02119,-1.083809 -0.02119,-2.22157 v -2.068608 h 0.690914 0.691431 v 0.250631 0.251147 l 0.222725,-0.209806 c 0.122465,-0.115316 0.313423,-0.257954 0.424263,-0.316776 0.197167,-0.104638 0.210206,-0.106812 0.624252,-0.106971 z m -4.858618,0.197404 h 0.680061 0.680062 l -0.0217,1.35754 c -0.01197,0.746618 -0.02168,1.731477 -0.0217,2.188497 v 0.830957 l -0.567924,-0.0041 c -0.312222,-0.0025 -0.598322,-0.01063 -0.636137,-0.01809 v -5.17e-4 c -0.06754,-0.01333 -0.06959,-0.03273 -0.09095,-1.103291 -0.01196,-0.599373 -0.0217,-1.57607 -0.0217,-2.170411 z" /></g></svg>
