<?xml version="1.0" encoding="UTF-8" standalone="no"?>
<!-- Created with Inkscape (http://www.inkscape.org/) -->

<svg
   width="43.232449"
   height="49.607765"
   viewBox="0 0 11.438585 13.125387"
   version="1.1"
   id="svg1"
   xml:space="preserve"
   inkscape:export-filename="C#.svg"
   inkscape:export-xdpi="96"
   inkscape:export-ydpi="96"
   xmlns:inkscape="http://www.inkscape.org/namespaces/inkscape"
   xmlns:sodipodi="http://sodipodi.sourceforge.net/DTD/sodipodi-0.dtd"
   xmlns="http://www.w3.org/2000/svg"
   xmlns:svg="http://www.w3.org/2000/svg"><sodipodi:namedview
     id="namedview1"
     pagecolor="#ffffff"
     bordercolor="#000000"
     borderopacity="0.25"
     inkscape:showpageshadow="2"
     inkscape:pageopacity="0.0"
     inkscape:pagecheckerboard="0"
     inkscape:deskcolor="#d1d1d1"
     inkscape:document-units="mm" /><defs
     id="defs1" /><g
     inkscape:label="Layer 1"
     inkscape:groupmode="layer"
     id="layer1"
     transform="translate(-0.17370761,-0.09477717)"><path
       style="fill:#00fff2;fill-opacity:1;stroke:#ffffff;stroke-width:0"
       d="m 9.5238444,36.504388 c 0,-0.135804 0.020867,-0.135705 0.243068,0.0012 l 0.1767767,0.10888 -0.2099223,2.27e-4 c -0.1945148,2.09e-4 -0.2099224,-0.0079 -0.2099224,-0.110259 z"
       id="path11"
       transform="matrix(0.26458333,0,0,0.26458333,0.17370761,0.09477717)" /><path
       id="path29"
       style="fill:#43f7ff;fill-opacity:1;stroke:#ffffff;stroke-width:0"
       d="M 5.9469986,0.13715184 C 5.9309256,0.13098405 5.6300482,0.28630781 5.2788224,0.48235041 4.0516083,1.1673405 1.0487924,2.892506 0.50133619,3.2268857 l -0.23409424,0.142627 -0.0144694,0.6661092 c -0.0188555,0.876624 -0.0239616,5.6700743 -0.006201,5.7774251 0.0112252,0.067849 0.0340879,0.095983 0.12247314,0.1498617 0.86393181,0.5266473 3.85994091,2.2741303 5.10149741,2.9755293 0.2122284,0.119896 0.4033303,0.213872 0.4247803,0.208772 0.076074,-0.01822 2.8148097,-1.566368 4.1821736,-2.364196 1.088316,-0.63501 1.426925,-0.8415734 1.438155,-0.8769494 0.04485,-0.1414036 0.07568,-5.0621921 0.03824,-6.1040202 L 11.539422,3.3932838 10.837656,2.974188 C 9.5332222,2.1951391 6.0608495,0.1808408 5.9469986,0.13715184 Z M 9.811879,3.4444435 c 0.040693,0 0.097428,0.023013 0.1255737,0.05116 0.030273,0.030273 0.050759,0.1065692 0.050643,0.1870687 -9.97e-5,0.074844 -0.015063,0.1906334 -0.03359,0.2573486 C 9.935979,4.0067344 9.8732216,4.1232314 9.8154963,4.1989194 9.7577711,4.2746073 9.6305874,4.400987 9.5323095,4.4795224 9.4340329,4.5580577 9.2763693,4.696957 9.1824601,4.7880308 9.0885509,4.8791046 8.9831816,5.0131219 8.9483658,5.0862038 8.9135519,5.1592861 8.8473065,5.4023298 8.801088,5.6262225 8.7548705,5.8501145 8.6723403,6.2091699 8.6176366,6.4241066 8.5629327,6.6390433 8.4735007,6.9672972 8.4186824,7.1537778 c -0.08542,0.2905781 -0.097455,0.3747268 -0.082682,0.5865275 0.00948,0.1359243 0.042703,0.309316 0.073381,0.3855062 0.030678,0.07619 0.099,0.1750888 0.1519287,0.2196248 0.052929,0.044538 0.087846,0.094386 0.077515,0.1111044 -0.010334,0.01672 -0.093776,0.055306 -0.1855184,0.085783 C 8.336228,8.5812105 8.2217975,8.5934692 8.0703832,8.5826312 7.9517345,8.5741812 7.8037513,8.5413844 7.7412044,8.5097674 7.678658,8.4781576 7.5868211,8.4142045 7.5370824,8.3676572 L 7.4466487,8.2829079 7.3360611,8.3423358 C 7.2677679,8.3791163 7.1434913,8.5181747 7.0115331,8.7056211 6.8121985,8.9887746 6.7820658,9.0169157 6.5614314,9.1247169 6.4313235,9.1882886 6.1853699,9.2771652 6.0152115,9.3221209 5.8450536,9.3670769 5.6665358,9.4037247 5.6183365,9.4037697 5.5701346,9.4038151 5.5232323,9.3914022 5.5139501,9.3763812 5.504668,9.3613603 5.5877369,9.2256064 5.6989518,9.0745908 5.8101674,8.9235753 5.9293876,8.7381651 5.9635351,8.6622129 5.9976799,8.5862633 6.0193908,8.5179937 6.0121109,8.5108009 6.0048318,8.503593 5.7865847,8.4673721 5.5268692,8.4301857 5.2671544,8.3930049 4.8858737,8.3470602 4.6798925,8.3278664 4.4739119,8.3086753 4.2032416,8.3015397 4.0778621,8.3123634 3.9524829,8.323193 3.7762283,8.3481025 3.6866715,8.3676572 3.5971145,8.3872065 3.450667,8.4400888 3.36111,8.4849627 3.2715529,8.5298384 3.0691895,8.6545449 2.9110082,8.7619484 2.7528269,8.8693518 2.5179939,8.9979571 2.389593,9.0477191 2.2611922,9.09748 2.0447851,9.1533863 1.9084854,9.1722593 1.7500329,9.1941943 1.5950204,9.1958998 1.4785375,9.1769101 1.3783404,9.160608 1.2661095,9.1314193 1.2294571,9.1117978 1.1913802,9.0914199 1.1627945,9.0433187 1.1627945,8.99966 c 0,-0.055252 0.043181,-0.1046169 0.1550293,-0.1777669 L 1.4723364,8.7206072 H 1.3359106 C 1.2389827,8.7203358 1.1726422,8.697132 1.1080175,8.6415423 1.0194711,8.5653792 1.0186027,8.5612781 1.0759781,8.4978818 1.1084313,8.4620205 1.2082804,8.4014606 1.29767,8.3630063 1.4104007,8.3145116 1.6014354,8.279641 1.9219213,8.2488014 2.1760492,8.2243453 2.4283596,8.1876408 2.4820938,8.1671527 2.5358298,8.1466645 2.6219065,8.0902126 2.6732966,8.0420957 2.7246904,7.9940141 2.8426091,7.8376044 2.9358129,7.6943133 3.0290168,7.5510221 3.1573779,7.3878158 3.2210668,7.3320615 3.2847563,7.2763055 3.4324306,7.1626972 3.5492122,7.0793638 3.6659934,6.9960296 3.9016772,6.8616855 4.0726944,6.780674 4.3087544,6.6688511 4.5313651,6.5991179 4.996669,6.4907692 5.3337657,6.412275 5.7042665,6.3157669 5.8203914,6.276312 5.9365169,6.2368542 6.1342614,6.1514331 6.259641,6.0866595 6.4022209,6.0129998 6.5670118,5.8891579 6.6994075,5.7559303 6.8158312,5.6387744 6.9915686,5.4144569 7.0900813,5.2572528 7.1885938,5.100048 7.3688831,4.8165798 7.4905737,4.627317 7.6122642,4.438054 7.7978362,4.1965478 7.9034684,4.0909157 8.0325838,3.9618 8.1739259,3.8621071 8.333933,3.7865415 8.5243408,3.6966186 8.6512977,3.6637822 8.9700699,3.6227272 9.1892249,3.5945019 9.4519206,3.542953 9.5534968,3.5080055 9.6550734,3.4730586 9.7711839,3.4444435 9.811879,3.4444435 Z M 9.460996,3.7255633 c -0.013334,0.00189 -0.027658,0.00634 -0.044958,0.012919 -0.045674,0.017366 -0.1841426,0.031523 -0.3074747,0.031523 -0.1233321,0 -0.3019583,0.016186 -0.396875,0.036174 C 8.6167683,3.8261673 8.4603444,3.8808343 8.3639059,3.927619 8.2674662,3.9744035 8.1063741,4.0962105 8.0057877,4.1978859 7.905201,4.299561 7.7274039,4.5391545 7.6109797,4.7306699 7.4945559,4.9221859 7.3281097,5.1907176 7.2409765,5.3270159 7.1538434,5.463315 7.0242369,5.6437072 6.9531388,5.7280251 6.8820407,5.8123435 6.7409465,5.9392744 6.6394628,6.0101784 6.5379788,6.0810822 6.3671094,6.1830707 6.259641,6.2370379 6.1521728,6.291007 5.9395649,6.3789145 5.7873184,6.4323748 5.6350714,6.4858359 5.3203801,6.5694287 5.0881363,6.6178932 4.8558927,6.6663578 4.5776414,6.7359529 4.4695694,6.7729225 4.3614963,6.8098941 4.1706856,6.8910241 4.0453059,6.9532733 3.9199268,7.0155223 3.7202069,7.1309062 3.6019221,7.2090716 3.4836366,7.287237 3.3301259,7.414245 3.2603409,7.4917417 3.1905565,7.5692384 3.0414708,7.7611593 2.929095,7.9180723 2.7680623,8.1429247 2.6946398,8.2164105 2.5828629,8.2658546 2.4812834,8.3107876 2.3047507,8.3385694 1.9606786,8.3630063 1.6880465,8.3823703 1.4303389,8.4178069 1.3648494,8.4451719 1.3013824,8.4716898 1.229263,8.510006 1.2046524,8.530438 c -0.03635,0.030166 -0.03689,0.042304 -0.00258,0.064079 0.023237,0.014736 0.1347885,0.027113 0.2480469,0.027389 0.1776275,4.262e-4 0.2047065,0.00822 0.1953369,0.056844 -0.00598,0.031021 -0.089177,0.115073 -0.1850016,0.186552 L 1.2863012,8.9950091 1.3953385,9.0239479 C 1.4555234,9.0398849 1.6220507,9.0449259 1.7653417,9.0348 1.9086338,9.024664 2.1289948,8.9807994 2.2547175,8.9376483 2.3804409,8.8945078 2.5465388,8.8268918 2.624204,8.7872698 2.7018684,8.7476533 2.8653669,8.651091 2.9874893,8.5728127 3.1096097,8.4945309 3.2839591,8.3928903 3.3745458,8.3469866 c 0.090587,-0.045906 0.2561633,-0.1047834 0.368453,-0.1312581 0.112289,-0.026476 0.3142164,-0.048083 0.4485514,-0.048059 0.1343358,2.51e-5 0.4933912,0.029091 0.7978841,0.064596 0.3044936,0.035507 0.6503027,0.064566 0.7684286,0.064595 0.1682172,4e-5 0.2267341,-0.013448 0.269751,-0.060978 0.030206,-0.03338 0.10472,-0.1809301 0.1658813,-0.3281453 0.061161,-0.1472155 0.1287928,-0.2882891 0.1498617,-0.313676 0.021068,-0.025389 0.050943,-0.046509 0.066663,-0.046509 0.015719,0 0.028939,0.059704 0.028939,0.1322917 0,0.072588 -0.023818,0.2374704 -0.05271,0.3663859 C 6.3573573,8.1751453 6.28443,8.3872526 6.2245011,8.5180356 6.1645721,8.6488184 6.0490083,8.8512633 5.9676692,8.9676206 c -0.08134,0.1163563 -0.1477946,0.218421 -0.1477946,0.2268595 0,0.00845 0.040144,0.00555 0.0894,-0.0062 0.049254,-0.011746 0.1594424,-0.046931 0.2444296,-0.078548 0.084988,-0.031626 0.2195649,-0.095954 0.2992065,-0.142627 0.079642,-0.046673 0.2183578,-0.15609 0.3079915,-0.243396 C 6.8505352,8.6364051 6.9828485,8.4735159 7.0549411,8.3619741 7.1270341,8.2504327 7.233318,8.0439002 7.2911024,7.9025706 7.3488874,7.7612411 7.4059274,7.645222 7.4182265,7.645222 c 0.012298,0 0.031058,0.03308 0.041858,0.07338 0.010801,0.040301 0.01991,0.1281698 0.020154,0.1953369 2.521e-4,0.067246 0.016855,0.1219564 0.03669,0.1219564 0.019812,0 0.093164,-0.04522 0.1632976,-0.100769 C 7.7503598,7.8795788 7.8740746,7.7415698 7.954628,7.6286842 8.0351816,7.5157987 8.1425698,7.3304946 8.1938899,7.2168231 8.2452113,7.1031516 8.3341118,6.8636696 8.3912939,6.6845558 8.4484783,6.505442 8.5586879,6.0807432 8.6362402,5.7404274 8.7137925,5.4001111 8.7925212,5.0828271 8.8109065,5.0355609 8.8292907,4.9882916 8.8930879,4.8940416 8.9524999,4.8262713 9.0119137,4.7585004 9.1939679,4.6047453 9.3571264,4.4841733 9.5202841,4.363601 9.6839805,4.2154396 9.7209285,4.1555112 c 0.036948,-0.059928 0.077106,-0.149181 0.0894,-0.1984375 0.020173,-0.080816 0.013908,-0.0894 -0.064079,-0.0894 -0.04848,0 -0.1218007,-0.0355 -0.1669148,-0.080615 C 9.5290739,3.7367971 9.5009969,3.719896 9.460996,3.7255633 Z m -0.01757,0.043408 0.070797,0.073897 c 0.07021,0.072825 0.070732,0.075046 0.012402,0.1943034 -0.032498,0.066454 -0.059428,0.1727581 -0.059428,0.2361613 0,0.063403 -0.015382,0.1152384 -0.034107,0.1152384 -0.021516,0 -0.025721,-0.044764 -0.011885,-0.1219564 0.012037,-0.067168 0.041669,-0.1700509 0.065629,-0.2289265 0.023964,-0.058875 0.030219,-0.099131 0.014469,-0.0894 -0.015739,0.00973 -0.034112,0.00101 -0.040824,-0.01912 -0.00671,-0.020131 -0.05311,0.025366 -0.1033529,0.1012859 -0.05024,0.075919 -0.1109582,0.1913133 -0.1348755,0.2563151 -0.025932,0.070478 -0.044106,0.093081 -0.045475,0.05581 -0.00126,-0.034375 0.042251,-0.1444686 0.096635,-0.2444295 L 9.3721126,3.9167661 9.272377,4.0299375 C 9.217613,4.0924055 9.1555307,4.1916451 9.134401,4.2500791 9.113274,4.3085131 9.083903,4.3560158 9.069289,4.3560158 c -0.014613,0 0.011134,-0.073614 0.056844,-0.1638143 0.045709,-0.0902 0.1355884,-0.2222399 0.1999878,-0.2935221 z M 9.372113,3.9167659 c 0.00255,0.00904 0.00715,0.01602 0.012919,0.01602 0.00833,0 0.032269,-0.03308 0.053743,-0.07338 0.035406,-0.066442 0.034142,-0.06895 -0.014986,-0.028422 -0.0298,0.024582 -0.05426,0.057662 -0.05426,0.073381 0,0.00481 0.00146,0.00841 0.00258,0.012402 z m 0.1116211,-0.049093 c -0.00895,0 -0.016537,0.00757 -0.016537,0.016536 0,0.00896 0.00758,0.01602 0.016537,0.01602 0.00895,0 0.01602,-0.00705 0.01602,-0.01602 0,-0.00896 -0.00704,-0.016536 -0.01602,-0.016536 z M 9.4573791,3.970509 c 0.00987,-3.904e-4 0.00765,0.015189 -0.00568,0.046509 -0.014595,0.034283 -0.052262,0.1357522 -0.084233,0.2253092 -0.031969,0.089557 -0.059203,0.1397757 -0.060461,0.1116211 -0.00125,-0.028154 0.021064,-0.119834 0.049609,-0.2036051 0.028544,-0.083771 0.067538,-0.1622349 0.086816,-0.1741496 0.00587,-0.00363 0.010664,-0.00555 0.013953,-0.00568 z M 8.7809346,3.997897 c 0.1097897,0 0.1328084,0.011204 0.1328084,0.063562 0,0.034824 -0.033079,0.1001078 -0.073381,0.1452108 -0.0403,0.045103 -0.1097344,0.089304 -0.1545126,0.098185 -0.044777,0.00888 -0.1142121,0.00262 -0.1545125,-0.013953 -0.040301,-0.016584 -0.073381,-0.046797 -0.073381,-0.066663 0,-0.019866 0.042726,-0.078901 0.095085,-0.1312582 0.074082,-0.074082 0.124569,-0.095085 0.2278931,-0.095085 z M 8.1375626,7.72997 C 8.1226996,7.72078 8.0363965,7.789728 7.945843,7.8829323 c -0.090554,0.093208 -0.1816971,0.203672 -0.2030884,0.245463 -0.032305,0.063111 -0.029331,0.086613 0.018087,0.1390096 0.0314,0.034695 0.124215,0.083781 0.206189,0.1090373 0.081975,0.025257 0.2053179,0.046809 0.2744018,0.048059 0.107855,0.00198 0.1222926,-0.00585 0.1007691,-0.054777 C 8.3284132,8.3383768 8.2828323,8.2179478 8.2414322,8.1015236 8.200032,7.9850998 8.1659305,7.8575799 8.1654679,7.8183367 8.1650029,7.7790938 8.1524266,7.739156 8.1375626,7.72997 Z" /></g></svg>
