<?xml version="1.0" encoding="UTF-8" standalone="no"?>
<!-- Created with Inkscape (http://www.inkscape.org/) -->

<svg
   width="43.232449"
   height="49.607765"
   viewBox="0 0 11.438585 13.125387"
   version="1.1"
   id="svg1"
   xml:space="preserve"
   inkscape:export-filename="Asp.NETCore.svg"
   inkscape:export-xdpi="96"
   inkscape:export-ydpi="96"
   xmlns:inkscape="http://www.inkscape.org/namespaces/inkscape"
   xmlns:sodipodi="http://sodipodi.sourceforge.net/DTD/sodipodi-0.dtd"
   xmlns="http://www.w3.org/2000/svg"
   xmlns:svg="http://www.w3.org/2000/svg"><sodipodi:namedview
     id="namedview1"
     pagecolor="#ffffff"
     bordercolor="#000000"
     borderopacity="0.25"
     inkscape:showpageshadow="2"
     inkscape:pageopacity="0.0"
     inkscape:pagecheckerboard="0"
     inkscape:deskcolor="#d1d1d1"
     inkscape:document-units="mm" /><defs
     id="defs1" /><g
     inkscape:label="Layer 1"
     inkscape:groupmode="layer"
     id="layer1"
     transform="translate(-0.17370761,-0.09477717)"><path
       style="fill:#00fff2;fill-opacity:1;stroke:#ffffff;stroke-width:0"
       d="m 9.5238444,36.504388 c 0,-0.135804 0.020867,-0.135705 0.243068,0.0012 l 0.1767767,0.10888 -0.2099223,2.27e-4 c -0.1945148,2.09e-4 -0.2099224,-0.0079 -0.2099224,-0.110259 z"
       id="path11"
       transform="matrix(0.26458333,0,0,0.26458333,0.17370761,0.09477717)" /><path
       id="path29-5-1-4"
       style="fill:#43f7ff;fill-opacity:1;stroke:#ffffff;stroke-width:0"
       d="M 5.9392472,0.18676122 C 5.9231742,0.18059343 5.6222965,0.33591718 5.2710709,0.53195979 4.0438571,1.2169499 1.0405244,2.9421153 0.49306796,3.2764951 l -0.23357747,0.142627 -0.0144694,0.6661092 c -0.01883,0.876624 -0.0239612,5.6700742 -0.006201,5.7774251 0.011226,0.067844 0.0340832,0.095982 0.12247315,0.1498616 0.86393206,0.526649 3.85994066,2.274131 5.10149746,2.975529 0.2122287,0.119896 0.4033302,0.213873 0.4247802,0.208773 0.076074,-0.01823 2.8148103,-1.566369 4.1821731,-2.364197 C 11.15806,10.197614 11.49667,9.9910539 11.5079,9.955674 11.552749,9.8142701 11.58358,4.8934819 11.54614,3.8516538 L 11.531671,3.4428932 10.829905,3.0237974 C 9.5254712,2.2447484 6.053098,0.23045018 5.9392472,0.18676122 Z m 0.061495,2.65926918 c 0.1960707,-0.00353 0.6340698,0.031523 0.6340698,0.031523 l 0.4470012,0.076998 0.4718058,0.1803508 0.4940267,0.2459798 0.3095418,0.1958537 0.313676,0.2511474 0.271818,0.2547648 0.1927531,0.2216919 0.2330607,0.3891236 0.125057,0.2335775 0.1751831,0.3849894 c 0,0 0.060912,0.3099133 0.063562,0.3348633 0.0045,0.04242 0.020668,0.2949341 0.025838,0.37052 0.00445,0.065099 0.00878,0.3103146 0.00878,0.3364135 0,0.026101 0.00441,0.2514256 0.00413,0.3234945 -2.99e-4,0.077977 -0.026872,0.3658692 -0.026872,0.3658692 L 9.702325,7.6369525 9.6594335,7.8483091 c 0,0 -0.06052,0.1865638 -0.07028,0.2175578 -0.00979,0.030995 -0.076998,0.1607137 -0.076998,0.1607137 L 9.4336075,8.3785093 9.3488582,8.5035662 9.2289688,8.7056211 9.0920263,8.9149106 8.8966894,9.1484881 c 0,0 -0.1351225,0.1631982 -0.1612305,0.1860352 -0.026101,0.022838 -0.2435377,0.201565 -0.3364136,0.2873209 -0.087703,0.074392 -0.1793172,0.1333252 -0.1793172,0.1333252 0,0 -0.2152209,0.1630073 -0.2413289,0.1793172 -0.0261,0.016311 -0.1406862,0.1018214 -0.2015381,0.1291914 -0.058785,0.03873 -0.225782,0.11882 -0.3203939,0.16123 -0.094615,0.04242 -0.2161523,0.06101 -0.2713013,0.09095 -0.059925,0.03253 -0.1984375,0.08113 -0.1984375,0.08113 l -0.2511474,0.0925 -0.1240235,0.03256 -0.1989542,0.01292 -0.1012858,-0.02274 -0.022738,-0.02274 -0.081649,-0.09819 -0.07493,-0.140035 L 6.06017,10.125173 5.9392472,9.9246681 5.8477799,9.7649879 5.7924861,9.6637021 5.7433935,9.4745664 5.7206559,9.3247047 l 0.00982,-0.1436604 -0.0062,-0.1467611 -0.00982,-0.1927531 0.00982,-0.097668 c 0,0 0.0031,-0.1827338 0.0031,-0.2284098 0,-0.045675 0.039274,-0.1012858 0.039274,-0.1012858 l 0.035657,-0.1240234 0.1178223,0.00672 0.1369425,0.1012858 0.1142049,0.1142049 0.1498617,0.1007691 0.1694987,0.07183 0.2284098,0.088367 0.065629,-0.1503784 V 8.4079648 L 6.7975927,8.199192 6.8105118,7.9609637 6.7779557,7.745473 6.7717545,7.5692563 6.7603857,7.3165586 6.8063777,7.1460264 6.8962947,7.0018491 6.9676082,6.8922951 c 0,0 0.051878,-0.1489787 0.060978,-0.1674317 0.00924,-0.018456 0.095085,-0.1250569 0.095085,-0.1250569 l 0.056844,-0.1643311 0.03669,-0.2216919 0.018604,-0.1152384 0.00878,-0.3550171 0.00465,-0.1937866 V 5.3053118 L 7.2404597,5.0469297 7.2358088,4.7745949 V 4.552903 L 7.1877498,4.3694516 7.0854304,4.2619647 7.0058487,4.2412941 c 0,0 -0.1422613,0.012553 -0.2253092,0.031006 -0.079949,0.025691 -0.2831869,0.1421101 -0.2831869,0.1421101 0,0 -0.3781335,0.2768388 -0.4242635,0.3229777 C 6.026949,4.7835276 5.8974654,4.9034173 5.8420955,4.9864683 5.7867279,5.0695193 5.620693,5.217315 5.5930151,5.2634539 5.5653285,5.3095936 5.4728984,5.4663934 5.4452205,5.5125343 5.4175355,5.5586737 5.2698859,5.8081231 5.2514338,5.8727191 5.2329677,5.937314 5.1408463,6.0479022 5.1408463,6.0479022 c 0,0 -0.1064535,0.1351705 -0.1064535,0.1720825 0,0.036911 -0.032039,0.2338725 -0.032039,0.2707845 0,0.036912 -0.055294,0.1844849 -0.055294,0.1844849 L 4.7992651,6.8690407 c 0,0 -0.1477942,0.092427 -0.2123902,0.1477946 C 4.5222787,7.0722027 4.3746227,7.229225 4.3284928,7.293821 4.2823568,7.3584156 4.1440079,7.4783058 4.1440079,7.4783058 l -0.1937866,0.2211751 0.1477946,0.037207 0.2397786,0.064596 c 0,0 0.3874971,-0.027967 0.442867,-0.037207 0.055371,-0.00923 0.1291911,0.1018026 0.1291911,0.1018026 0,0 -0.1289634,0.3415808 -0.1658813,0.4061767 -0.036913,0.064595 -0.1937866,0.3317627 -0.1937866,0.3317627 0,0 -0.3320518,0.2033097 -0.3689698,0.2309937 -0.036911,0.027683 -0.3322033,0.1567989 -0.3875732,0.1844848 -0.055368,0.027696 -0.4035929,0.041341 -0.4035929,0.041341 0,0 -0.3874552,0.01767 -0.5653402,-0.1059367 C 2.728667,8.8807911 2.6681444,8.8127393 2.6123184,8.7020037 2.5546078,8.5875301 2.3816143,8.2992962 2.3539363,8.2162453 2.3262448,8.1331943 2.2616632,7.9767625 2.2247452,7.8844826 2.1878461,7.7922033 2.1160732,7.6400519 2.0976212,7.510862 2.0790432,7.3816711 2.0495621,7.0354378 2.0495621,6.9062477 c 0,-0.1291912 0.010335,-0.5036973 0.010335,-0.5498372 0,-0.04614 0.035808,-0.3638775 0.05426,-0.4376994 C 2.132623,5.844888 2.2497517,5.5024207 2.2588517,5.4655088 2.268079,5.4285973 2.4924291,4.9590797 2.4924291,4.9590797 L 2.6862157,4.6268003 c 0,0 0.2182261,-0.3786407 0.2511475,-0.4227132 0.032924,-0.040972 0.2367534,-0.2573473 0.3105754,-0.3219442 0.073824,-0.064595 0.3436482,-0.2940389 0.3436482,-0.2940389 0,0 0.4082435,-0.2818601 0.4728394,-0.3178101 0.062529,-0.033885 0.41902,-0.1889131 0.4847249,-0.210323 0.055369,-0.036911 0.4600767,-0.1396703 0.5513876,-0.1529623 0.092279,-0.013436 0.3268788,-0.041895 0.4371826,-0.052193 0.1106931,-0.01033 0.2666489,0.013802 0.3958415,-0.00465 0.016149,-0.00231 0.039169,-0.00363 0.067179,-0.00413 z" /></g></svg>
