<?xml version="1.0" encoding="UTF-8" standalone="no"?>
<!-- Created with Inkscape (http://www.inkscape.org/) -->

<svg
   width="43.232449"
   height="49.607765"
   viewBox="0 0 11.438585 13.125387"
   version="1.1"
   id="svg1"
   xml:space="preserve"
   inkscape:export-filename="MYSQL.svg"
   inkscape:export-xdpi="96"
   inkscape:export-ydpi="96"
   xmlns:inkscape="http://www.inkscape.org/namespaces/inkscape"
   xmlns:sodipodi="http://sodipodi.sourceforge.net/DTD/sodipodi-0.dtd"
   xmlns="http://www.w3.org/2000/svg"
   xmlns:svg="http://www.w3.org/2000/svg"><sodipodi:namedview
     id="namedview1"
     pagecolor="#ffffff"
     bordercolor="#000000"
     borderopacity="0.25"
     inkscape:showpageshadow="2"
     inkscape:pageopacity="0.0"
     inkscape:pagecheckerboard="0"
     inkscape:deskcolor="#d1d1d1"
     inkscape:document-units="mm" /><defs
     id="defs1" /><g
     inkscape:label="Layer 1"
     inkscape:groupmode="layer"
     id="layer1"
     transform="translate(-0.17370761,-0.09477717)"><path
       style="fill:#00fff2;fill-opacity:1;stroke:#ffffff;stroke-width:0"
       d="m 9.5238444,36.504388 c 0,-0.135804 0.020867,-0.135705 0.243068,0.0012 l 0.1767767,0.10888 -0.2099223,2.27e-4 c -0.1945148,2.09e-4 -0.2099224,-0.0079 -0.2099224,-0.110259 z"
       id="path11"
       transform="matrix(0.26458333,0,0,0.26458333,0.17370761,0.09477717)" /><path
       id="path29-5-1-7"
       style="fill:#43f7ff;fill-opacity:1;stroke:#ffffff;stroke-width:0"
       d="M 5.9413142,0.15885595 C 5.9252412,0.15268815 5.6248798,0.30801231 5.2736547,0.50405451 4.0464433,1.1890432 1.0431073,2.9142109 0.49565178,3.2485898 L 0.26155754,3.3917336 0.24760491,4.0578428 c -0.0188299,0.8766222 -0.0244779,5.6700744 -0.006718,5.7774251 0.011226,0.067844 0.0340834,0.095982 0.12247315,0.1498616 0.86393034,0.5266495 3.86045974,2.2741305 5.10201414,2.9755295 0.2122284,0.119893 0.4033303,0.213356 0.4247803,0.208256 0.076074,-0.01822 2.8148136,-1.566371 4.1821735,-2.364197 1.088314,-0.63501 1.426409,-0.8415693 1.437639,-0.8769493 0.04485,-0.1414037 0.0762,-5.0621941 0.03876,-6.1040202 L 11.533738,3.4149879 10.832489,2.9964088 C 9.5280568,2.2173615 6.0551649,0.2025448 5.9413142,0.15885595 Z m 0.9684164,1.96267085 0.099219,0.0031 0.099219,0.00362 0.00982,0.01757 0.00982,0.01757 0.024288,0.085266 0.024288,0.085266 0.054777,0.023771 0.054777,0.023254 0.029456,0.0062 0.029456,0.00568 0.085783,-0.048059 0.085266,-0.048576 0.019637,0.014986 0.019637,0.015503 0.062012,0.062012 0.062012,0.062528 -0.047542,0.0863 -0.047542,0.0863 v 0.023771 0.023254 l 0.027905,0.063562 0.028422,0.063562 0.062528,0.018087 0.062528,0.01757 0.032556,0.00827 0.032039,0.00775 0.011369,0.021187 0.011369,0.021187 v 0.077515 0.078031 l -0.011885,0.022221 -0.012402,0.022738 h -0.012919 -0.012919 l -0.081132,0.024288 -0.081132,0.024288 -0.023254,0.053227 -0.023771,0.05271 -0.062012,-0.060978 -0.062528,-0.061495 0.011885,-0.030489 0.011886,-0.031006 v -0.093534 -0.093534 l -0.019637,-0.058394 -0.019637,-0.058394 -0.035657,-0.055811 -0.03514,-0.055294 -0.05426,-0.048576 -0.05426,-0.048059 -0.060978,-0.028422 -0.061495,-0.028422 -0.074414,-0.012402 -0.074931,-0.012402 -0.074414,0.013436 -0.074414,0.012919 -0.071313,0.03514 -0.071313,0.034623 -0.060461,0.064595 -0.060978,0.064596 -0.029456,0.064079 -0.029456,0.064079 -0.012402,0.074931 -0.012402,0.074414 0.012919,0.072864 0.012402,0.072347 0.029456,0.064079 0.028939,0.063562 0.067696,0.067696 0.067696,0.067179 0.064596,0.031006 0.064079,0.031006 0.076481,0.011885 0.075964,0.011886 0.067179,-0.010852 0.067179,-0.010852 0.0093,-0.00568 0.00982,-0.0062 0.060978,0.062012 0.061495,0.062012 -0.055811,0.028422 -0.055811,0.027905 -0.023771,0.09095 -0.024288,0.09095 -0.01757,0.010852 -0.01757,0.011369 h -0.088883 l -0.088884,5.168e-4 -0.011886,-0.014986 -0.011886,-0.014469 -0.0062,-0.023254 -0.00672,-0.023254 -0.01912,-0.068213 -0.019637,-0.067696 -0.064596,-0.028422 -0.064596,-0.028939 h -0.023254 -0.023771 l -0.085783,0.047542 -0.0863,0.047542 -0.065112,-0.061495 -0.065629,-0.062012 -0.011369,-0.021187 -0.011369,-0.021187 0.048576,-0.084233 0.048059,-0.083716 -0.00568,-0.029456 -0.0062,-0.029972 -0.023254,-0.054777 -0.023771,-0.054777 -0.085266,-0.024288 -0.085783,-0.024288 -0.01757,-0.00982 -0.017053,-0.00982 -0.00362,-0.099219 -0.0031,-0.099219 0.014986,-0.012402 0.015503,-0.012919 0.086816,-0.023771 0.0863,-0.024288 0.00775,-0.00878 0.00775,-0.00879 0.025321,-0.060978 0.025322,-0.060461 v -0.01912 -0.01912 l -0.047026,-0.080099 -0.046509,-0.080098 v -0.00723 -0.00775 l 0.060978,-0.064595 0.060978,-0.064596 0.020671,-0.010852 0.021187,-0.011369 0.080615,0.047026 0.081132,0.047542 h 0.01912 0.01912 l 0.060461,-0.025321 0.060461,-0.025322 0.0093,-0.00775 0.0093,-0.00775 0.024288,-0.086816 0.024288,-0.086816 0.011886,-0.014986 z m 0.024805,0.4774903 0.088367,0.00517 0.08785,0.00517 0.059428,0.030489 0.058911,0.029972 0.044442,0.049093 0.044442,0.049093 0.022738,0.052193 0.023254,0.052193 0.0062,0.062528 0.00672,0.062528 -0.013953,0.055294 -0.013953,0.055294 0.2454631,0.2464966 0.2449463,0.2464966 0.00827,0.042891 0.00775,0.042375 -0.019637,0.041341 -0.019637,0.041341 -0.029456,0.01912 -0.028939,0.01912 -0.037207,0.00517 -0.037207,0.00465 -0.02894,-0.01189 L 7.6249324,3.7927427 7.384637,3.552964 7.1443416,3.3131854 7.088531,3.327138 7.033237,3.341091 6.970709,3.334891 6.907664,3.328171 6.855988,3.305433 6.803795,3.282179 6.754702,3.237737 6.705609,3.193295 6.675637,3.134384 6.645148,3.074956 6.639978,2.990207 6.634298,2.905974 6.649284,2.887887 6.66427,2.8698 l 0.1080037,0.1059367 0.1080038,0.1054199 0.030489,-0.011369 0.030489,-0.011886 0.032039,-0.016536 0.032039,-0.017053 0.031006,-0.033073 0.031006,-0.033073 0.018603,-0.037207 0.01912,-0.037724 -5.168e-4,-0.021187 V 2.8413795 L 7.0042984,2.7385434 6.9040462,2.6357073 6.9195491,2.6171038 Z M 3.2748103,3.4997373 c 0.026915,9.862e-4 0.058379,0.00421 0.097152,0.0093 0.096387,0.012666 0.3448202,0.096658 0.5524211,0.1865519 0.2506581,0.108539 0.5117469,0.1914341 0.7772135,0.2470133 0.3462258,0.072487 0.4501671,0.1112867 0.77618,0.2883545 0.3320552,0.1803496 0.4333998,0.2587966 0.8598959,0.6650757 0.7054173,0.6719788 1.1069598,1.267711 1.4112833,2.0949626 0.1164538,0.3165588 0.1383327,0.3514162 0.3260783,0.5162475 0.1186778,0.1041932 0.3442161,0.2480812 0.5488037,0.3498495 0.3143014,0.1563435 0.3841222,0.2089544 0.7358724,0.5575887 0.2137336,0.2118398 0.3886068,0.3948587 0.3886068,0.4066935 0,0.06727 -0.2055559,0.1371194 -0.5146973,0.1746663 -0.1898266,0.023056 -0.3505899,0.048195 -0.3576009,0.055811 -0.04562,0.049551 0.082613,0.1841885 0.3482992,0.3658691 0.446089,0.3050404 0.8216547,0.6723291 0.8216547,0.8035691 0,0.03693 -0.059299,0.0071 -0.5152135,-0.2573492 C 8.9500414,9.6270268 8.599222,9.3705083 8.4098974,9.1428037 L 8.2636531,8.9665871 8.360288,8.8663348 c 0.08767,-0.090649 0.1331755,-0.1052664 0.4940267,-0.160197 0.2187506,-0.0333 0.3979085,-0.072713 0.3979085,-0.087333 0,-0.014621 -0.1004594,-0.1003362 -0.2232422,-0.1906861 C 8.8666704,8.308681 8.7064472,8.2295793 8.4419368,8.1387306 8.0980994,8.0206367 8.0671837,8.0022457 7.8755631,7.8033506 7.6960848,7.6170584 7.6191163,7.4870546 7.2053198,6.6700864 6.7397365,5.7508739 6.736208,5.7456022 6.4058853,5.38386 6.1392473,5.0918598 5.98494,4.9585699 5.6167862,4.7037982 5.0820158,4.3337235 4.8145937,4.2206235 4.4773209,4.2206235 4.2736385,4.2206235 4.2358998,4.2080296 3.9553889,4.048541 3.7116357,3.9099498 3.616601,3.8740274 3.4644628,3.8630226 c -0.1886538,-0.013644 -0.1886374,-0.01386 -0.2092895,0.0894 -0.018114,0.090572 0.00517,0.1367757 0.1891357,0.3756877 0.2277523,0.2957911 0.2779706,0.3854332 0.4697388,0.8350911 0.069819,0.1637107 0.2132035,0.4484975 0.3188436,0.6330363 L 4.4251277,6.131618 4.3403783,6.3584775 c -0.046562,0.1246924 -0.1125534,0.3831295 -0.146761,0.5741252 -0.061727,0.3446454 -0.062047,0.3493866 0.00517,0.6283854 0.080633,0.3347 0.1751267,0.4627109 0.2992066,0.4061768 0.061498,-0.028021 0.085534,-0.077468 0.1152384,-0.2371949 0.039242,-0.2110144 0.2253833,-0.5658569 0.2966227,-0.5658569 0.022513,0 0.212364,0.286495 0.4216797,0.6366537 0.2093154,0.3501589 0.4484337,0.7296715 0.5317505,0.8433593 0.083317,0.1136881 0.1418401,0.2067058 0.1297079,0.2067058 -0.012134,0 -0.1145223,-0.073497 -0.2273764,-0.1632976 C 5.6315423,8.5808511 5.4696166,8.3974414 5.2984594,8.1583677 5.1543879,7.957127 5.02638,7.7924985 5.0137223,7.7924985 c -0.058002,0 -0.121255,0.1088042 -0.1415935,0.2444295 C 4.855106,8.1504515 4.8224749,8.2096829 4.7326025,8.2885923 4.6657925,8.3472531 4.5938722,8.3839586 4.5662044,8.3733416 4.5394143,8.3630626 4.4852381,8.35438 4.4457983,8.3542213 4.3172537,8.3536921 4.1278061,8.0078719 4.0458227,7.6240334 3.9813571,7.3222127 3.9782873,7.2613128 4.012233,6.9036639 4.0326324,6.6887369 4.0762959,6.4375752 4.1093847,6.3455584 L 4.1698461,6.1781268 4.0520239,6.0143125 C 3.9873382,5.924275 3.8284107,5.6215471 3.6985571,5.3414853 3.5284521,4.9746122 3.3887146,4.7315244 3.198846,4.4722877 L 2.9352962,4.1126198 V 3.8857602 3.6589007 l 0.1307413,-0.0863 c 0.086734,-0.057398 0.1280265,-0.075822 0.2087728,-0.072863 z m 1.0790039,0.9715169 c 0.077235,-0.00164 0.1645956,0.028109 0.2573487,0.088884 0.070388,0.04612 0.078988,0.07389 0.07028,0.2222086 -0.00546,0.093049 -0.024823,0.173725 -0.043408,0.179834 C 4.6194506,4.9682903 4.50836,4.8769614 4.391538,4.7590919 4.2747158,4.6412221 4.1860575,4.5391423 4.194134,4.5322324 4.2401203,4.4928898 4.2937425,4.472527 4.3538142,4.4712542 Z" /></g></svg>
