<?xml version="1.0" encoding="UTF-8" standalone="no"?>
<!-- Created with Inkscape (http://www.inkscape.org/) -->

<svg
   width="43.022518"
   height="49.442574"
   viewBox="0 0 11.383041 13.081681"
   version="1.1"
   id="svg1"
   xml:space="preserve"
   xmlns:inkscape="http://www.inkscape.org/namespaces/inkscape"
   xmlns:sodipodi="http://sodipodi.sourceforge.net/DTD/sodipodi-0.dtd"
   xmlns="http://www.w3.org/2000/svg"
   xmlns:svg="http://www.w3.org/2000/svg"><sodipodi:namedview
     id="namedview1"
     pagecolor="#ffffff"
     bordercolor="#000000"
     borderopacity="0.25"
     inkscape:showpageshadow="2"
     inkscape:pageopacity="0.0"
     inkscape:pagecheckerboard="0"
     inkscape:deskcolor="#d1d1d1"
     inkscape:document-units="mm" /><defs
     id="defs1" /><g
     inkscape:label="Layer 1"
     inkscape:groupmode="layer"
     id="layer1"
     transform="translate(-0.08465065,-0.07928744)"><path
       id="path12"
       style="fill:#00fff2;fill-opacity:1;stroke:#ffffff;stroke-width:0"
       d="M 5.7339182,0.07928744 5.626948,0.13354769 C 5.3767797,0.26075061 2.7261188,1.8099911 1.4597605,2.5690579 L 0.08465065,3.393297 0.08930153,5.9352607 c 0.00269,1.3980874 0.0150286,2.8736493 0.02738851,3.2788697 l 0.0227376,0.7369059 0.10025228,0.058395 c 0.78752778,0.459318 3.47545818,1.987678 4.38526208,2.493388 0.6506807,0.36167 1.1922073,0.657987 1.2030273,0.658357 0.050842,0.0017 2.6349637,-1.504436 4.3883627,-2.557466 L 11.467935,9.8523343 11.462768,7.34241 c -0.0026,-1.3805004 -0.01498,-2.8558475 -0.02739,-3.2783529 L 11.413158,3.2956286 11.08863,3.1064928 C 10.169142,2.5699862 8.0934203,1.3902089 6.9860382,0.77485222 Z m 2.6592692,3.06234536 0.041341,0.0062 0.05271,0.00568 0.041341,0.011886 c 0,0 0.052377,0.01367 0.073897,0.01757 0.02152,0.00392 0.074333,0.025438 0.084233,0.027388 0.0098,0.00195 0.05116,0.01757 0.05116,0.01757 0,0 0.043084,0.021449 0.074414,0.03514 0.03134,0.013698 0.042891,0.044958 0.042891,0.044958 l 0.023254,0.029456 -0.7772135,0.802535 0.3663859,0.4051432 0.099735,0.099736 0.1369426,0.1193726 -0.0062,0.013953 -0.097668,0.050643 -0.1116211,0.01757 c 0,0 -0.086073,0.00568 -0.1018025,0.00568 -0.01566,0 -0.075964,-0.00568 -0.075964,-0.00568 L 8.2071523,4.8485054 8.0996653,4.8149157 7.9978627,4.7622057 7.889859,4.7017443 7.799942,4.6392158 7.6945221,4.5472318 7.6216583,4.4490466 7.5611969,4.349311 7.5183054,4.187047 7.510554,4.059923 7.5084869,3.9090278 v -0.097668 c 0,0 0.039058,-0.1353037 0.044958,-0.1431437 0.00586,-0.00783 0.039274,-0.08785 0.039274,-0.08785 l 0.060978,-0.091984 0.073897,-0.078548 0.078548,-0.068213 0.05271,-0.043408 0.064596,-0.044959 0.076481,-0.044958 0.1312581,-0.042891 0.08785,-0.01602 h 0.078548 l 0.062528,-0.00568 z m 0.6263184,0.2976563 0.033073,0.019637 0.031523,0.042892 0.039274,0.064596 0.028939,0.05116 c 0,0 0.024038,0.058753 0.025838,0.074414 0.00196,0.015658 0.037207,0.062488 0.037207,0.080099 0,0.017613 0.00957,0.084219 0.011369,0.1116211 0.0019,0.027403 0.0062,0.070542 0.0062,0.084233 0,0.0137 0.00568,0.058713 0.00568,0.091984 0,0.03327 -0.00775,0.093534 -0.00775,0.093534 l -0.021187,0.078548 -0.023771,0.056844 -0.019637,0.054777 -0.031006,0.056844 c 0,0 -0.02744,0.04097 -0.03514,0.05271 -0.00783,0.011744 -0.031523,0.042891 -0.031523,0.042891 l -0.029456,0.047026 -0.033073,0.033073 -0.023771,0.025838 -0.025322,0.027388 -0.041341,0.025322 -0.025322,0.023254 -0.042891,0.0062 -0.5265829,-0.5384684 z m -1.9435506,1.039213 h 0.1607137 l 0.1250569,0.039274 0.066663,0.042891 0.03514,0.058911 -0.058394,-0.00413 h -0.031523 l -0.027388,0.019637 -0.03514,0.019637 L 5.0957143,6.8582018 4.6647328,6.4432401 5.8899811,5.2732856 6.1602488,5.0500435 6.6144846,4.7053617 6.8532298,4.5684191 Z m 0.4035929,0.3090251 0.125057,0.00827 0.058911,0.00775 0.058394,0.047026 0.043408,0.042892 0.023254,0.031523 0.019637,0.01912 0.00775,0.082165 -0.00775,0.058911 -0.00413,0.05116 L 7.7927073,5.186986 5.4517649,7.2147692 5.1933827,6.9760241 7.3891144,4.8268013 7.4165029,4.8035469 Z M 7.8314646,5.3828397 7.8237131,5.4960111 7.7611847,5.6174507 7.655248,5.8365588 7.5498281,5.9931384 7.405134,6.1931261 7.240803,6.4081001 7.0098093,6.6664823 6.7550445,6.9289985 6.5204335,7.1796292 6.2930572,7.3909858 6.0858347,7.5940742 5.9488922,7.7077624 5.5964589,7.3594632 7.7963246,5.4179797 Z M 4.5355418,6.5724312 4.8647206,6.9052274 4.0270457,7.0891955 Z m 0.5405354,0.5560384 0.214974,0.2154907 -0.4614705,0.03514 z M 5.471402,7.5082913 5.7959299,7.848839 5.6398671,7.973896 5.3540965,8.2090238 5.0290517,8.4400174 4.7195099,8.651374 4.434256,8.8353421 4.0425486,9.0585843 3.6198354,9.289578 3.2834218,9.4616605 3.4043447,10.005813 3.3263132,10.013565 2.7506378,9.4420234 4.5629303,7.6137113 Z m -2.8303182,2.054655 0.5090128,0.4857587 -0.9513631,-0.04703 z" /><path
       style="fill:#00fff2;fill-opacity:1;stroke:#ffffff;stroke-width:0"
       d="m 8.9158892,3.9324631 0.0157,0.048928 0.01761,0.013691 0.0099,0.046971 -0.0099,0.043058 -0.02545,0.031314 -0.0235,0.023483 -0.01761,0.033272 v 0.046972 l 0.01174,0.023483 0.02936,0.00195 0.02935,0.00784 0.02546,-0.01174 0.0235,-0.043059 0.02936,-0.056755 c 0,0 0.0099,-0.025443 0.0099,-0.046971 0,-0.021529 0,-0.066544 0,-0.066544 0,0 0,-0.021529 -0.0018,-0.045012 -0.0019,-0.023483 -0.0077,-0.050886 -0.0077,-0.050886 l -0.01363,-0.027402 -0.0274,-0.033272 -0.03328,-0.0039 -0.0235,0.019571 -0.01761,0.021529 z"
       id="path57141" /></g></svg>
