<?xml version="1.0" encoding="UTF-8" standalone="no"?>
<!-- Created with Inkscape (http://www.inkscape.org/) -->

<svg
   width="43.022518"
   height="49.442574"
   viewBox="0 0 11.383041 13.081681"
   version="1.1"
   id="svg1"
   xml:space="preserve"
   inkscape:export-filename="Windows"
   inkscape:export-xdpi="96"
   inkscape:export-ydpi="96"
   xmlns:inkscape="http://www.inkscape.org/namespaces/inkscape"
   xmlns:sodipodi="http://sodipodi.sourceforge.net/DTD/sodipodi-0.dtd"
   xmlns="http://www.w3.org/2000/svg"
   xmlns:svg="http://www.w3.org/2000/svg"><sodipodi:namedview
     id="namedview1"
     pagecolor="#ffffff"
     bordercolor="#000000"
     borderopacity="0.25"
     inkscape:showpageshadow="2"
     inkscape:pageopacity="0.0"
     inkscape:pagecheckerboard="0"
     inkscape:deskcolor="#d1d1d1"
     inkscape:document-units="mm" /><defs
     id="defs1" /><g
     inkscape:label="Layer 1"
     inkscape:groupmode="layer"
     id="layer1"
     transform="translate(-0.08465065,-0.07928744)"><path
       id="path12"
       style="fill:#00fff2;fill-opacity:1;stroke:#ffffff;stroke-width:0"
       d="M 5.7339182,0.07928744 5.626948,0.13354769 C 5.3767773,0.26075157 2.7261292,1.8099847 1.4597605,2.5690579 L 0.08465065,3.393297 0.08930153,5.9352607 c 0.00269,1.3980986 0.01502852,2.8736461 0.02738851,3.2788697 l 0.0227376,0.7369059 0.10025228,0.058395 c 0.78753418,0.459326 3.47545098,1.987678 4.38526208,2.493388 0.6506863,0.361678 1.1922073,0.657987 1.2030273,0.658357 0.050842,0.0017 2.6349501,-1.504428 4.3883627,-2.557466 L 11.467935,9.8523343 11.462768,7.34241 c -0.0026,-1.3805116 -0.01498,-2.8558443 -0.02739,-3.2783529 L 11.413158,3.2956286 11.08863,3.1064928 C 10.169134,2.5699814 8.0934291,1.3902137 6.9860382,0.77485222 Z m 3.26285,3.21220706 h 0.090434 v 1.6319417 1.631425 H 7.2392527 5.3913035 V 5.1787178 c 0,-0.7568949 0.014815,-1.3761434 0.033073,-1.3761434 0.018257,0 0.8092385,-0.1147158 1.7575155,-0.2552816 C 8.1301692,3.4067264 8.9469012,3.2914945 8.9967682,3.2914945 Z M 4.9939117,3.8811226 c 0.082997,0 0.083199,0.00213 0.083199,1.3368693 V 6.5548612 H 3.6808136 2.2850331 V 5.4179797 4.2805814 L 2.3935536,4.2599108 C 2.4530256,4.2485658 2.6250966,4.2210408 2.776476,4.1984159 4.3426582,3.9643912 4.9236259,3.8811226 4.9939117,3.8811226 Z m -2.7099121,2.949174 h 1.3962972 1.396814 V 8.1868029 9.5433092 L 4.9685903,9.5391751 C 4.9091198,9.5368434 4.2854601,9.4524107 3.5826284,9.3515897 L 2.3046702,9.1681384 2.2943349,7.9992175 Z M 5.39027,6.8695706 h 1.8484659 1.848466 v 1.6319418 c 0,0.8974611 -0.00444,1.6297516 -0.00982,1.6278076 C 9.0719934,10.12732 8.465965,10.039727 7.7306956,9.9344998 6.9954261,9.8292719 6.1727031,9.7112975 5.9023834,9.6719836 L 5.4109405,9.6006701 5.4006052,8.234862 Z" /></g></svg>
