<?xml version="1.0" encoding="UTF-8" standalone="no"?>
<!-- Created with Inkscape (http://www.inkscape.org/) -->

<svg
   width="43.232449"
   height="49.607765"
   viewBox="0 0 11.438585 13.125387"
   version="1.1"
   id="svg1"
   xml:space="preserve"
   inkscape:export-filename="Asp.NETCore.svg"
   inkscape:export-xdpi="96"
   inkscape:export-ydpi="96"
   xmlns:inkscape="http://www.inkscape.org/namespaces/inkscape"
   xmlns:sodipodi="http://sodipodi.sourceforge.net/DTD/sodipodi-0.dtd"
   xmlns="http://www.w3.org/2000/svg"
   xmlns:svg="http://www.w3.org/2000/svg"><sodipodi:namedview
     id="namedview1"
     pagecolor="#ffffff"
     bordercolor="#000000"
     borderopacity="0.25"
     inkscape:showpageshadow="2"
     inkscape:pageopacity="0.0"
     inkscape:pagecheckerboard="0"
     inkscape:deskcolor="#d1d1d1"
     inkscape:document-units="mm" /><defs
     id="defs1" /><g
     inkscape:label="Layer 1"
     inkscape:groupmode="layer"
     id="layer1"
     transform="translate(-0.17370761,-0.09477717)"><path
       style="fill:#00fff2;fill-opacity:1;stroke:#ffffff;stroke-width:0"
       d="m 9.5238444,36.504388 c 0,-0.135804 0.020867,-0.135705 0.243068,0.0012 l 0.1767767,0.10888 -0.2099223,2.27e-4 c -0.1945148,2.09e-4 -0.2099224,-0.0079 -0.2099224,-0.110259 z"
       id="path11"
       transform="matrix(0.26458333,0,0,0.26458333,0.17370761,0.09477717)" /><path
       id="path29-5"
       style="fill:#43f7ff;fill-opacity:1;stroke:#ffffff;stroke-width:0"
       d="M 5.9392472,0.15782242 C 5.9231742,0.15165462 5.6228125,0.30697876 5.2715877,0.50302099 4.0443763,1.1880098 1.0410399,2.9126606 0.49358473,3.2470395 L 0.26000725,3.3901833 0.24553785,4.0562925 c -0.0188299,0.8766222 -0.0244779,5.6700744 -0.006718,5.7774251 0.011226,0.067844 0.0346002,0.095982 0.12298991,0.1498617 C 1.22574,10.510226 4.221753,12.257712 5.4633071,12.959108 c 0.2122284,0.119896 0.4033303,0.213873 0.4247803,0.208773 0.076074,-0.01822 2.8148143,-1.566885 4.1821736,-2.364714 1.088314,-0.635007 1.426925,-0.8410521 1.438155,-0.8764318 0.04485,-0.1414042 0.07568,-5.0621941 0.03824,-6.1040202 L 11.531671,3.4139544 10.830421,2.9948586 C 9.5259927,2.215811 6.0530976,0.20151127 5.9392472,0.15782242 Z m 0.042891,2.22053628 c 0.1931906,0 0.3388538,0.041911 0.4361491,0.1266073 0.097995,0.084696 0.149096,0.198121 0.1539958,0.3395141 l -0.310575,0.013436 c -0.013299,-0.079096 -0.042202,-0.1357171 -0.0863,-0.1700155 -0.043398,-0.034998 -0.1088747,-0.05271 -0.1963705,-0.05271 -0.090296,0 -0.1607758,0.018712 -0.2118734,0.05581 -0.032898,0.023799 -0.049609,0.055703 -0.049609,0.095601 0,0.036398 0.01571,0.067636 0.046509,0.093534 0.039198,0.032898 0.1340611,0.067138 0.2852539,0.1028361 0.1511926,0.035698 0.2632835,0.072606 0.33538,0.1111043 0.072796,0.037798 0.1294174,0.090083 0.1700155,0.1565796 0.041298,0.065797 0.062012,0.1471342 0.062012,0.2444295 0,0.088196 -0.0249,0.1710506 -0.073897,0.2480469 -0.048998,0.076996 -0.1181436,0.1342843 -0.2077393,0.1720825 -0.089596,0.037098 -0.2011698,0.055811 -0.3348632,0.055811 -0.1945907,0 -0.3442565,-0.044763 -0.4485515,-0.1343588 C 5.447379,3.746372 5.385421,3.6150848 5.365122,3.4428932 l 0.3023071,-0.029456 c 0.018199,0.101495 0.054774,0.1761613 0.1100708,0.2237589 0.055997,0.047598 0.1313306,0.071314 0.225826,0.071314 0.1000952,0 0.1754285,-0.021047 0.225826,-0.063045 0.051098,-0.042698 0.076481,-0.092647 0.076481,-0.1493449 0,-0.036398 -0.010857,-0.066785 -0.032556,-0.091984 C 6.2520779,3.3782371 6.21517,3.3558556 6.1619726,3.3369565 6.1255743,3.3243571 6.0423859,3.3019755 5.9128922,3.2697772 5.7463002,3.2284791 5.6297227,3.1775287 5.562526,3.1173317 5.4680306,3.0326358 5.4204158,2.9295839 5.4204158,2.8077899 c 0,-0.078396 0.022048,-0.1517281 0.066146,-0.2196249 0.044798,-0.068597 0.1089402,-0.1208813 0.1922361,-0.1565796 0.083996,-0.035698 0.1850464,-0.053227 0.3033403,-0.053227 z m -1.647961,0.025838 H 4.6623225 L 5.2788224,3.9436378 H 4.9408585 L 4.8064998,3.5937884 H 4.1910335 L 4.0639094,3.9436378 H 3.7342138 Z m 2.5440307,0 h 0.4986776 c 0.1889908,0 0.3120893,0.00786 0.3694865,0.023254 0.088196,0.023099 0.1621948,0.073716 0.2216919,0.151412 0.059497,0.076996 0.088884,0.1767124 0.088884,0.2992065 0,0.094495 -0.016861,0.1738314 -0.05116,0.2382284 -0.034298,0.064397 -0.078061,0.1153473 -0.1312581,0.1524454 -0.052498,0.036398 -0.1061163,0.060448 -0.1607138,0.072347 -0.074196,0.014699 -0.1817677,0.021704 -0.3224609,0.021704 H 7.1887833 V 3.9436378 H 6.8782079 Z M 7.1887833,2.6646461 V 3.101312 h 0.1700155 c 0.1224939,0 0.2046817,-0.00767 0.2459798,-0.023771 0.041298,-0.016099 0.073019,-0.041666 0.096118,-0.075964 0.023799,-0.034298 0.036173,-0.073875 0.036173,-0.1193726 0,-0.055997 -0.016711,-0.1020945 -0.049609,-0.1384928 -0.032898,-0.036398 -0.074659,-0.059113 -0.125057,-0.068213 -0.037098,-0.007 -0.1117644,-0.010852 -0.223759,-0.010852 z M 4.4943741,2.7633481 4.2866349,3.3348895 H 4.7067643 Z M 2.1994238,5.0779355 H 2.821608 L 4.1186865,7.1946022 V 5.0779355 H 4.7134822 V 8.2472511 H 4.0711441 L 2.7937027,6.1807106 V 8.2472511 H 2.1994238 Z m 3.1905029,0 H 7.7401708 V 5.6143369 H 6.0301977 V 6.3166196 H 7.621315 V 6.8509539 H 6.0301977 V 7.7134336 H 7.8006323 V 8.2472511 H 5.3899267 Z m 2.7264486,0 H 10.634568 V 5.6143369 H 9.6966406 V 8.2472511 H 9.0563696 V 5.6143369 H 8.1163753 Z M 0.95815585,7.640053 H 1.5658707 V 8.2472511 H 0.95815585 Z M 3.6866715,9.4724993 c 0.1822911,0 0.3305701,0.053482 0.4444173,0.1612305 0.067766,0.0637 0.1185624,0.1551333 0.1524455,0.2744019 L 3.985878,9.9794451 C 3.9682588,9.9021917 3.9310196,9.8412363 3.8747737,9.7965106 3.8192054,9.7517849 3.7516494,9.7293312 3.6716853,9.7293312 c -0.1104589,0 -0.2001127,0.039569 -0.2692342,0.1188558 -0.068444,0.079287 -0.1028361,0.207959 -0.1028361,0.385506 0,0.18839 0.034036,0.322595 0.1018026,0.40256 0.067766,0.07996 0.1556406,0.119889 0.2640665,0.119889 0.079964,0 0.1485877,-0.02566 0.206189,-0.07648 0.057601,-0.05082 0.09895,-0.130675 0.1240234,-0.239779 l 0.2919719,0.0925 c -0.044726,0.162639 -0.119399,0.283482 -0.223759,0.362769 -0.1036823,0.07861 -0.2353964,0.118339 -0.3953247,0.118339 -0.1978773,0 -0.360425,-0.06772 -0.4878255,-0.202572 -0.1274005,-0.135532 -0.1912028,-0.320534 -0.1912028,-0.555005 0,-0.248024 0.064158,-0.440338 0.1922363,-0.5772257 0.1280782,-0.1375654 0.2961589,-0.206189 0.5048788,-0.206189 z m 1.5187703,0 c 0.2195625,0 0.3951164,0.067912 0.5265829,0.2041219 0.1321441,0.1362101 0.1984375,0.3258378 0.1984375,0.5684408 0,0.24057 -0.065582,0.428613 -0.1963705,0.564823 -0.1307888,0.135533 -0.3056309,0.203606 -0.5245158,0.203606 -0.2215955,0 -0.3978611,-0.06772 -0.5286499,-0.202572 -0.1307887,-0.135532 -0.1958536,-0.321957 -0.1958536,-0.559139 0,-0.151796 0.022293,-0.2788843 0.067696,-0.3818889 0.033883,-0.075898 0.080214,-0.1443267 0.1384928,-0.2046387 0.058957,-0.060312 0.1234707,-0.1047025 0.1932699,-0.1338419 0.09284,-0.039304 0.1996091,-0.058911 0.3209107,-0.058911 z m 0.9606649,0.025321 h 0.6335531 c 0.1592505,0 0.2743999,0.013201 0.3462321,0.040308 0.07251,0.026429 0.1307792,0.074183 0.1741495,0.142627 0.04337,0.068444 0.065112,0.1465149 0.065112,0.234611 0,0.1118147 -0.032969,0.2043147 -0.098702,0.2775027 -0.065733,0.07251 -0.1642837,0.118485 -0.2950725,0.137459 0.065056,0.03795 0.1186987,0.07965 0.1607137,0.125057 0.042693,0.0454 0.099734,0.125966 0.1715658,0.241846 l 0.1824178,0.290421 H 7.1458919 L 6.9283341,10.663641 c -0.077253,-0.11588 -0.1301849,-0.188774 -0.1586467,-0.218591 -0.028462,-0.0305 -0.058584,-0.05117 -0.090434,-0.06201 -0.03185,-0.01152 -0.08229,-0.01705 -0.151412,-0.01705 h -0.060978 v 0.621667 H 6.1661067 Z m 1.5022339,0 h 1.1048421 v 0.252181 H 7.9696142 v 0.3302127 h 0.747758 v 0.251148 h -0.747758 v 0.40566 h 0.8325073 v 0.25063 H 7.6683406 Z M 5.2085424,9.7293312 c -0.1240122,0 -0.2238251,0.042772 -0.2997233,0.1281576 -0.075898,0.084708 -0.1136882,0.2130242 -0.1136882,0.3844722 0,0.168738 0.038858,0.296538 0.1167888,0.383956 0.077931,0.08674 0.1766765,0.130225 0.2966227,0.130225 0.1199462,0 0.2184966,-0.04313 0.2950724,-0.129191 0.077253,-0.08674 0.1157552,-0.21632 0.1157552,-0.389124 0,-0.170771 -0.037951,-0.2983752 -0.1131713,-0.3824053 C 5.4316558,9.7713916 5.3325546,9.7293312 5.2085424,9.7293312 Z m 1.2583211,0.020671 V 10.127756 H 6.689589 c 0.144342,0 0.2343516,-0.0059 0.2702677,-0.01809 0.035916,-0.0122 0.06442,-0.03323 0.084749,-0.06304 0.02033,-0.02982 0.030489,-0.066896 0.030489,-0.1116216 0,-0.050147 -0.013718,-0.090945 -0.040824,-0.1214396 C 7.0078417,9.7823918 6.9704077,9.7627858 6.921616,9.7546538 6.89722,9.7512638 6.82397,9.7500038 6.7019912,9.7500038 Z" /></g></svg>
