<?xml version="1.0" encoding="UTF-8" standalone="no"?>
<!-- Created with Inkscape (http://www.inkscape.org/) -->

<svg
   width="43.232449"
   height="49.607765"
   viewBox="0 0 11.438585 13.125387"
   version="1.1"
   id="svg1"
   xml:space="preserve"
   xmlns:inkscape="http://www.inkscape.org/namespaces/inkscape"
   xmlns:sodipodi="http://sodipodi.sourceforge.net/DTD/sodipodi-0.dtd"
   xmlns="http://www.w3.org/2000/svg"
   xmlns:svg="http://www.w3.org/2000/svg"><sodipodi:namedview
     id="namedview1"
     pagecolor="#ffffff"
     bordercolor="#000000"
     borderopacity="0.25"
     inkscape:showpageshadow="2"
     inkscape:pageopacity="0.0"
     inkscape:pagecheckerboard="0"
     inkscape:deskcolor="#d1d1d1"
     inkscape:document-units="mm" /><defs
     id="defs1" /><g
     inkscape:label="Layer 1"
     inkscape:groupmode="layer"
     id="layer1"
     transform="translate(-0.17370761,-0.09477717)"><path
       id="path1"
       style="fill:#00fff2;fill-opacity:1;stroke:#ffffff;stroke-width:0"
       d="m 0.39998939,-5.2724562 c -0.029401,0.00184 -2.44414559,1.5909252 -2.46868939,1.6072159 -0.024544,0.016291 -2.4267603,1.624349 -2.4398705,1.6507293 -0.01311,0.02638 0.1558392,2.91254731 0.1576756,2.94194832 0.00184,0.029401 0.1932158,2.91368928 0.2095067,2.93823318 0.016291,0.024544 2.6004231,1.3211341 2.6268033,1.3342443 0.02638,0.01311 2.6199762,1.2893403 2.6493771,1.2875039 0.029401,-0.00184 2.4441456,-1.5909251 2.4686895,-1.607216 C 3.6280254,4.8639119 6.0302419,3.2558537 6.0433521,3.2294735 6.0564623,3.2030933 5.8875378,0.31738937 5.8857014,0.28798836 5.8838651,0.25858735 5.6924606,-2.6261641 5.6761699,-2.650708 5.659879,-2.6752519 3.0757717,-3.9713789 3.0493914,-3.9844891 c -0.02638,-0.01311 -2.620001,-1.2898035 -2.64940201,-1.2879671 z m -1.63869849,1.9063758 1.07235917,-0.057643 0.0192227,0.3576074 -0.71475168,0.03842 0.0384204,0.7147516 0.71475168,-0.03842 0.01919777,0.3571442 -1.07235914,0.057643 z m 1.2511629,-0.067255 1.0723591,-0.057643 0.019223,0.3576075 -0.71475168,0.03842 0.009586,0.1783405 0.71475168,-0.03842 0.048032,0.8935554 -1.07235916,0.057643 -0.01919776,-0.3571442 0.71475167,-0.03842 -0.009611,-0.1788037 -0.71475168,0.03842 z m 1.2511629,-0.067254 1.0723591,-0.057643 0.019223,0.3576075 -0.7152149,0.038445 0.00959,0.1783405 0.7152149,-0.038445 0.048032,0.8935554 -1.0723592,0.057643 -0.019198,-0.3571443 0.7147516,-0.03842 -0.00961,-0.1788037 -0.7147517,0.03842 z m -3.4863287,2.1729343 2.87799885,-0.1547027 2.87753555,-0.1546777 -0.00834,0.1300607 c -0.0047,0.071337 -0.038916,0.93307654 -0.075903,1.91528205 C 3.3262315,3.6573273 3.3036167,4.2042512 3.2923376,4.2168112 3.2861905,4.2237042 2.8619253,4.3664058 2.3491501,4.5341686 1.8363743,4.7019296 1.3265489,4.8696959 1.2166038,4.9067671 1.1066587,4.9438356 1.0041223,4.9738099 0.98883253,4.9733642 0.9735426,4.9729275 0.44280251,4.8614916 -0.19100102,4.7255289 -0.82480526,4.5895662 -1.3496064,4.4725085 -1.3570723,4.4658043 -1.3645362,4.4591 -1.4564161,3.8666705 -1.5611807,3.1490619 -2.0154211,0.03764846 -2.1796473,-1.0792509 -2.2004786,-1.1992378 Z m 4.7190109,0.94211524 -1.78888897,0.0975528 c -0.98378556,0.0535003 -1.79230063,0.10136606 -1.79677883,0.106339 -0.00447,0.004969 0.017511,0.14641893 0.048969,0.3146626 0.031458,0.16824448 0.0578646,0.31594601 0.0585172,0.32808616 6.527e-4,0.0121425 0.38470034,0.00162 0.85352383,-0.023581 C 0.34046481,0.4123188 0.74470335,0.3982814 0.76982361,0.4064279 0.79913531,0.4159039 0.61295686,0.51870126 0.25006097,0.69312721 -0.47853498,1.0433271 -0.84339049,1.219802 -0.85426517,1.2277341 c -0.004775,0.00348 0.008069,0.1596485 0.0288658,0.3468688 l 0.0378065,0.3403489 1.21042421,-0.0646 c 0.66575236,-0.035557 1.22446776,-0.056374 1.24160436,-0.0463 0.022655,0.013323 0.030063,0.138985 0.027091,0.4607814 l -0.00409,0.4424815 -0.1755268,0.061931 C 1.4152082,2.8033086 1.2336696,2.8664627 1.1087726,2.9093784 L 0.88159884,2.9870928 0.49063037,2.9128738 C 0.04375859,2.8277577 0.09148338,2.8743087 0.03705092,2.4689783 l -0.0271438,-0.202483 -0.35067415,0.027212 -0.35067414,0.027212 0.005119,0.086598 c 0.006425,0.1117148 0.12877088,0.9696001 0.13941017,0.9773745 0.0168309,0.012297 0.38624581,0.1036383 0.90446583,0.2240788 C 0.85205319,3.7238975 0.94986318,3.7471407 0.95001366,3.7499401 0.95004209,3.750469 1.2684744,3.6389588 1.6576796,3.5019192 L 2.3652958,3.2529719 2.3782522,3.1310251 C 2.3852869,3.0640641 2.4020946,2.6412147 2.4160166,2.191512 2.4299359,1.7418093 2.444922,1.3034616 2.4491341,1.2174066 L 2.4569805,1.0608925 1.6329982,1.098216 C 1.1344561,1.1206822 0.83030943,1.1245974 0.86238121,1.1085139 1.0895791,0.99455577 1.3172138,0.88150793 1.670523,0.70736177 2.1041511,0.4936272 2.1669711,0.46239541 2.3627193,0.36168556 l 0.1225203,-0.0627977 0.00817,-0.28010469 c 0.0047,-0.15416677 0.00739,-0.30821881 0.00576,-0.34222625 z"
       transform="matrix(1.1123724,0.05979396,-0.05979396,1.1123724,5.0756961,5.935795)" /></g></svg>
