<?xml version="1.0" encoding="UTF-8" standalone="no"?>
<!-- Created with Inkscape (http://www.inkscape.org/) -->

<svg
   width="43.022518"
   height="49.442574"
   viewBox="0 0 11.383041 13.081681"
   version="1.1"
   id="svg1"
   xml:space="preserve"
   sodipodi:docname="Github.svg"
   inkscape:export-filename="Github.png"
   inkscape:export-xdpi="96"
   inkscape:export-ydpi="96"
   xmlns:inkscape="http://www.inkscape.org/namespaces/inkscape"
   xmlns:sodipodi="http://sodipodi.sourceforge.net/DTD/sodipodi-0.dtd"
   xmlns="http://www.w3.org/2000/svg"
   xmlns:svg="http://www.w3.org/2000/svg"><sodipodi:namedview
     id="namedview1"
     pagecolor="#ffffff"
     bordercolor="#000000"
     borderopacity="0.25"
     inkscape:showpageshadow="2"
     inkscape:pageopacity="0.0"
     inkscape:pagecheckerboard="0"
     inkscape:deskcolor="#d1d1d1"
     inkscape:document-units="mm" /><defs
     id="defs1" /><g
     inkscape:label="Layer 1"
     inkscape:groupmode="layer"
     id="layer1"
     transform="translate(-0.08465065,-0.07928744)"><path
       id="path12"
       style="fill:#00fff2;fill-opacity:1;stroke:#ffffff;stroke-width:0"
       d="M 5.7339182,0.07928744 5.626948,0.13354769 C 5.3767773,0.26075157 2.7261292,1.8099847 1.4597605,2.5690579 L 0.08465065,3.393297 0.08930153,5.9352607 c 0.00269,1.3980986 0.01502852,2.8736461 0.02738851,3.2788697 l 0.0227376,0.7369059 0.10025228,0.058395 c 0.78753418,0.459326 3.47545098,1.987678 4.38526208,2.493388 0.6506863,0.361678 1.1922073,0.657987 1.2030273,0.658357 0.050842,0.0017 2.6349501,-1.504428 4.3883627,-2.557466 L 11.467935,9.8523343 11.462768,7.34241 c -0.0026,-1.3805116 -0.01498,-2.8558443 -0.02739,-3.2783529 L 11.413158,3.2956286 11.08863,3.1064928 C 10.169134,2.5699814 8.0934291,1.3902137 6.9860382,0.77485222 Z m 0.00362,2.64014896 C 6.3323948,2.7147507 6.9295495,2.8469711 7.4945343,3.1183784 8.7125293,3.7034791 9.5334488,4.8300581 9.7254059,6.180207 9.8652912,7.1641011 9.5807616,8.2860751 8.9900502,9.0802884 8.7720854,9.3733427 8.3331648,9.8005313 8.0474721,9.9980619 7.7554098,10.199996 7.1806214,10.482418 7.0113596,10.507075 6.7954127,10.538531 6.7935189,10.531827 6.7741648,9.6849027 L 6.7565948,8.9154406 6.6449737,8.6989163 C 6.5175291,8.4519099 6.4856784,8.4885545 6.8971547,8.4100451 7.4011605,8.3138815 7.8830243,7.9839091 8.0753774,7.6028592 8.2514315,7.2540987 8.3005527,7.0281246 8.3006866,6.5667467 8.3008258,6.088346 8.2376642,5.8680333 8.0195668,5.5823107 7.9137123,5.4436336 7.9046428,5.414778 7.9384348,5.3285794 7.9915915,5.1929772 7.9839813,4.7353941 7.9255157,4.5456815 L 7.8769399,4.3875516 7.6945221,4.3922025 C 7.5126568,4.3970262 7.1058139,4.5605973 6.8852691,4.7172472 6.7977497,4.7794114 6.7763297,4.7801865 6.563325,4.7343005 6.0647724,4.626901 5.1981681,4.641165 4.8807403,4.761689 4.8135782,4.7871889 4.7496208,4.7654694 4.5494944,4.6500679 4.2525729,4.4788798 3.9220645,4.3620374 3.776415,4.3766995 c -0.09226,0.00928 -0.1120309,0.031405 -0.1529623,0.168982 -0.055112,0.1852309 -0.063089,0.6585014 -0.013436,0.7890991 0.029453,0.077461 0.01667,0.113983 -0.085266,0.2475301 C 3.0709123,6.1768716 3.1567957,7.337605 3.69735,7.9155016 3.946981,8.1823772 4.2791265,8.3406921 4.815628,8.4477689 l 0.2030884,0.040308 -0.075964,0.1229899 c -0.041776,0.067594 -0.095033,0.1890679 -0.1188557,0.269751 -0.039447,0.1335929 -0.058817,0.1513766 -0.2160075,0.199471 -0.1313631,0.040193 -0.1699008,0.067389 -0.1607137,0.1142049 0.0081,0.041298 -0.00978,0.061495 -0.054777,0.061495 -0.0917,0 -0.1212952,-0.037047 -0.074414,-0.093534 0.031328,-0.03775 0.017554,-0.047025 -0.07028,-0.047025 -0.060366,0 -0.1100708,0.017045 -0.1100708,0.037724 0,0.02068 -0.03557,0.032538 -0.079065,0.026355 -0.045703,-0.00649 -0.079316,-0.036364 -0.079582,-0.07028 C 3.978744,9.0769487 3.9347317,9.0157407 3.8808017,8.9733197 3.8268681,8.9308945 3.7180729,8.8094481 3.6394724,8.7030505 3.5338843,8.5601201 3.4892055,8.5220243 3.4673899,8.5573229 c -0.024028,0.03888 -0.038223,0.039275 -0.074931,0.00258 -0.036711,-0.036711 -0.036358,-0.050076 5.167e-4,-0.072864 0.036937,-0.022831 0.036655,-0.034734 -5.167e-4,-0.063562 -0.080068,-0.06209 -0.1355287,-0.087743 -0.1255737,-0.057878 0.00531,0.015936 -0.00599,0.031956 -0.025322,0.035657 -0.019329,0.00372 -0.033098,-0.015482 -0.030489,-0.042891 0.00562,-0.058747 -0.1916753,-0.1043845 -0.3007568,-0.069763 -0.097584,0.030972 -0.092142,0.073002 0.020671,0.1679484 0.051532,0.043369 0.1453264,0.1229145 0.2082561,0.1767334 0.062929,0.053817 0.1717956,0.2118913 0.2423624,0.3513997 C 3.6338991,9.4834597 3.8661564,9.6208941 4.4239206,9.6017 L 4.7706695,9.589818 v 0.410828 c -4.99e-5,0.579659 -0.04772,0.614172 -0.5431193,0.397908 C 3.4382312,10.053981 2.7677419,9.467921 2.3377431,8.7464587 1.56281,7.4462588 1.6168909,5.758194 2.4746856,4.4671333 2.6924257,4.1394144 3.2060272,3.624393 3.5288849,3.4103503 4.2118103,2.9575956 4.9727166,2.7254608 5.7375356,2.7194364 Z M 3.5542063,8.6937487 c 0.055704,0 0.1029593,0.094141 0.060461,0.1204061 -0.015395,0.00951 -0.046303,-0.00133 -0.06873,-0.023771 -0.054971,-0.054971 -0.051344,-0.096635 0.00827,-0.096635 z m 0.1870687,0.252181 c 0.036522,-9.624e-4 0.1152384,0.064583 0.1152384,0.1033529 0,0.053046 -0.10679,0.033776 -0.1286743,-0.023254 -0.011449,-0.029831 -0.011058,-0.063861 5.168e-4,-0.075448 0.00313,-0.00313 0.0077,-0.00451 0.012919,-0.00465 z m 0.9322428,0.2092895 c 0.00997,-8.888e-4 0.022052,-3.817e-4 0.035657,0.00155 0.043498,0.00618 0.079065,0.02718 0.079065,0.046509 0,0.019336 -0.035563,0.040333 -0.079065,0.046509 -0.054422,0.00773 -0.079065,-0.00687 -0.079065,-0.046509 0,-0.029732 0.013512,-0.045392 0.043408,-0.048059 z" /></g></svg>
