<?xml version="1.0" encoding="UTF-8" standalone="no"?>
<!-- Created with Inkscape (http://www.inkscape.org/) -->

<svg
   width="10.003885mm"
   height="2.3966179mm"
   viewBox="0 0 10.003886 2.396618"
   version="1.1"
   id="svg1"
   xml:space="preserve"
   inkscape:export-filename="EMail.svg"
   inkscape:export-xdpi="96"
   inkscape:export-ydpi="96"
   xmlns:inkscape="http://www.inkscape.org/namespaces/inkscape"
   xmlns:sodipodi="http://sodipodi.sourceforge.net/DTD/sodipodi-0.dtd"
   xmlns="http://www.w3.org/2000/svg"
   xmlns:svg="http://www.w3.org/2000/svg"><sodipodi:namedview
     id="namedview1"
     pagecolor="#ffffff"
     bordercolor="#000000"
     borderopacity="0.25"
     inkscape:showpageshadow="2"
     inkscape:pageopacity="0.0"
     inkscape:pagecheckerboard="0"
     inkscape:deskcolor="#d1d1d1"
     inkscape:document-units="mm" /><defs
     id="defs1" /><g
     inkscape:label="Layer 1"
     inkscape:groupmode="layer"
     id="layer1"
     transform="translate(-56.505411,-28.171348)"><path
       style="fill:#43f7ff;fill-opacity:1;stroke:#ffffff;stroke-width:0"
       d="m 57.263715,30.561512 -0.09558,-0.0028 -0.334048,-0.58438 c -0.257009,-0.449608 -0.332771,-0.58873 -0.328507,-0.60324 0.01334,-0.04539 0.382557,-0.717881 0.626413,-1.140914 l 0.03391,-0.05883 h 4.342965 4.342965 l 0.224738,0.403067 c 0.248927,0.446452 0.333606,0.600672 0.392896,0.715555 l 0.03983,0.07718 -0.02937,0.05891 c -0.04574,0.09173 -0.150558,0.283534 -0.39901,0.730124 l -0.229088,0.411782 -4.246273,-0.0019 c -2.335452,-10e-4 -4.289281,-0.0031 -4.341848,-0.0046 z m 8.747758,-0.483726 c 0.331727,-0.656369 0.345593,-0.685597 0.340454,-0.717585 -0.0056,-0.03485 -0.169713,-0.372442 -0.378797,-0.779211 l -0.159025,-0.309381 -0.279784,-0.0059 c -0.579085,-0.01212 -3.566978,-0.02461 -5.893778,-0.02463 l -2.412753,-2e-5 -0.134228,0.254913 c -0.273918,0.520193 -0.420361,0.828151 -0.420162,0.883552 9.5e-5,0.0277 0.140985,0.31618 0.387806,0.79408 l 0.15866,0.307203 h 4.293949 4.293949 z"
       id="path3" /></g></svg>