<?xml version="1.0" encoding="UTF-8" standalone="no"?>
<!-- Created with Inkscape (http://www.inkscape.org/) -->

<svg
   width="43.022518"
   height="49.442574"
   viewBox="0 0 11.383041 13.081681"
   version="1.1"
   id="svg1"
   xml:space="preserve"
   xmlns:inkscape="http://www.inkscape.org/namespaces/inkscape"
   xmlns:sodipodi="http://sodipodi.sourceforge.net/DTD/sodipodi-0.dtd"
   xmlns="http://www.w3.org/2000/svg"
   xmlns:svg="http://www.w3.org/2000/svg"><sodipodi:namedview
     id="namedview1"
     pagecolor="#ffffff"
     bordercolor="#000000"
     borderopacity="0.25"
     inkscape:showpageshadow="2"
     inkscape:pageopacity="0.0"
     inkscape:pagecheckerboard="0"
     inkscape:deskcolor="#d1d1d1"
     inkscape:document-units="mm" /><defs
     id="defs1" /><g
     inkscape:label="Layer 1"
     inkscape:groupmode="layer"
     id="layer1"
     transform="translate(-0.08465065,-0.07928744)"><path
       style="fill:#800000;fill-opacity:0;stroke:#ffffff;stroke-width:0"
       d="m 2.0987529,9.1893227 c -0.008,-0.02734 -0.016944,-0.08656 -0.019895,-0.131612 -0.00488,-0.07443 -0.00761,-0.08399 -0.029946,-0.104689 -0.016792,-0.01557 -0.024779,-0.03213 -0.025209,-0.05229 -5.112e-4,-0.02398 -0.00197,-0.02615 -0.00779,-0.01161 -0.00466,0.01165 -0.00834,-0.0095 -0.010553,-0.06072 -0.002,-0.04622 -0.00765,-0.08123 -0.013724,-0.08499 -0.00755,-0.0047 -0.0083,-0.03371 -0.00281,-0.107945 0.00713,-0.09627 0.011576,-0.117683 0.022244,-0.107015 0.00255,0.0026 0.00811,0.05114 0.01235,0.107969 0.00806,0.107948 0.016492,0.140023 0.028656,0.10896 0.00373,-0.0095 0.00705,-0.04012 0.0074,-0.06801 3.472e-4,-0.02789 0.0032,-0.05741 0.00635,-0.06561 0.010349,-0.02697 0.020837,0.0052 0.020983,0.06437 2.045e-4,0.08267 0.00199,0.08337 0.2101239,0.08274 0.2311689,-6.94e-4 0.2399279,-0.0027 0.2606643,-0.05764 0.010278,-0.02726 0.017,0.03255 0.019606,0.174448 0.00154,0.08351 -5.672e-4,0.116632 -0.00681,0.107354 -0.00693,-0.01029 -0.00909,-0.0061 -0.0093,0.01789 -1.478e-4,0.01722 -0.00545,0.04137 -0.011772,0.05368 -0.00958,0.01863 -0.00937,0.02398 0.00126,0.03202 0.01062,0.008 0.010834,0.01327 0.00127,0.03114 -0.00632,0.01182 -0.02038,0.02847 -0.031233,0.03701 -0.010853,0.0085 -0.024793,0.02774 -0.030976,0.04267 l -0.011242,0.02714 -0.1308693,7.52e-4 c -0.071978,4.25e-4 -0.1541321,0.0037 -0.1825643,0.0072 l -0.051695,0.0064 z"
       id="path57022" /><path
       style="fill:#800000;fill-opacity:0;stroke:#ffffff;stroke-width:0"
       d="m 2.0987529,9.1893227 c -0.008,-0.02734 -0.016944,-0.08656 -0.019895,-0.131612 -0.00488,-0.07443 -0.00761,-0.08399 -0.029946,-0.104689 -0.016792,-0.01557 -0.024779,-0.03213 -0.025209,-0.05229 -5.112e-4,-0.02398 -0.00197,-0.02615 -0.00779,-0.01161 -0.00466,0.01165 -0.00834,-0.0095 -0.010553,-0.06072 -0.002,-0.04622 -0.00765,-0.08123 -0.013724,-0.08499 -0.00755,-0.0047 -0.0083,-0.03371 -0.00281,-0.107945 0.00713,-0.09627 0.011576,-0.117683 0.022244,-0.107015 0.00255,0.0026 0.00811,0.05114 0.01235,0.107969 0.00806,0.107948 0.016492,0.140023 0.028656,0.10896 0.00373,-0.0095 0.00705,-0.04012 0.0074,-0.06801 3.472e-4,-0.02789 0.0032,-0.05741 0.00635,-0.06561 0.010349,-0.02697 0.020837,0.0052 0.020983,0.06437 2.045e-4,0.08267 0.00199,0.08337 0.2101239,0.08274 0.2311689,-6.94e-4 0.2399279,-0.0027 0.2606643,-0.05764 0.010278,-0.02726 0.017,0.03255 0.019606,0.174448 0.00154,0.08351 -5.672e-4,0.116632 -0.00681,0.107354 -0.00693,-0.01029 -0.00909,-0.0061 -0.0093,0.01789 -1.478e-4,0.01722 -0.00545,0.04137 -0.011772,0.05368 -0.00958,0.01863 -0.00937,0.02398 0.00126,0.03202 0.01062,0.008 0.010834,0.01327 0.00127,0.03114 -0.00632,0.01182 -0.02038,0.02847 -0.031233,0.03701 -0.010853,0.0085 -0.024793,0.02774 -0.030976,0.04267 l -0.011242,0.02714 -0.1308693,7.52e-4 c -0.071978,4.25e-4 -0.1541321,0.0037 -0.1825643,0.0072 l -0.051695,0.0064 z"
       id="path57023" /><path
       id="path12-2-1"
       style="fill:#00fff2;fill-opacity:1;stroke:#ffffff;stroke-width:0"
       d="M 5.7504547,0.08032097 5.6434845,0.13458122 C 5.3933185,0.26178222 2.7426345,1.811035 1.476297,2.5700915 l -1.37510989,0.8242391 0.004651,2.5419637 c 0.00269,1.398065 0.0150288,2.8736559 0.0273885,3.2788696 l 0.0227376,0.7369059 0.10025228,0.058394 c 0.78751501,0.459327 3.47547501,1.987703 4.38526201,2.493388 0.650672,0.361679 1.1922074,0.657988 1.2030274,0.658358 0.050839,0.0017 2.6350033,-1.504453 4.3883621,-2.557467 l 1.251604,-0.7513754 -0.0052,-2.5099243 c -0.0026,-1.380478 -0.01498,-2.8558563 -0.02739,-3.2783528 L 11.429695,3.2966621 11.105167,3.1075264 C 10.185695,2.5710269 8.1099391,1.3912332 7.0025746,0.77588575 Z m 2.7925944,2.56935223 0.00207,0.3064412 -0.3064412,0.00207 -0.00207,-0.3064413 z m -0.434082,5.167e-4 0.00207,0.3069581 -0.3064412,0.00207 -0.00207,-0.306958 z m -0.4051433,0.0031 0.00207,0.3064413 -0.3064413,0.00207 -0.00207,-0.3064412 z m -0.425297,0.00207 0.00207,0.3064412 -0.3064412,0.00207 -0.00207,-0.3064413 z M 8.5477,3.0806569 8.54977,3.3870982 8.2433288,3.3891682 8.2412588,3.082727 Z m 0.00827,0.4134115 0.00207,0.3064412 -0.3064413,0.00207 -0.00207,-0.3064413 z m -3.1600138,0.032556 c 0.866563,0.00695 1.6964138,0.2152033 1.8753377,0.5612061 l 0.063045,0.1209228 -5.167e-4,1.5332398 v 1.5332375 l -0.0801,-0.1312581 C 7.2097513,7.0718689 7.0941561,6.945075 6.9968902,6.8618192 L 6.8201568,6.7104072 V 5.8045194 c 0,-0.4982628 -0.01128,-0.9058879 -0.025321,-0.9058879 -0.01404,0 -0.1288288,0.029537 -0.2547648,0.066146 -0.1259383,0.036612 -0.3501181,0.080249 -0.4986776,0.096635 L 5.7711253,5.0908678 5.7597564,6.1998441 5.7483876,7.3088203 5.664155,7.232856 5.5804392,7.1568916 5.5365143,7.2726468 C 5.3790465,7.6868134 5.6580729,8.2711246 6.0817006,8.4152127 l 0.160197,0.054777 -0.171049,0.032039 c -0.094215,0.017535 -0.4219189,0.030877 -0.728121,0.029972 L 4.7861725,8.5304512 4.4213368,8.4544868 C 3.9449676,8.3551439 3.6377429,8.2194936 3.4792755,8.0390083 L 3.3511179,7.8932808 V 6.026728 4.1601753 L 3.5118316,4.0004951 3.6725453,3.8408149 3.9293772,3.7452135 C 4.3426648,3.5910056 4.8760156,3.5224503 5.3959544,3.5266222 Z M 6.0279571,3.8061917 5.3644317,3.8067085 H 4.7003896 L 4.3789622,3.8831896 C 4.0214447,3.9680471 3.7042226,4.1136243 3.633788,4.2252876 l -0.046509,0.073381 0.044959,0.074931 C 3.7006,4.4872896 4.06195,4.6518091 4.4213371,4.7327508 l 0.3219442,0.072347 0.5637899,0.00413 0.5632731,0.00362 0.3358968,-0.064079 C 6.5653706,4.6801171 6.9799456,4.4962414 7.0532175,4.373599 L 7.098176,4.2986681 7.0516673,4.2237373 C 6.9763375,4.1028814 6.7081354,3.9731223 6.3561025,3.886807 Z m 2.532662,0.1188558 0.00207,0.306958 -0.3064412,0.00155 -0.00207,-0.3064412 z m 0.324528,2.7719239 0.1989542,0.1669148 C 9.193401,6.9557697 9.3311415,7.0830248 9.3900258,7.1465563 L 9.496996,7.2623115 8.9776479,7.76564 8.457783,8.2689684 8.3254913,8.2953234 C 8.1596154,8.3284997 8.0243183,8.4612207 7.9921783,8.6219185 7.9785851,8.6898818 7.9153904,8.795432 7.8516184,8.8565295 L 7.7353465,8.9676338 7.6340606,8.8596301 7.5322581,8.7516263 7.0392649,9.2342842 C 6.7681056,9.4995427 6.5141219,9.7737686 6.4749583,9.8440661 6.3570612,10.055689 5.7494212,10.396289 5.7494212,10.25076 c 0,-0.119802 0.4399397,-0.6841304 0.5333007,-0.6841964 0.024823,-1.7e-5 0.2764915,-0.219697 0.559139,-0.4878255 L 7.3555247,8.5914294 7.251655,8.4792915 7.1477854,8.3671537 7.2480377,8.2607002 c 0.05498,-0.058523 0.1645916,-0.1180243 0.243396,-0.1328084 L 7.6345774,8.10102 7.7410309,7.973896 C 7.799782,7.9040738 7.8480011,7.8116775 7.8480011,7.7687406 V 7.6907092 L 8.3668325,7.1940986 Z m -2.6830404,0.085783 h 0.2253092 0.2247925 l 0.1674317,0.085266 c 0.091913,0.046889 0.2205697,0.1553284 0.2857706,0.2408121 l 0.1183391,0.1555461 0.017053,0.2707845 0.01757,0.2707845 0.080615,0.073381 c 0.091176,0.082513 0.1047334,0.1452108 0.031523,0.1452108 -0.027016,0 -0.1340756,0.070201 -0.2382283,0.1555461 L 6.94263,8.3351143 l 0.1100708,0.1147216 0.1100708,0.1147217 -0.05116,0.05116 C 7.0383086,8.6890226 7.0244226,8.6835116 6.863048,8.5170156 L 6.7178375,8.3671537 H 6.4672068 6.2165761 L 6.0796336,8.2979072 C 5.7362958,8.1244368 5.5110723,7.7179591 5.6140289,7.4571317 L 5.6434845,7.3827176 5.771642,7.4964058 C 5.842014,7.5591073 5.9485873,7.6557669 6.0088368,7.710863 L 6.1183909,7.8111152 6.3369822,7.7460029 6.5550567,7.6814074 6.6072499,7.4633329 6.6594431,7.2457751 6.4310333,7.0142647 Z M 2.0845286,8.1630317 H 2.3992381 V 8.4777412 H 2.0845286 Z m 0.00155,0.4428671 H 2.4007883 V 8.9206082 H 2.0860789 Z m 6.0502767,0.075448 c 0.055816,0.010564 0.2068327,0.1569254 0.6025472,0.5565551 l 0.5653401,0.5710246 v 0.1276408 0.1276407 l -0.089917,0.09663 C 9.072265,10.31331 8.9211558,10.359298 8.7688751,10.296752 8.7217661,10.277401 8.4039895,9.991319 8.0624583,9.6611315 l -0.6211507,-0.6004801 0.050126,-0.052193 0.050126,-0.052193 0.125057,0.088883 0.125057,0.0894 0.1565796,-0.1607137 c 0.086183,-0.088258 0.1565795,-0.19335 0.1565795,-0.2335775 0,-0.040345 0.00615,-0.063714 0.031523,-0.05891 z M 2.09228,9.0301623 H 2.4069895 V 9.3448717 H 2.09228 Z m 0.00155,0.442867 H 2.4085398 V 9.7877388 H 2.0938303 Z m 0.4454509,0.00207 H 2.8539907 V 9.7898058 H 2.5392812 Z m 0.4159953,0 H 3.2699859 V 9.7898058 H 2.9552765 Z m 0.4366658,0.00103 H 3.7066518 V 9.7908394 H 3.3919423 Z" /><path
       style="fill:#800000;fill-opacity:0;stroke:#ffffff;stroke-width:0"
       d="m 8.5421207,3.2323934 c 0.00797,0.02657 0.017067,0.084188 0.020236,0.128042 0.00523,0.072454 0.00796,0.081743 0.029848,0.1017573 0.016455,0.01505 0.024342,0.031123 0.024892,0.050754 6.388e-4,0.023355 0.00208,0.025459 0.00766,0.011257 0.00446,-0.011377 0.00818,0.00922 0.010674,0.059059 0.00225,0.044998 0.00798,0.079062 0.013923,0.082677 0.00738,0.00449 0.0083,0.032773 0.00345,0.1051055 -0.00632,0.093801 -0.010503,0.1146826 -0.020964,0.1043627 -0.0025,-0.00249 -0.00823,-0.049747 -0.012733,-0.1050666 -0.00855,-0.1050733 -0.016977,-0.1362549 -0.02862,-0.1059246 -0.00357,0.00929 -0.0066,0.039118 -0.00676,0.066281 -1.556e-4,0.027164 -0.00275,0.055932 -0.00575,0.063934 -0.0099,0.02633 -0.020327,-0.00495 -0.020856,-0.062551 -7.515e-4,-0.080506 -0.00249,-0.081182 -0.2051727,-0.079207 -0.2251226,0.00219 -0.2336398,0.00416 -0.2534749,0.057835 -0.00983,0.026611 -0.016769,-0.031589 -0.020234,-0.1697605 -0.00205,-0.081316 -2.255e-4,-0.1135873 0.00593,-0.1045922 0.00682,0.00998 0.00889,0.00589 0.00894,-0.017487 3.19e-5,-0.016773 0.00504,-0.040327 0.011114,-0.05235 0.00921,-0.018202 0.00897,-0.023411 -0.00143,-0.031175 -0.010395,-0.00776 -0.010637,-0.012849 -0.00145,-0.030323 0.00609,-0.011552 0.019661,-0.027858 0.030175,-0.036247 0.010513,-0.00839 0.023963,-0.027175 0.029887,-0.041754 l 0.010772,-0.026507 0.1274442,-0.00159 c 0.070094,-8.83e-4 0.1500795,-0.00461 0.1777453,-0.00824 l 0.050302,-0.00659 z"
       id="path57022-2" /><path
       style="fill:#800000;fill-opacity:0;stroke:#ffffff;stroke-width:0"
       d="m 8.5421207,3.2323934 c 0.00797,0.02657 0.017067,0.084188 0.020236,0.128042 0.00523,0.072454 0.00796,0.081743 0.029848,0.1017573 0.016455,0.01505 0.024342,0.031123 0.024892,0.050754 6.388e-4,0.023355 0.00208,0.025459 0.00766,0.011257 0.00446,-0.011377 0.00818,0.00922 0.010674,0.059059 0.00225,0.044998 0.00798,0.079062 0.013923,0.082677 0.00738,0.00449 0.0083,0.032773 0.00345,0.1051055 -0.00632,0.093801 -0.010503,0.1146826 -0.020964,0.1043627 -0.0025,-0.00249 -0.00823,-0.049747 -0.012733,-0.1050666 -0.00855,-0.1050733 -0.016977,-0.1362549 -0.02862,-0.1059246 -0.00357,0.00929 -0.0066,0.039118 -0.00676,0.066281 -1.556e-4,0.027164 -0.00275,0.055932 -0.00575,0.063934 -0.0099,0.02633 -0.020327,-0.00495 -0.020856,-0.062551 -7.515e-4,-0.080506 -0.00249,-0.081182 -0.2051727,-0.079207 -0.2251226,0.00219 -0.2336398,0.00416 -0.2534749,0.057835 -0.00983,0.026611 -0.016769,-0.031589 -0.020234,-0.1697605 -0.00205,-0.081316 -2.255e-4,-0.1135873 0.00593,-0.1045922 0.00682,0.00998 0.00889,0.00589 0.00894,-0.017487 3.19e-5,-0.016773 0.00504,-0.040327 0.011114,-0.05235 0.00921,-0.018202 0.00897,-0.023411 -0.00143,-0.031175 -0.010395,-0.00776 -0.010637,-0.012849 -0.00145,-0.030323 0.00609,-0.011552 0.019661,-0.027858 0.030175,-0.036247 0.010513,-0.00839 0.023963,-0.027175 0.029887,-0.041754 l 0.010772,-0.026507 0.1274442,-0.00159 c 0.070094,-8.83e-4 0.1500795,-0.00461 0.1777453,-0.00824 l 0.050302,-0.00659 z"
       id="path57023-4" /></g></svg>
