<?xml version="1.0" encoding="UTF-8" standalone="no"?>
<!-- Created with Inkscape (http://www.inkscape.org/) -->

<svg
   width="43.232449"
   height="49.607765"
   viewBox="0 0 11.438585 13.125387"
   version="1.1"
   id="svg1"
   xml:space="preserve"
   inkscape:export-filename="MYSQL.svg"
   inkscape:export-xdpi="96"
   inkscape:export-ydpi="96"
   xmlns:inkscape="http://www.inkscape.org/namespaces/inkscape"
   xmlns:sodipodi="http://sodipodi.sourceforge.net/DTD/sodipodi-0.dtd"
   xmlns="http://www.w3.org/2000/svg"
   xmlns:svg="http://www.w3.org/2000/svg"><sodipodi:namedview
     id="namedview1"
     pagecolor="#ffffff"
     bordercolor="#000000"
     borderopacity="0.25"
     inkscape:showpageshadow="2"
     inkscape:pageopacity="0.0"
     inkscape:pagecheckerboard="0"
     inkscape:deskcolor="#d1d1d1"
     inkscape:document-units="mm" /><defs
     id="defs1" /><g
     inkscape:label="Layer 1"
     inkscape:groupmode="layer"
     id="layer1"
     transform="translate(-0.17370761,-0.09477717)"><path
       style="fill:#00fff2;fill-opacity:1;stroke:#ffffff;stroke-width:0"
       d="m 9.5238444,36.504388 c 0,-0.135804 0.020867,-0.135705 0.243068,0.0012 l 0.1767767,0.10888 -0.2099223,2.27e-4 c -0.1945148,2.09e-4 -0.2099224,-0.0079 -0.2099224,-0.110259 z"
       id="path11"
       transform="matrix(0.26458333,0,0,0.26458333,0.17370761,0.09477717)" /><path
       id="path77"
       style="fill:#43f7ff;fill-opacity:1;stroke:#ffffff;stroke-width:0"
       d="M 5.9185766,0.19244563 5.5718277,0.38003108 C 4.8557864,0.76719429 1.6878998,2.5781747 0.71941073,3.154022 L 0.28274488,3.4134377 0.26775872,3.6718198 c -0.0083,0.1420491 -0.0171869,1.5964826 -0.0196371,3.2318441 -0.00441,2.9436619 -0.00393,2.9737104 0.0423747,3.0251383 0.0257247,0.028571 0.29953601,0.2018008 0.60823161,0.3849898 1.60799737,0.95423 4.27427737,2.499911 4.74751387,2.752286 0.1157609,0.06173 0.2201939,0.112408 0.2325439,0.112655 0.091791,0.0018 5.3480223,-3.011649 5.5784713,-3.1982543 0.05163,-0.041812 0.05223,-0.049514 0.07183,-0.999939 0.02232,-1.0849715 0.02354,-4.8639788 0.0015,-5.2725464 L 11.516168,3.4392759 10.849542,3.0444679 C 9.2300442,2.0845752 6.2368434,0.34704585 6.0281306,0.24567235 Z m 0.901237,2.25929357 0.144694,0.00362 0.1452108,0.00362 0.081649,0.014469 0.081132,0.014469 0.049609,0.017053 0.049609,0.017053 0.028939,0.014986 0.028939,0.014469 0.022221,0.025321 0.022221,0.025838 v 0.020154 0.020671 l -0.017053,0.020671 -0.01757,0.020154 -0.041341,0.022221 -0.040824,0.022221 -0.061495,0.01757 -0.060978,0.01757 -0.07338,0.011369 -0.072864,0.011369 -0.1276408,0.00258 -0.127124,0.00258 -0.032039,-0.0031 -0.031523,-0.0031 -0.076481,-0.010335 -0.075964,-0.010852 -0.061495,-0.018087 -0.062012,-0.01757 -0.040824,-0.022221 -0.041341,-0.021704 -0.01757,-0.020671 -0.017053,-0.020671 v -0.020671 -0.020154 l 0.022738,-0.026355 0.023254,-0.026355 0.049609,-0.022738 0.049609,-0.022738 0.059945,-0.014986 0.059945,-0.014469 0.088367,-0.011369 z m -0.4423503,0.2485637 0.023254,0.018087 0.023254,0.01757 0.038757,0.017053 0.038757,0.017053 0.05271,0.014986 0.053227,0.014469 0.070797,0.012402 0.070797,0.012402 h 0.1767334 0.1767334 l 0.070797,-0.012402 0.070797,-0.012402 0.053227,-0.014469 0.05271,-0.014986 0.038757,-0.017053 0.038757,-0.017053 0.023254,-0.01757 0.023254,-0.018087 v 0.135909 0.135909 l -0.027905,0.026355 -0.027905,0.026872 -0.055294,0.021187 -0.055294,0.021187 -0.067179,0.014469 -0.067179,0.014469 -0.073381,0.00723 -0.072864,0.00775 -0.114205,-0.00103 -0.1142049,-0.00103 -0.056844,-0.00568 -0.056844,-0.0062 -0.070797,-0.014986 -0.07028,-0.014986 -0.055294,-0.021187 -0.055294,-0.021187 -0.027905,-0.026872 -0.027905,-0.026355 v -0.135909 z m 1.0293945,0.1638143 -0.017053,0.012919 -0.017053,0.013436 0.00465,0.011369 0.00413,0.011369 h 0.00723 0.00672 l 0.018603,-0.00827 0.018087,-0.00827 -0.00207,-0.014469 -0.00207,-0.014986 -0.010335,-0.00155 z m -0.050643,0.027389 -0.018087,0.00672 -0.018087,0.00723 -0.00517,0.00775 -0.00465,0.00775 0.00878,0.010335 0.00879,0.010852 0.014469,-0.00465 0.014986,-0.00465 0.010335,-0.00982 0.010335,-0.00982 -0.010852,-0.010852 z m -0.060461,0.022221 -0.018604,0.00413 -0.018604,0.00413 -0.00672,0.00568 -0.0062,0.00568 0.00413,0.011369 0.00465,0.010852 h 0.016536 0.016536 l 0.013436,-0.00982 0.013436,-0.00982 -0.0093,-0.011369 z m -0.9182902,0.1193725 0.023254,0.01757 0.023254,0.018087 0.038757,0.017053 0.038757,0.017053 0.05271,0.014469 0.053227,0.014986 0.070797,0.012402 0.070797,0.011886 0.173116,5.167e-4 h 0.1736328 l 0.056327,-0.0093 0.056844,-0.00879 0.068213,-0.017053 0.068213,-0.017053 0.040824,-0.018087 0.041341,-0.018087 0.023254,-0.018087 0.023254,-0.01757 v 0.133842 0.1343587 l -0.017053,0.020671 -0.017053,0.020154 -0.034107,0.018603 -0.034623,0.018604 -0.063045,0.018603 -0.063562,0.018087 -0.064079,0.011369 -0.063562,0.010852 -0.1627808,0.00207 -0.1627808,0.00258 -0.024805,-0.0031 -0.024805,-0.0031 -0.067179,-0.010335 -0.067179,-0.00982 -0.063562,-0.018604 -0.063562,-0.018603 -0.034623,-0.018604 -0.034106,-0.018603 -0.017053,-0.020154 -0.017053,-0.020671 v -0.134354 z m 1.0293945,0.1632975 -0.017053,0.013436 -0.017053,0.012919 0.00465,0.011886 0.00413,0.011369 h 0.00723 0.00672 l 0.018603,-0.00827 0.018087,-0.00879 -0.00207,-0.014469 -0.00207,-0.014469 -0.010335,-0.00155 z m -0.050643,0.027905 -0.018087,0.00672 -0.018087,0.00672 -0.00517,0.00827 -0.00465,0.00775 0.00878,0.010335 0.00879,0.010335 0.014469,-0.00413 0.014986,-0.00465 0.010335,-0.00982 0.010335,-0.00982 -0.010852,-0.010852 z m -0.060461,0.021704 -0.018604,0.00465 -0.018604,0.00413 -0.00672,0.00568 -0.0062,0.00568 0.00413,0.010852 0.00465,0.011369 h 0.016536 0.016536 l 0.013436,-0.00982 0.013436,-0.00982 -0.0093,-0.011369 z m -0.9182902,0.1198893 0.028939,0.021187 0.028939,0.021187 0.05426,0.020671 0.05426,0.020671 0.070797,0.014469 0.07028,0.014469 0.07338,0.00775 0.07338,0.00723 h 0.094051 0.094051 l 0.07338,-0.00723 0.07338,-0.00775 0.070797,-0.014469 0.070797,-0.014469 0.053743,-0.020671 0.05426,-0.020671 0.028939,-0.021187 0.028939,-0.021187 V 3.5002541 3.634096 L 7.4569829,3.65425 7.4399299,3.674921 7.4058229,3.693525 7.3711999,3.712128 7.3081549,3.730215 7.2445929,3.748819 7.1810309,3.759671 7.1169519,3.77104 6.9541711,3.77311 6.7913903,3.77518 6.7665853,3.77208 6.7417803,3.7695 6.6746028,3.759153 6.6074234,3.7488177 6.5438614,3.7307309 6.4802994,3.7121274 6.4456762,3.6935239 6.4115698,3.6749204 6.3945165,3.6542498 6.3774633,3.634096 V 3.5002541 Z M 3.271193,3.5198911 c 0.1417442,-0.00246 0.3453255,0.067038 0.7844482,0.2356445 0.1414849,0.054325 0.4360806,0.143611 0.6547404,0.1989543 0.6249454,0.1581754 0.9690738,0.3477951 1.4903483,0.8206217 0.7510423,0.6812377 1.1850575,1.290999 1.5192871,2.1342367 0.1573329,0.3969389 0.1864533,0.4481744 0.3219442,0.569991 0.1517198,0.1364101 0.3149656,0.244121 0.6066813,0.4004924 0.3197997,0.171426 0.4081989,0.2413292 0.7859985,0.6211507 0.2791338,0.2806226 0.3231636,0.3346765 0.3012736,0.3694865 -0.03996,0.063556 -0.2190685,0.1190233 -0.5234822,0.1617472 -0.1534869,0.021541 -0.291428,0.046727 -0.306958,0.056327 -0.047317,0.029243 0.030155,0.1198781 0.2294433,0.267684 0.1005709,0.074589 0.2402355,0.1783637 0.3105754,0.2309936 0.2764147,0.2067948 0.6087479,0.5547013 0.6087479,0.6371703 0,0.06382 -0.090198,0.02642 -0.4676712,-0.193786 C 8.9092104,9.6354532 8.5855071,9.394763 8.3442683,9.1066302 l -0.097668,-0.116272 0.086816,-0.088883 C 8.4341772,8.7982856 8.4905197,8.778949 8.8837703,8.712339 9.0437601,8.68524 9.1895015,8.6548719 9.2077815,8.6446429 9.2321635,8.6309978 9.1928453,8.5910521 9.0610204,8.4947812 8.8576856,8.3462879 8.7182538,8.2755652 8.4016292,8.1609515 8.0999685,8.0517547 8.059844,8.0283113 7.9039851,7.8700132 7.7077733,7.6707316 7.6362479,7.5525497 7.1908504,6.6917905 6.9706036,6.2661515 6.7440118,5.8493538 6.6875219,5.7657488 6.5146201,5.5098666 5.9678813,4.984017 5.6400406,4.7585752 5.0932522,4.3825728 4.8582556,4.2814622 4.470603,4.2542132 4.2490272,4.2386382 4.2388617,4.2350404 3.931101,4.0754127 3.6335763,3.9210947 3.608494,3.9124014 3.4505102,3.9095314 l -0.1663981,-0.00258 -0.00672,0.093534 c -0.00609,0.084746 0.011128,0.1173157 0.1829346,0.3503662 0.2106648,0.2857616 0.2412305,0.3408002 0.4687052,0.8381918 0.087289,0.1908638 0.2383242,0.48663 0.3353801,0.6573242 l 0.1762166,0.3105753 -0.057361,0.1462443 c -0.074121,0.1891352 -0.1670184,0.5597889 -0.2030884,0.809253 -0.022265,0.1539947 -0.022577,0.2265222 -5.168e-4,0.333313 0.088334,0.4276712 0.2085915,0.6111456 0.3369304,0.5136637 0.0218,-0.016563 0.061657,-0.1125678 0.088367,-0.2134237 0.066911,-0.2526334 0.2369539,-0.5767089 0.3028239,-0.5767089 0.023331,0 0.2664923,0.370108 0.552421,0.841809 0.1130529,0.1865038 0.2822746,0.4539876 0.3762045,0.5947958 0.09392,0.1408087 0.1656801,0.2611371 0.1596801,0.2671671 C 5.9739073,8.8952359 5.7241247,8.7028951 5.5935318,8.5629941 5.5195469,8.4837356 5.3599694,8.2856494 5.2390315,8.1232277 5.1180936,7.9608063 5.0067214,7.8326506 4.9915014,7.8384905 4.9581054,7.8513051 4.8862787,7.996402 4.8855647,8.052431 4.8844217,8.1417474 4.79305,8.2902503 4.7026301,8.3500872 4.6212132,8.4039702 4.5953914,8.4096537 4.4979915,8.3950457 4.3620766,8.374664 4.2834206,8.2983771 4.1817317,8.0865374 4.0571818,7.8270656 3.9906894,7.5221635 3.9915624,7.2157895 3.9924104,6.9140145 4.0434883,6.5376048 4.1104182,6.3393572 L 4.15486,6.2070656 4.04944,6.0510028 C 3.9915811,5.9650293 3.8561063,5.7136323 3.7481664,5.4923805 3.4826787,4.9481964 3.3972081,4.8003415 3.1409684,4.4417987 L 2.9213435,4.1348406 V 3.9028135 3.6707863 L 3.045367,3.5958555 c 0.078015,-0.047282 0.1407794,-0.074486 0.225826,-0.075964 z m 4.1465169,0.00827 -0.021187,0.011369 -0.021704,0.010852 v 0.0093 0.0093 l 0.00465,0.00465 0.00517,0.00465 h 0.00568 0.00517 l 0.018087,-0.00775 0.018087,-0.00827 v -0.012919 -0.012402 l -0.00672,-0.00413 z m -0.061495,0.028422 -0.018087,0.00723 -0.018087,0.00672 -0.00517,0.00775 -0.00465,0.00775 0.00878,0.010852 0.00879,0.010335 0.014469,-0.00465 0.014986,-0.00413 0.010335,-0.010335 0.010335,-0.00982 -0.010852,-0.010852 z m -0.060461,0.022221 -0.018604,0.00413 -0.018604,0.00465 -0.00672,0.00568 -0.0062,0.00568 0.00413,0.010852 0.00465,0.011369 h 0.016536 0.016536 l 0.013436,-0.010335 0.013436,-0.00982 -0.0093,-0.010852 z m -2.92592,0.9136375 c 0.066326,0.00149 0.1384891,0.018091 0.190686,0.048576 0.1221459,0.071348 0.150967,0.1408077 0.125057,0.3023071 -0.01199,0.074687 -0.035533,0.1402976 -0.052193,0.1457276 C 4.6167297,4.994488 4.5063205,4.9035307 4.3879207,4.7869972 4.1811799,4.5835131 4.1741479,4.5734279 4.2142879,4.5332659 c 0.028655,-0.028671 0.08922,-0.042311 0.155546,-0.040824 z" /></g></svg>
