<?xml version="1.0" encoding="UTF-8" standalone="no"?>
<!-- Created with Inkscape (http://www.inkscape.org/) -->

<svg
   width="11.335021mm"
   height="13.010434mm"
   viewBox="0 0 11.335021 13.010434"
   version="1.1"
   id="svg1"
   xml:space="preserve"
   inkscape:export-filename="Trello.svg"
   inkscape:export-xdpi="96"
   inkscape:export-ydpi="96"
   xmlns:inkscape="http://www.inkscape.org/namespaces/inkscape"
   xmlns:sodipodi="http://sodipodi.sourceforge.net/DTD/sodipodi-0.dtd"
   xmlns="http://www.w3.org/2000/svg"
   xmlns:svg="http://www.w3.org/2000/svg"><sodipodi:namedview
     id="namedview1"
     pagecolor="#ffffff"
     bordercolor="#000000"
     borderopacity="0.25"
     inkscape:showpageshadow="2"
     inkscape:pageopacity="0.0"
     inkscape:pagecheckerboard="0"
     inkscape:deskcolor="#d1d1d1"
     inkscape:document-units="mm" /><defs
     id="defs1" /><g
     inkscape:label="Layer 1"
     inkscape:groupmode="layer"
     id="layer1"
     transform="translate(-178.88056,-52.856204)"><path
       id="path3"
       style="fill:#43f7ff;fill-opacity:1;stroke:#ffffff;stroke-width:0"
       d="m 184.61458,52.882559 -0.21033,0.105937 c -0.45328,0.227606 -4.59884,2.595338 -5.26582,3.007568 l -0.19379,0.119889 -0.015,0.784449 c -0.008,0.431547 -0.015,1.880656 -0.015,3.219958 0,2.399753 4.5e-4,2.435774 0.045,2.492354 0.0412,0.05235 0.54799,0.359365 1.97818,1.197343 1.31939,0.77306 3.05028,1.769998 3.39152,1.953886 0.0995,0.05361 0.19714,0.09798 0.21704,0.09819 0.0417,4.35e-4 0.25296,-0.11272 1.15084,-0.616499 1.58533,-0.889484 3.57971,-2.040677 4.18631,-2.41639 l 0.28628,-0.17725 0.0186,-0.220659 c 0.0101,-0.121259 0.0187,-1.580965 0.0191,-3.24373 6e-4,-2.65849 -0.004,-3.027207 -0.0336,-3.055627 -0.0752,-0.07162 -4.2002,-2.484841 -5.43068,-3.177067 z m -0.0563,3.119706 c 1.34122,0 2.68281,0.01638 2.79466,0.04858 0.20947,0.0603 0.46731,0.318149 0.52762,0.527616 0.0644,0.223698 0.0644,5.364592 0,5.58829 -0.0528,0.183442 -0.31464,0.46028 -0.49765,0.526066 -0.10059,0.03615 -0.54889,0.04389 -2.74918,0.04858 -1.44597,0.0031 -2.68647,-0.0056 -2.75642,-0.01964 -0.20002,-0.04022 -0.32899,-0.114755 -0.46974,-0.271302 -0.22351,-0.248594 -0.21446,-0.11445 -0.21446,-3.077848 0,-2.211248 0.007,-2.668506 0.0434,-2.794145 0.0603,-0.209467 0.31815,-0.467312 0.52761,-0.527616 0.11185,-0.0322 1.45293,-0.04858 2.79415,-0.04858 z m 1.46968,0.831474 c -0.73459,0 -0.75742,0.0018 -0.8568,0.06821 -0.20954,0.139986 -0.20964,0.139822 -0.2005,1.449007 0.0109,1.565161 -0.0699,1.45587 1.07487,1.456759 0.68223,5.3e-4 0.7433,-0.0041 0.83405,-0.05943 0.0539,-0.03284 0.12478,-0.103754 0.15762,-0.157613 0.0569,-0.09329 0.0598,-0.153462 0.0599,-1.270207 10e-5,-1.078077 -0.004,-1.180195 -0.0548,-1.274341 -0.10697,-0.199446 -0.1679,-0.21239 -1.01441,-0.21239 z m -2.51975,0.0021 c -0.11136,1.06e-4 -0.25742,0.0019 -0.45113,0.0041 -0.72718,0.0083 -0.78814,0.01287 -0.86403,0.06873 -0.18126,0.133429 -0.17582,0.05787 -0.16692,2.29495 l 0.008,2.04277 0.0899,0.0956 c 0.0496,0.05237 0.11732,0.106128 0.15038,0.119889 0.0331,0.01376 0.3996,0.02635 0.81442,0.02739 0.73568,0.0019 0.75669,-1.35e-4 0.85628,-0.06666 0.21583,-0.144187 0.20722,-0.0495 0.20722,-2.260327 0,-2.21302 0.009,-2.11611 -0.20929,-2.261877 -0.0773,-0.05168 -0.10104,-0.06491 -0.43512,-0.0646 z" /></g></svg>
