<?xml version="1.0" encoding="UTF-8" standalone="no"?>
<!-- Created with Inkscape (http://www.inkscape.org/) -->

<svg
   width="43.232449"
   height="49.607765"
   viewBox="0 0 11.438585 13.125387"
   version="1.1"
   id="svg1"
   xml:space="preserve"
   inkscape:export-filename="MYSQLServer.svg"
   inkscape:export-xdpi="96"
   inkscape:export-ydpi="96"
   xmlns:inkscape="http://www.inkscape.org/namespaces/inkscape"
   xmlns:sodipodi="http://sodipodi.sourceforge.net/DTD/sodipodi-0.dtd"
   xmlns="http://www.w3.org/2000/svg"
   xmlns:svg="http://www.w3.org/2000/svg"><sodipodi:namedview
     id="namedview1"
     pagecolor="#ffffff"
     bordercolor="#000000"
     borderopacity="0.25"
     inkscape:showpageshadow="2"
     inkscape:pageopacity="0.0"
     inkscape:pagecheckerboard="0"
     inkscape:deskcolor="#d1d1d1"
     inkscape:document-units="mm" /><defs
     id="defs1" /><g
     inkscape:label="Layer 1"
     inkscape:groupmode="layer"
     id="layer1"
     transform="translate(-0.17370761,-0.09477717)"><path
       style="fill:#00fff2;fill-opacity:1;stroke:#ffffff;stroke-width:0"
       d="m 9.5238444,36.504388 c 0,-0.135804 0.020867,-0.135705 0.243068,0.0012 l 0.1767767,0.10888 -0.2099223,2.27e-4 c -0.1945148,2.09e-4 -0.2099224,-0.0079 -0.2099224,-0.110259 z"
       id="path11"
       transform="matrix(0.26458333,0,0,0.26458333,0.17370761,0.09477717)" /><path
       id="path29-5-1-4"
       style="fill:#43f7ff;fill-opacity:1;stroke:#ffffff;stroke-width:0"
       d="M 5.9511327,0.13611832 C 5.9350598,0.12995052 5.6346989,0.28527428 5.2834732,0.48131688 4.0562595,1.1663071 1.0529267,2.8914724 0.50547031,3.2258522 L 0.27137607,3.3689959 0.25690667,4.0351051 c -0.01883,0.8766241 -0.0239612,5.6700743 -0.006201,5.7774252 0.011226,0.067844 0.0340832,0.095982 0.12247315,0.1498616 C 1.2371107,10.48904 4.2331193,12.236523 5.474676,12.937921 c 0.2122288,0.119896 0.4038471,0.213873 0.4252971,0.208773 0.076074,-0.01822 2.8148101,-1.566886 4.1821739,-2.364714 1.088316,-0.635008 1.426408,-0.8410522 1.437638,-0.8764322 0.04485,-0.1414038 0.07568,-5.0627088 0.03824,-6.1045369 L 11.543556,3.3922503 10.84179,2.9736712 C 9.5373567,2.1946223 6.0649836,0.17980727 5.9511327,0.13611832 Z M 5.7806005,2.6925514 5.9144425,3.0351662 c 0.082542,0.21149 0.1987431,0.4641964 0.3033406,0.659908 l 0.1694987,0.3172933 0.2010214,0.037724 c 0.54018,0.1012582 1.2920499,0.2737333 1.5389241,0.35295 0.2076702,0.066631 0.3485001,0.1268399 0.5984131,0.2563151 0.3026081,0.1567767 0.3481992,0.1872332 0.6087484,0.4041097 0.2574884,0.2143286 0.2975289,0.2559411 0.4718058,0.4878256 0.1047898,0.1394299 0.190686,0.2664978 0.190686,0.28267 0,0.02425 -0.036273,0.034722 -0.2072225,0.058911 -0.296042,0.041888 -1.7989057,0.378599 -2.2164022,0.4966105 L 7.2208227,6.4892189 7.2104874,6.6990252 C 7.204825,6.8145132 7.1914888,7.2160171 7.1810318,7.5909604 7.1620431,8.2717044 7.1618249,8.2728623 7.1009334,8.5521421 7.0673948,8.7059656 6.9885584,8.9929372 6.9257503,9.1898293 6.8257465,9.5033209 6.7835838,9.6035775 6.5862361,9.9980487 L 6.3609268,10.448667 6.0157283,10.4466 C 5.7960978,10.4454 5.5741463,10.432827 5.4054296,10.411977 4.9022099,10.349789 4.465296,10.253187 4.0711441,10.116904 3.7578484,10.008581 3.6820383,9.9747166 3.4680802,9.8466367 3.1894163,9.6798214 3.0705012,9.5637343 2.9177262,9.3097186 L 2.830393,9.163991 2.8298762,8.9862241 C 2.8298439,8.8143535 2.8323073,8.8033328 2.9001562,8.6627296 2.9692422,8.5195723 2.984551,8.503392 3.8256811,7.6607236 L 4.6804093,6.8039284 4.8199356,6.5646665 C 4.9232987,6.3871804 4.9821404,6.2600657 5.0478287,6.0716733 5.1340396,5.824423 5.1368613,5.8092886 5.1578995,5.5099505 L 5.1796036,5.2024757 5.1082901,4.9875018 C 5.0402986,4.7821051 5.0271515,4.7586141 4.82562,4.4764219 4.6512143,4.2322119 4.5673525,4.1340097 4.3429622,3.9136655 L 4.0711441,3.6470151 V 3.5632993 3.4795835 L 4.3667333,3.283213 C 4.6568821,3.0904544 4.6699913,3.0841476 5.1139745,2.912693 5.3625338,2.8167033 5.6139832,2.7277401 5.6731135,2.7152891 Z M 5.6793147,2.8160581 c -0.061115,-0.0029 -0.2558774,0.068481 -0.5420858,0.1989543 -0.4601219,0.2097543 -0.4621668,0.2042615 0.1007691,0.289388 0.2379448,0.035981 0.4717952,0.067781 0.5198649,0.070797 0.04807,0.00295 0.098059,0.00654 0.1111043,0.00827 0.013046,0.00172 0.020442,-0.00656 0.01602,-0.018604 -0.00442,-0.012063 -0.045591,-0.1355169 -0.091467,-0.2749186 -0.045876,-0.1394017 -0.089537,-0.2598685 -0.096635,-0.2676839 -0.00315,-0.00347 -0.00884,-0.00579 -0.01757,-0.0062 z M 4.6654231,3.3317889 c 0,0.00665 0.1041255,0.1153284 0.2315104,0.2418457 0.2026954,0.2013236 0.2417353,0.2321939 0.3105754,0.2470133 0.1634389,0.035181 0.1837437,0.029533 0.4046264,-0.1121378 C 5.7260206,3.6354654 5.8154209,3.5697904 5.8110896,3.5627825 5.7878898,3.5252385 5.6404504,3.4913083 5.3909602,3.4661476 5.2046957,3.4473633 5.0365781,3.4183157 4.8881485,3.3788144 4.7655715,3.3461819 4.6654231,3.3251417 4.6654231,3.3317889 Z m -0.1317749,0.036174 c -0.042518,-0.010246 -0.081183,0.031262 -0.1488281,0.116272 -0.077638,0.097565 -0.08786,0.1185034 -0.067179,0.1384928 0.031429,0.030368 0.3721038,0.1267464 0.4563029,0.1291911 L 4.83854,3.7539888 4.7062475,3.561749 C 4.6227007,3.4403075 4.5761665,3.3782081 4.5336482,3.3679629 Z m 1.4329875,0.2459798 c -0.00523,0 -0.067916,0.043027 -0.1390096,0.095601 -0.1094255,0.080923 -0.1658814,0.1395413 -0.1658814,0.1715658 0,0.00394 0.066719,0.016802 0.1483114,0.028939 0.081593,0.012187 0.1822565,0.032673 0.2232422,0.045475 0.081387,0.025419 0.1178222,0.030558 0.1178222,0.016536 0,-0.017984 -0.1752097,-0.3581177 -0.1844848,-0.3581168 z M 4.5930761,3.8790423 c -0.026602,-0.00422 -0.034059,8.676e-4 -0.029456,0.013953 0.0032,0.00911 0.082955,0.1035469 0.1772502,0.2098064 0.1569477,0.1768547 0.2216919,0.2269829 0.2216919,0.1720825 0,-0.011448 -0.021056,-0.086143 -0.047026,-0.1658814 L 4.8679947,3.9643084 4.7362198,3.9203835 C 4.6653441,3.8967799 4.6196779,3.8832629 4.5930761,3.8790423 Z m 0.5141805,0.1317749 c -0.014814,-6.791e-4 -0.023572,-1.977e-4 -0.025322,0.00155 -0.010709,0.010709 0.028502,0.1895191 0.1095541,0.4981608 0.019569,0.07451 0.013324,0.075955 0.164331,-0.037207 0.1880743,-0.1409405 0.4108277,-0.3227751 0.4108277,-0.3353801 0,-0.018957 -0.123649,-0.047656 -0.4103109,-0.095085 C 5.2483605,4.0249924 5.1516971,4.0128545 5.1072566,4.0108172 Z M 6.185227,4.2123553 c -0.020378,0.0012 -0.016288,0.01061 -0.01602,0.024805 3.361e-4,0.017898 0.012087,0.083757 0.025838,0.1462443 0.013746,0.062496 0.024984,0.197924 0.025322,0.3012736 3.961e-4,0.1195993 0.0074,0.1881022 0.01912,0.1881022 0.010131,0 0.1734083,-0.092023 0.3627686,-0.2041219 0.18936,-0.1121032 0.3549806,-0.2130323 0.3679364,-0.2247928 0.017632,-0.016002 0.019101,-0.030292 0.00517,-0.056327 C 6.9599466,4.3587344 6.8998573,4.3419879 6.628094,4.2898699 6.3218551,4.2311306 6.219191,4.2103504 6.185227,4.2123553 Z m -0.2402954,0.013436 c -0.019709,0 -0.548813,0.4738636 -0.539502,0.4831746 0.013882,0.013885 0.559742,0.1772086 0.5994466,0.1793172 0.034307,0.00185 0.037811,-0.00982 0.049093,-0.1539957 C 6.0652198,4.5904455 6.0623069,4.5646609 6.0121109,4.4020078 5.982198,4.3050699 5.9518566,4.2257912 5.9449316,4.2257913 Z m 1.4924153,0.2428792 c -0.00431,0.00702 -0.03642,0.1260187 -0.071313,0.2645833 -0.034895,0.1385635 -0.078572,0.2949192 -0.097152,0.3477824 -0.018581,0.05287 -0.034107,0.1025374 -0.034107,0.1100708 0,0.030639 0.1122524,0.010689 0.206189,-0.03669 C 7.4959927,5.1266341 7.7455129,5.0477705 7.9954524,4.9792336 8.2453916,4.910694 8.4645631,4.848284 8.4827612,4.8407407 8.5075352,4.8305238 8.4485711,4.8023735 8.2471166,4.7291196 7.8386964,4.5806212 7.4461101,4.454491 7.4373469,4.4686705 Z m -0.210323,0.048059 c -0.035531,0.00492 -0.1560249,0.071334 -0.4118612,0.225826 -0.2217871,0.1339289 -0.404216,0.2513522 -0.4051432,0.260966 -0.00149,0.015399 0.4530943,0.2901262 0.4754231,0.2873209 0.0048,-6.032e-4 0.050497,-0.052042 0.1018026,-0.1142049 0.082906,-0.1004458 0.1032633,-0.1423824 0.1813843,-0.3762044 0.063735,-0.190762 0.082621,-0.2682619 0.06873,-0.2821533 -0.00174,-0.00174 -0.00526,-0.00225 -0.010336,-0.00155 z M 5.3429011,4.9435768 c -0.00721,-4.246e-4 -0.013436,0.144603 -0.013436,0.3224609 v 0.3234945 h 0.039791 c 0.027444,0 0.1085096,-0.069412 0.2640666,-0.2253092 C 5.7878022,5.2093999 5.8556512,5.1294805 5.8513972,5.1073911 5.846535,5.0821196 5.79345,5.061435 5.6007665,5.0097226 5.4662088,4.9736065 5.3501115,4.9440077 5.3429011,4.9435768 Z m 3.4587036,0.034107 c -0.00459,0 -0.067718,0.1132448 -0.1405599,0.2516642 -0.1311976,0.249311 -0.1977637,0.3359795 -0.5927286,0.7751465 -0.023963,0.02665 -0.027634,0.039274 -0.011886,0.039274 0.012785,0 0.1928845,-0.035612 0.4004923,-0.079065 C 8.66453,5.9212382 9.0344294,5.8589929 9.2785782,5.8262103 9.5635714,5.7879399 9.7307068,5.7580414 9.7462499,5.7424945 9.7842347,5.7045073 9.3727175,5.3431977 9.0584366,5.1389137 8.9219391,5.0501867 8.8062038,4.9776833 8.8016047,4.9776838 Z m -0.2511474,0.020671 c -0.034868,-0.00447 -0.1240398,0.022623 -0.4010091,0.1116211 -0.2987689,0.096002 -0.8596479,0.3139452 -0.892452,0.3467489 -0.00507,0.00505 0.094411,0.1181021 0.2206584,0.2516642 0.1262477,0.133567 0.2294433,0.2560336 0.2294433,0.271818 0,0.019708 0.015046,0.028582 0.048059,0.028422 C 7.795268,6.0084398 7.8341082,5.9709516 7.9908015,5.7833188 8.2685397,5.4507487 8.5843774,5.0320706 8.5721614,5.0123065 8.5676469,5.0050008 8.5620801,4.999844 8.5504573,4.9983548 Z M 6.1924617,5.2453672 c -0.00487,0.00492 -0.046564,0.1295458 -0.092501,0.2769857 -0.045935,0.147441 -0.089439,0.281865 -0.096635,0.2986897 -0.0072,0.016827 -0.00678,0.030489 0.00103,0.030489 0.00782,0 0.1090018,-0.052373 0.2247924,-0.1162719 0.1157908,-0.063911 0.2529234,-0.1475568 0.304891,-0.1860352 0.089079,-0.065955 0.092895,-0.071487 0.061495,-0.094568 C 6.5328849,5.4086068 6.2013475,5.2364822 6.1924617,5.2453672 Z m -0.2253093,0.066663 c -0.00655,-0.00652 -0.1735357,0.139263 -0.4495849,0.3927409 -0.05528,0.050765 -0.1006005,0.098748 -0.1007691,0.1064534 -1.682e-4,0.00776 0.05276,0.062538 0.1178223,0.1219564 l 0.118339,0.1080037 0.031006,-0.037724 C 5.7008976,5.9824975 5.7459071,5.9090958 5.7842179,5.8406797 5.8470468,5.7284784 5.9849889,5.3298663 5.9671524,5.3120302 Z M 6.9918961,5.6634295 C 6.9851997,5.6608445 6.8650347,5.8025103 6.7247289,5.978139 6.5844232,6.1537663 6.444716,6.3158564 6.4141536,6.3383237 6.3580948,6.3795361 6.2560237,6.5227052 6.2560237,6.5605324 c 0,0.019486 1.2503228,-0.3646883 1.2815755,-0.3937744 C 7.5786589,6.1285492 7.5160271,6.0597959 7.2668147,5.8691017 7.1223309,5.7585375 6.9985861,5.6660059 6.9918961,5.6634295 Z m -0.4206462,0.118339 c -0.016667,0 -0.6449304,0.3326188 -0.7467244,0.3953248 l -0.038241,0.023254 0.060461,0.179834 c 0.077985,0.2325307 0.074076,0.2230312 0.089917,0.2216919 0.00751,-6.315e-4 0.094255,-0.09305 0.1927531,-0.2056722 C 6.3159263,6.1829523 6.6043202,5.7817685 6.5712499,5.7817685 Z M 5.2700374,6.0437681 c -0.00965,0 -0.2025717,0.3745446 -0.2025717,0.3932576 0,0.036879 0.09661,-0.010509 0.2366781,-0.1157552 C 5.3952356,6.2528049 5.4696223,6.1919173 5.4695084,6.1858782 5.469281,6.1739381 5.2865428,6.0437681 5.2700374,6.0437681 Z m 0.3477824,0.3669026 c -0.00384,0 -0.044199,0.041514 -0.0894,0.091984 -0.045199,0.050469 -0.1878603,0.1961106 -0.3172933,0.3234944 -0.1687874,0.1661171 -0.2472033,0.2315105 -0.2769856,0.2315105 -0.02987,0 -0.041341,0.010031 -0.041341,0.03514 0,0.023302 0.01132,0.034623 0.034623,0.034623 0.019228,0 0.03514,-0.00962 0.03514,-0.021704 0,-0.012063 0.049467,-0.040728 0.109554,-0.063562 C 5.3215737,6.9473858 5.7656859,6.7333107 5.7661311,6.7078102 5.766587,6.6818122 5.6312636,6.4106707 5.6178198,6.4106707 Z m 1.372526,0.1922364 -0.074414,0.00155 c -0.040859,6.02e-4 -0.1644322,0.029882 -0.2749186,0.065629 -0.2097658,0.067875 -0.2440276,0.09655 -0.1803507,0.1503784 0.1394448,0.117876 0.4586899,0.340081 0.4904093,0.3410645 0.039199,0.00123 0.039274,2.095e-4 0.039274,-0.278536 z M 5.1336116,6.629262 c -0.00732,-9.893e-4 -0.024612,0.00615 -0.044442,0.01912 -0.026439,0.017344 -0.093228,0.05833 -0.1488281,0.091467 -0.0695,0.041434 -0.1336825,0.1017793 -0.2051554,0.1932699 -0.1474943,0.188806 -0.1432138,0.1943764 0.046509,0.060978 0.1043602,-0.073377 0.3555338,-0.3286176 0.3555338,-0.3612182 0,-0.00222 -0.00118,-0.00329 -0.00362,-0.00362 z M 6.204864,6.8142637 c -0.00513,4.636e-4 -0.00997,0.00157 -0.014469,0.00362 -0.051289,0.023364 -0.050991,0.022948 -0.074931,0.4578532 -0.015583,0.2830834 -0.027563,0.3855085 -0.053227,0.4506185 -0.018274,0.046358 -0.033073,0.088512 -0.033073,0.093534 0,0.010463 6.886e-4,0.00988 0.1152384,-0.066663 C 6.1917228,7.7216136 6.3853359,7.612841 6.5748673,7.5118955 6.7643986,7.410945 6.9176224,7.3228465 6.915415,7.3160418 6.9132116,7.3092715 6.7584771,7.1905928 6.5712499,7.0519752 6.304408,6.8544133 6.2407425,6.8110185 6.204864,6.8142637 Z M 5.933046,6.9351865 c -0.072081,0 -0.5335412,0.2102 -0.5333008,0.2428792 3.774e-4,0.050543 0.1101595,0.2257496 0.2532145,0.4041097 0.076911,0.095891 0.1486361,0.1745519 0.1591634,0.1746664 0.010525,1.182e-4 0.030859,-0.013662 0.045475,-0.030489 C 5.8996306,7.6779639 5.9772603,7.2636925 5.976971,7.0881488 5.9767238,6.9371244 5.9757739,6.9351865 5.933046,6.9351865 Z M 5.2033748,7.232326 c -0.042256,0 -0.048576,0.00691 -0.048576,0.05271 0,0.032448 -0.087107,0.2265667 -0.2273763,0.5069458 C 4.8024414,8.0418024 4.700563,8.2510713 4.700563,8.2570697 c 0,0.015055 0.034293,0.00622 0.3932576,-0.098702 0.2754114,-0.080468 0.620634,-0.2221458 0.620634,-0.2547648 0,-0.00554 -0.066986,-0.084046 -0.1488281,-0.1746664 C 5.4549467,7.6063946 5.3953912,7.5215599 5.3341161,7.3982073 5.259694,7.2483881 5.2471852,7.232326 5.2033748,7.232326 Z M 4.8953832,7.3697853 C 4.8577227,7.3646524 4.7606959,7.4101206 4.5894587,7.4922585 L 4.2985204,7.6317848 v 0.1829346 c 0,0.1524203 0.00745,0.2026662 0.044442,0.3028239 0.024394,0.066041 0.047948,0.1310685 0.05271,0.144694 0.011116,0.031796 0.017006,0.024864 0.133842,-0.1643311 C 4.5829474,8.0113822 4.6950664,7.8194783 4.7785948,7.6715757 4.894184,7.4669024 4.9438042,7.3763847 4.8953832,7.3697853 Z m 2.0737753,0.078031 c -0.00277,5.75e-5 -0.00577,7.392e-4 -0.0093,0.00207 -0.049563,0.018637 -0.8152002,0.4500845 -0.8418091,0.4743896 -0.037401,0.034159 0.1772698,0.1640165 0.4749064,0.287321 0.2764669,0.1145402 0.3395642,0.1261862 0.3524333,0.065112 0.026511,-0.1258071 0.044958,-0.3647546 0.044958,-0.585494 0,-0.2040955 -0.00181,-0.2437982 -0.021187,-0.243396 z M 4.0267024,7.7919818 c -0.024474,0 -0.168779,0.068474 -0.3203939,0.1524454 C 3.4943882,8.0617985 3.4188716,8.1131864 3.3786799,8.1671527 3.330453,8.2319136 3.0572525,8.7202972 3.0572525,8.7417946 c 0,0.00517 0.041511,-0.00254 0.091984,-0.01757 0.050473,-0.015018 0.3023729,-0.089 0.5601725,-0.1638143 0.2577996,-0.074817 0.4719516,-0.1386389 0.4754232,-0.1421102 0.00347,-0.00345 -0.020803,-0.083743 -0.053744,-0.1782837 -0.048657,-0.139654 -0.059945,-0.1977784 -0.059945,-0.3100586 0,-0.1364227 -5.166e-4,-0.137976 -0.044442,-0.137976 z m 1.9497518,0.2971394 c -0.010512,0 -0.027973,0.025603 -0.038757,0.056844 -0.010783,0.031242 -0.1088189,0.235519 -0.2175578,0.4542359 -0.1264888,0.2544182 -0.1890744,0.3979085 -0.1736328,0.3979085 0.013275,0 0.078287,-0.022209 0.1441772,-0.049093 0.3261167,-0.1330747 1.124996,-0.4834568 1.124996,-0.4935099 0,-0.00628 -0.092708,-0.045248 -0.2056722,-0.0863 C 6.497044,8.3281553 6.3127821,8.2485012 6.2002131,8.1919573 6.0876438,8.1354074 5.986963,8.0891212 5.9764542,8.0891212 Z m -0.2666504,0.059428 c -0.012309,-0.01231 -1.1492839,0.3695787 -1.1492839,0.386023 0,0.073968 0.5511967,0.4987258 0.6464722,0.4981608 0.037183,-2.18e-4 0.062602,-0.03149 0.1663981,-0.204122 C 5.4815737,8.6486851 5.7227233,8.1614692 5.7098038,8.1485492 Z M 6.8952612,8.5474913 C 6.8893812,8.5415813 6.6662243,8.6435483 6.3996842,8.7743508 6.1331441,8.9051518 5.8307235,9.0450935 5.7273738,9.085443 5.5647081,9.148948 5.5392716,9.164554 5.5392716,9.1991311 c 0,0.08048 0.4156799,0.2053227 0.9002034,0.2702678 0.1468214,0.019683 0.149462,0.01857 0.2025716,-0.07183 0.049662,-0.084529 0.2720943,-0.8311969 0.2532146,-0.8500776 z m -2.7698568,0.093018 c -0.012273,-0.00763 -0.8252419,0.1756108 -1.0113078,0.227893 -0.051975,0.014611 -0.050031,0.031177 0.022221,0.1999878 0.049644,0.1159804 0.090241,0.1749689 0.2118733,0.3074748 0.082769,0.090167 0.1602298,0.1638143 0.1720826,0.1638143 0.011854,0 0.084418,-0.088214 0.1612304,-0.1963704 C 3.986646,8.9136423 4.1409074,8.686726 4.1409074,8.6689313 c 0,-0.010217 -0.00686,-0.023079 -0.015503,-0.028422 z m 0.2583821,0.046509 c -0.024645,0.00849 -0.6792017,0.8427679 -0.679545,0.866097 -1.78e-4,0.012063 0.00842,0.021704 0.01912,0.021704 0.010697,0 0.2211997,-0.063788 0.4676718,-0.1415935 C 4.715655,9.2676227 4.9486209,9.1893547 4.968247,9.1722593 4.9760143,9.1654891 4.9197673,9.1276018 4.8437068,9.0880267 4.7301465,9.0289409 4.6782749,8.9865709 4.5522517,8.8492816 4.4678429,8.7573294 4.391832,8.6842393 4.3837865,8.6870183 Z m 0.9585979,0.6361368 -0.041858,0.05116 C 5.2774045,9.4027121 5.1514558,9.5676487 5.0204402,9.7407 c -0.1310157,0.1730498 -0.246074,0.324396 -0.2552816,0.336414 -0.024996,0.03262 7.433e-4,0.02899 0.3198771,-0.04651 C 5.356977,9.9662366 6.3731258,9.6732073 6.3929662,9.6533669 6.4158115,9.6305204 6.3497482,9.6107701 6.0725724,9.5582822 5.8345067,9.5132048 5.7323033,9.4843081 5.5589086,9.4125547 Z m -0.296106,0.050126 c -0.00277,-0.00271 -0.28399,0.063229 -0.6252848,0.1467611 -0.6005477,0.1469806 -0.6208375,0.1533047 -0.6258016,0.1953369 -0.00467,0.039477 0.013643,0.05245 0.2010213,0.1436605 0.2796003,0.1361078 0.4163259,0.1851074 0.5224487,0.1865524 l 0.0894,0.001 0.2216919,-0.3343475 C 4.9515951,9.5283786 5.0490499,9.3759998 5.0462784,9.3732811 Z m 1.4717448,0.3436483 c -0.039497,0.00473 -0.15738,0.044171 -0.4681885,0.1539957 -0.2687399,0.09494 -0.5408851,0.1786699 -0.6945312,0.2129079 -0.2299426,0.05123 -0.2526978,0.05971 -0.2526978,0.09405 0,0.03615 0.018638,0.04 0.4413168,0.0956 0.4673713,0.06147 0.7312156,0.08626 0.7493082,0.0708 0.00603,-0.0052 0.062942,-0.145289 0.1266073,-0.311609 0.063665,-0.1663218 0.1157552,-0.3057324 0.1157552,-0.3100592 0,-0.0049 -0.0044,-0.00726 -0.01757,-0.00568 z" /></g></svg>
