<?xml version="1.0" encoding="UTF-8" standalone="no"?>
<!-- Created with Inkscape (http://www.inkscape.org/) -->

<svg
   width="43.022518"
   height="49.442574"
   viewBox="0 0 11.383041 13.081681"
   version="1.1"
   id="svg1"
   xml:space="preserve"
   xmlns:inkscape="http://www.inkscape.org/namespaces/inkscape"
   xmlns:sodipodi="http://sodipodi.sourceforge.net/DTD/sodipodi-0.dtd"
   xmlns="http://www.w3.org/2000/svg"
   xmlns:svg="http://www.w3.org/2000/svg"><sodipodi:namedview
     id="namedview1"
     pagecolor="#ffffff"
     bordercolor="#000000"
     borderopacity="0.25"
     inkscape:showpageshadow="2"
     inkscape:pageopacity="0.0"
     inkscape:pagecheckerboard="0"
     inkscape:deskcolor="#d1d1d1"
     inkscape:document-units="mm" /><defs
     id="defs1" /><g
     inkscape:label="Layer 1"
     inkscape:groupmode="layer"
     id="layer1"
     transform="translate(-0.08465065,-0.07928744)"><path
       style="fill:#00fff2;fill-opacity:1;stroke:#ffffff;stroke-width:0"
       d="M 5.3494987,12.90607 C 4.4612207,12.420331 2.5340957,11.332053 0.8827567,10.383629 L 0.1344017,9.9538216 0.1194857,9.6036666 C 0.1112857,9.4110817 0.0966487,7.938045 0.0869687,6.3302517 L 0.0693677,3.4069912 1.0957927,2.7950658 c 1.551283,-0.9248295 3.53795,-2.09061315 4.293234,-2.51928455 l 0.320161,-0.1817118 0.930994,0.5197555 c 1.674201,0.93467295 3.8911563,2.19416865 4.5131013,2.56398075 0.11798,0.070152 0.221055,0.1446072 0.229056,0.1654556 0.0164,0.042726 0.05757,3.8887693 0.05858,5.4711326 l 6.62e-4,1.0342049 -1.245309,0.7452292 c -1.9974703,1.195343 -4.2720223,2.522192 -4.3632943,2.545308 -0.02152,0.0054 -0.239087,-0.09943 -0.483472,-0.233066 z m 2.25091,-2.429952 c 0.03634,-0.02977 0.04186,-0.5327164 0.0058,-0.5327164 -0.01286,0 -0.02339,-0.02043 -0.02339,-0.04539 0,-0.024966 0.01052,-0.051896 0.02339,-0.059845 0.01501,-0.00927 0.02339,-0.3759425 0.02339,-1.0232416 V 7.8061345 l -0.06431,-0.069199 c -0.04447,-0.047853 -0.05169,-0.064706 -0.02339,-0.054632 0.02251,0.00801 0.04093,0.00737 0.04093,-0.00143 0,-0.026762 -0.218597,-0.2397765 -0.24606,-0.2397765 -0.01411,0 -0.07562,-0.05788 -0.136697,-0.1286235 -0.06358,-0.073647 -0.130461,-0.1286234 -0.15647,-0.1286234 -0.02498,0 -0.04543,-0.014647 -0.04543,-0.03255 0,-0.050439 -0.208273,-0.2700256 -0.271059,-0.2857839 -0.03081,-0.00773 -0.05054,-0.022934 -0.04384,-0.033779 0.0067,-0.010845 -0.01179,-0.032329 -0.04109,-0.047743 C 6.6128827,6.7685798 6.2574117,6.4284163 5.8522477,6.0280734 5.4470837,5.6277302 4.9945627,5.1843486 4.8466467,5.0427812 4.6987297,4.9012138 4.3634387,4.5765208 4.1015567,4.321241 l -0.47615,-0.4641448 -0.155275,0.015338 c -0.0917,0.00906 -0.175828,0.031817 -0.205472,0.055584 -0.02761,0.022135 -0.259131,0.1970643 -0.514494,0.3887308 -0.255362,0.1916666 -0.478887,0.3618593 -0.496722,0.378206 -0.02707,0.024813 0.02467,0.094717 0.313252,0.4232564 0.190123,0.2164442 0.3804,0.4303678 0.422838,0.4753861 0.190743,0.2023393 0.406156,0.458439 0.406642,0.4834477 2.91e-4,0.015081 0.0515,0.072961 0.113793,0.1286232 0.06229,0.055663 0.385326,0.4274405 0.717853,0.8261731 0.65263,0.7825703 0.94347,1.1225086 1.237639,1.446574 0.103403,0.1139113 0.185741,0.2154197 0.182972,0.2255744 -0.0028,0.010155 0.04722,0.06734 0.111084,0.1270778 0.06386,0.059738 0.116117,0.1236628 0.116117,0.1420559 0,0.018394 0.03121,0.05652 0.06937,0.084726 0.03815,0.028207 0.117068,0.1127115 0.175371,0.1877888 0.0583,0.075077 0.121801,0.1365041 0.141108,0.1365041 0.01931,0 0.0351,0.012113 0.0351,0.026918 0,0.033685 0.314298,0.4207817 0.442458,0.5449407 0.05248,0.05084 0.09554,0.1034638 0.09568,0.1169318 3.7e-4,0.03566 0.302652,0.363584 0.335151,0.363584 0.01513,0 0.04137,0.02219 0.05831,0.04931 0.0282,0.04516 0.04391,0.04792 0.186868,0.03278 0.08584,-0.0091 0.16923,-0.02731 0.185308,-0.04048 z m 0.311344,-0.216535 c 0.0297,0.0094 0.05042,0.0017 0.0596,-0.02224 0.0077,-0.02018 0.02383,-0.03669 0.03574,-0.03669 0.04509,0 0.512245,-0.3306964 0.56176,-0.3976693 0.03087,-0.041758 0.07307,-0.070053 0.104479,-0.070053 0.02898,0 0.05929,-0.010684 0.06736,-0.023741 0.0081,-0.013057 0.05069,-0.038787 0.0947,-0.057179 0.04402,-0.018391 0.107118,-0.060527 0.140228,-0.093637 0.03311,-0.033109 0.06852,-0.055055 0.07869,-0.048768 0.01017,0.00629 0.05948,-0.022614 0.109574,-0.064224 0.05009,-0.04161 0.130543,-0.09374 0.178776,-0.1158428 0.06136,-0.028121 0.0877,-0.055164 0.0877,-0.090064 0,-0.040394 0.01095,-0.047783 0.05761,-0.038864 0.04667,0.00892 0.06895,-0.00613 0.117359,-0.079271 l 0.05975,-0.090285 -0.0061,-1.6894981 c -0.0033,-0.9292238 -0.0091,-2.028965 -0.01275,-2.4438692 l -0.0067,-0.7543713 -0.519706,-0.3461271 c -0.68029,-0.453078 -0.875324,-0.5725932 -0.904737,-0.554415 -0.01333,0.00823 -0.02423,-0.00119 -0.02423,-0.020966 0,-0.019764 -0.11051,-0.110081 -0.245579,-0.2007021 l -0.245579,-0.1647656 -3.97e-4,3.2687453 c -2.23e-4,1.7978099 -0.0064,3.4822992 -0.01379,3.7433096 -0.0074,0.2610106 -0.0064,0.4925326 0.0021,0.5144946 0.01299,0.03361 0.02834,0.02588 0.09703,-0.04891 0.05972,-0.06502 0.0938,-0.08497 0.127119,-0.07439 z M 4.2999947,8.739601 c 0.384292,-0.3662564 0.698712,-0.675246 0.698712,-0.6866437 0,-0.032722 -1.140072,-1.3855584 -1.161585,-1.3783644 -0.01061,0.00355 -0.153495,0.1660213 -0.317523,0.3610528 -0.164029,0.1950313 -0.516601,0.6126784 -0.783495,0.9281044 -0.266894,0.3154264 -0.485261,0.5792364 -0.485261,0.5862447 0,0.016661 0.904195,0.6964235 1.045873,0.7862728 0.07611,0.048265 0.138806,0.069254 0.206884,0.069254 0.09601,0 0.109666,-0.011419 0.796395,-0.6659206 z M 2.7048467,7.9188699 3.2096717,7.3208896 V 6.6210098 5.92113 L 3.1322917,5.833365 C 2.7586587,5.4096033 2.2575887,4.8460112 2.2127327,4.7990672 l -0.05529,-0.057861 -0.152082,0.1507299 -0.152082,0.1507303 v 1.5679078 c 0,1.7784649 -0.0146,1.6454393 0.19895,1.8124993 0.06422,0.050238 0.123744,0.09189 0.132277,0.09256 0.0085,6.614e-4 0.242687,-0.2678737 0.520341,-0.5967636 z m 4.394394,-1.8575581 0.527737,-0.502801 0.0013,-1.3481237 0.0013,-1.3481238 -0.08267,-0.072581 c -0.06557,-0.057586 -0.103838,-0.072581 -0.185216,-0.072581 h -0.102568 l -0.416959,0.4715454 c -0.229326,0.2593504 -0.715996,0.8187172 -1.081487,1.2430382 l -0.664529,0.7714919 0.704781,0.6995469 c 0.512112,0.5083096 0.713766,0.694331 0.737652,0.6804673 0.01808,-0.010493 0.270353,-0.2453393 0.560608,-0.5218797 z"
       id="path57085" /><path
       style="fill:#00fff2;fill-opacity:0.580053;stroke:#ffffff;stroke-width:0"
       d="m 28.819382,24.815029 c 0.03439,-7.766022 0.07452,-14.133916 0.08918,-14.150877 0.03588,-0.04153 1.165021,0.751768 1.497033,1.051773 0.14584,0.131782 0.419794,0.31114 0.608785,0.398575 0.188991,0.08744 1.40595,0.862415 2.704354,1.722177 l 2.360733,1.563204 0.05123,9.182234 0.05123,9.182234 -0.215675,0.331456 c -0.153746,0.236282 -0.278764,0.331456 -0.435391,0.331456 -0.133119,0 -0.219717,0.05057 -0.219717,0.1283 0,0.120185 -1.068715,0.887699 -1.458363,1.047345 -0.0972,0.03983 -0.256301,0.145673 -0.353553,0.235215 -0.09725,0.08954 -0.435358,0.294382 -0.751346,0.455201 -0.315989,0.160818 -0.733624,0.434554 -0.928078,0.608301 -0.480866,0.42966 -2.105606,1.503114 -2.275057,1.503114 -0.07531,0 -0.264664,0.119324 -0.420788,0.265165 -0.156123,0.145841 -0.302591,0.265165 -0.325486,0.265165 -0.02289,0 -0.01349,-6.354017 0.02091,-14.120038 z"
       id="path57086"
       transform="matrix(0.26458333,0,0,0.26458333,0.08465065,0.07928744)" /><path
       style="fill:#00fff2;fill-opacity:0.314961;stroke:#ffffff;stroke-width:0"
       d="m 21.633317,21.934905 -2.612887,-2.592862 1.710387,-1.981235 c 0.940712,-1.08968 2.762562,-3.184422 4.048555,-4.654983 l 2.338169,-2.673748 h 0.381416 c 0.300586,0 0.447626,0.05813 0.69385,0.274322 l 0.312435,0.274321 v 5.01637 5.01637 l -0.905981,0.882941 c -1.502022,1.463824 -3.196741,3.031365 -3.277305,3.031365 -0.04166,0 -1.251552,-1.166788 -2.688639,-2.592861 z"
       id="path57087"
       transform="matrix(0.26458333,0,0,0.26458333,0.08465065,0.07928744)" /><path
       style="fill:#00fff2;fill-opacity:0.414698;stroke:#ffffff;stroke-width:0"
       d="m 26.62158,38.916902 c -0.331117,-0.305997 -0.828301,-0.842827 -1.104854,-1.192953 -0.828374,-1.048752 -1.837984,-2.227848 -2.694042,-3.146298 -0.443982,-0.476341 -0.86842,-0.956843 -0.943196,-1.06778 -0.143819,-0.213373 -0.218973,-0.301297 -2.275684,-2.662338 -0.719907,-0.826431 -2.229144,-2.597845 -3.353861,-3.936475 -1.124716,-1.33863 -2.39717,-2.826491 -2.827674,-3.306359 -0.430505,-0.479868 -0.935534,-1.070729 -1.122288,-1.313025 -0.186754,-0.242296 -0.98235,-1.160807 -1.767992,-2.041136 -2.0113719,-2.253785 -2.2936585,-2.598647 -2.2405046,-2.737164 0.025784,-0.06719 0.9160892,-0.776819 1.9784556,-1.576948 1.930021,-1.45361 2.145615,-1.57332 2.833499,-1.57332 0.330418,0 0.859829,0.498054 8.643709,8.131728 1.363179,1.336874 2.712561,2.629554 2.998627,2.872622 0.286066,0.243068 0.690699,0.620928 0.899184,0.839689 0.489427,0.513551 0.597021,0.617074 1.180904,1.136232 1.298593,1.154639 1.420353,1.280221 1.308362,1.349435 -0.08316,0.0514 -0.04981,0.134156 0.129501,0.321316 l 0.241516,0.252088 -0.0052,2.735202 c -0.0029,1.504361 -0.03813,3.292049 -0.0784,3.972639 -0.04744,0.80182 -0.04124,1.361931 0.01763,1.591083 0.05375,0.209252 0.06485,0.631059 0.02718,1.033083 -0.07064,0.753812 -9.31e-4,0.689366 -0.889303,0.822181 -0.338387,0.05059 -0.379377,0.02899 -0.955584,-0.503502 z"
       id="path57088"
       transform="matrix(0.26458333,0,0,0.26458333,0.08465065,0.07928744)" /><path
       style="fill:#00fff2;fill-opacity:0.301837;stroke:#ffffff;stroke-width:0"
       d="M 12.374369,35.047378 C 12.040312,34.881804 8.7530264,32.466585 8.41652,32.139487 8.2665679,31.993727 8.3116494,31.924208 9.4008069,30.621637 11.99885,27.514523 14.060201,25.114124 14.158122,25.081845 c 0.121089,-0.03992 3.97422,4.426927 4.301092,4.986154 0.0605,0.103513 -4.035039,4.110126 -4.921637,4.814768 -0.486268,0.386473 -0.664659,0.411717 -1.163208,0.164611 z"
       id="path57089"
       transform="matrix(0.26458333,0,0,0.26458333,0.08465065,0.07928744)" /><path
       style="fill:#00fff2;fill-opacity:0.154856;stroke:#ffffff;stroke-width:0"
       d="M 7.4389263,31.463421 C 7.2140514,31.291716 6.9796268,31.063011 6.9179828,30.955188 6.8311887,30.803374 6.8002729,29.40316 6.7809482,24.748737 L 6.7559937,18.73833 7.2943344,18.208 7.8326751,17.677669 8.0707269,17.942835 c 0.1309286,0.14584 1.0235417,1.146517 1.9835851,2.223725 l 1.745532,1.958561 v 2.587751 2.587751 l -0.372743,0.447629 c -1.375211,1.6515 -3.4428843,4.027359 -3.504948,4.027359 -0.0409,0 -0.2583519,-0.140485 -0.4832267,-0.31219 z"
       id="path57090"
       transform="matrix(0.26458333,0,0,0.26458333,0.08465065,0.07928744)" /></g></svg>
