<?xml version="1.0" encoding="UTF-8" standalone="no"?>
<!-- Created with Inkscape (http://www.inkscape.org/) -->

<svg
   width="43.232449"
   height="49.607765"
   viewBox="0 0 11.438585 13.125387"
   version="1.1"
   id="svg1"
   xml:space="preserve"
   xmlns:inkscape="http://www.inkscape.org/namespaces/inkscape"
   xmlns:sodipodi="http://sodipodi.sourceforge.net/DTD/sodipodi-0.dtd"
   xmlns="http://www.w3.org/2000/svg"
   xmlns:svg="http://www.w3.org/2000/svg"><sodipodi:namedview
     id="namedview1"
     pagecolor="#ffffff"
     bordercolor="#000000"
     borderopacity="0.25"
     inkscape:showpageshadow="2"
     inkscape:pageopacity="0.0"
     inkscape:pagecheckerboard="0"
     inkscape:deskcolor="#d1d1d1"
     inkscape:document-units="mm" /><defs
     id="defs1" /><g
     inkscape:label="Layer 1"
     inkscape:groupmode="layer"
     id="layer1"
     transform="translate(-0.17370761,-0.09477717)"><path
       id="path1"
       style="fill:#00fff2;fill-opacity:1;stroke:#ffffff;stroke-width:0"
       d="m 0.39998939,-5.2724562 c -0.029401,0.00184 -2.44414559,1.5909251 -2.46868939,1.6072159 -0.024544,0.016291 -2.4267603,1.624349 -2.4398705,1.6507293 -0.01311,0.02638 0.1558392,2.91254728 0.1576756,2.94194832 0.00184,0.029401 0.1932158,2.91368928 0.2095067,2.93823318 0.016291,0.024544 2.6004231,1.3211341 2.6268033,1.3342443 0.02638,0.01311 2.6199761,1.2893403 2.6493771,1.2875039 0.029401,-0.00184 2.4441456,-1.5909251 2.4686895,-1.607216 C 3.6280255,4.8639119 6.0302419,3.2558537 6.0433521,3.2294735 6.0564623,3.2030933 5.8875378,0.3173894 5.8857014,0.28798836 5.8838651,0.25858732 5.6924607,-2.6261641 5.6761699,-2.650708 5.659879,-2.6752519 3.0757717,-3.9713789 3.0493914,-3.9844891 3.0230112,-3.9975992 0.42939043,-5.2742926 0.39998939,-5.2724562 Z m -3.50809439,3.6174938 1.4234815,-0.076517 c 1.08395805,-0.058187 1.43588835,-0.06797 1.4751129,-0.040734 0.0283354,0.019678 0.2289304,0.3094323 0.44526937,0.6436387 0.21633826,0.33420635 0.39373141,0.61823701 0.3944197,0.63104157 6.8827e-4,0.012804 -0.0218261,-0.002746 -0.0501671,-0.0344682 -0.0493672,-0.0552531 -0.0498697,-0.0550528 -0.0133489,0.0109379 0.0209719,0.0378893 0.0499562,0.0605279 0.0644969,0.0504221 0.0145414,-0.0101095 0.0363671,-0.00393 0.0485834,0.0136481 0.015417,0.0221833 0.0335455,0.0215951 0.0593422,-0.002261 0.0204439,-0.0189104 0.0458172,-0.0267449 0.0562044,-0.0174226 0.0103786,0.00933 0.0326047,-0.0165671 0.0498691,-0.0574988 0.0299145,-0.0709426 0.0293216,-0.0712774 -0.0136176,-0.0113466 -0.0247771,0.0345788 -0.0454949,0.0524505 -0.0461831,0.0396474 -6.8826e-4,-0.012804 0.14523473,-0.3142146 0.32450103,-0.66968607 0.1792675,-0.3554728 0.3476461,-0.6650596 0.3737072,-0.6876615 0.036078,-0.031289 0.3870307,-0.059284 1.4709796,-0.1176289 l 1.4234814,-0.076517 -0.039863,0.088086 C 4.3162771,-1.9207311 3.5669096,-0.44075879 2.6729738,1.3196563 1.779038,3.0800715 1.0328214,4.5449225 1.0143286,4.5747944 0.98327674,4.6249455 0.97729402,4.6246719 0.93830051,4.5691254 0.91507591,4.5360347 0.01722522,3.1595593 -1.0569501,1.5103972 -2.1311251,-0.13876532 -3.0320639,-1.5257332 -3.0590292,-1.5716567 Z m 1.5055907,-0.018215 c -0.011241,0.00279 -0.00207,0.021182 0.027987,0.062605 0.028752,0.039658 0.5453934,0.83027742 1.14807048,1.75704168 0.60267709,0.92676382 1.12587221,1.73002572 1.16302285,1.78457612 0.0374393,0.054981 0.0882776,0.093836 0.11386206,0.087256 C 0.87581553,2.0117676 1.335769,1.1416658 1.8726084,0.08513729 2.4094472,-0.97139124 2.8596063,-1.8554876 2.8731023,-1.8798449 c 0.016644,-0.030035 0.01215,-0.039321 -0.014101,-0.028974 -0.021289,0.00839 -0.4774596,0.8788123 -1.0137427,1.93456879 C 1.3089765,1.0815064 0.85610284,1.9459894 0.83915706,1.9469003 0.82221532,1.947811 0.27974016,1.1368315 -0.36662647,0.14464667 -1.0129933,-0.84753843 -1.5608573,-1.6644745 -1.5842743,-1.6709061 c -0.00815,-0.00224 -0.014493,-0.0032 -0.01824,-0.00227 z m 1.40193886,-0.045163 c -0.008534,4.587e-4 8.1543e-4,0.027951 0.020939,0.061126 0.0201152,0.033174 0.0434305,0.059917 0.0519749,0.059457 0.008534,-4.587e-4 -8.1539e-4,-0.027952 -0.020939,-0.061126 -0.0201152,-0.033174 -0.0434296,-0.059917 -0.0519749,-0.059457 z m 1.68103294,-0.090361 c -0.00853,4.588e-4 -0.028852,0.029546 -0.045302,0.064686 -0.016443,0.035139 -0.022805,0.063477 -0.014266,0.063018 0.00853,-4.587e-4 0.028852,-0.029546 0.045302,-0.064686 0.016443,-0.03514 0.022805,-0.063477 0.014266,-0.063018 z m -1.57726774,0.2404116 c -0.0085336,4.587e-4 -0.0153871,0.00759 -0.01492786,0.016133 4.5871e-4,0.00853 0.008044,0.015363 0.01659614,0.014903 0.0085336,-4.587e-4 0.01489898,-0.00803 0.01443974,-0.016571 -4.5871e-4,-0.00853 -0.0075556,-0.014924 -0.01610802,-0.014465 z M 1.3933752,-1.648393 c -0.00853,4.587e-4 -0.014924,0.00756 -0.014465,0.016108 4.587e-4,0.00853 0.00758,0.015388 0.016133,0.014928 0.00853,-4.587e-4 0.015362,-0.00805 0.014903,-0.016596 -4.588e-4,-0.00853 -0.00802,-0.014899 -0.016571,-0.01444 z m -1.4581291,0.1406307 c -0.0085336,4.587e-4 8.1462e-4,0.027951 0.02093902,0.061126 0.02011521,0.033174 0.0434296228,0.059917 0.05197489,0.059457 0.00853362,-4.587e-4 -8.1475e-4,-0.027952 -0.02093901,-0.061126 -0.02011521,-0.033174 -0.04342963,-0.059917 -0.0519749,-0.059457 z m 1.4327459,-0.077015 c -0.00853,4.587e-4 -0.028852,0.029546 -0.045302,0.064686 -0.016443,0.035139 -0.023268,0.063502 -0.014729,0.063043 0.00853,-4.587e-4 0.029315,-0.029571 0.045765,-0.064711 0.016443,-0.035139 0.022805,-0.063477 0.014266,-0.063018 z m -1.33129682,0.2271897 c -0.0085336,4.587e-4 8.1377e-4,0.027952 0.02093902,0.061126 0.02011521,0.033174 0.04389285,0.059892 0.05243812,0.059432 0.008534,-4.587e-4 -0.001277,-0.027927 -0.02140224,-0.061101 -0.02011521,-0.033174 -0.04342962,-0.059917 -0.0519749,-0.059457 z m 1.24653062,-0.067005 c -0.00853,4.587e-4 -0.028852,0.029546 -0.045302,0.064686 -0.016443,0.035139 -0.023268,0.063502 -0.014729,0.063043 0.00853,-4.587e-4 0.029315,-0.029571 0.045765,-0.064711 0.016443,-0.035139 0.022805,-0.063477 0.014266,-0.063018 z m -1.14276542,0.2170555 c -0.008534,4.587e-4 -0.0153622,0.00805 -0.014903,0.016596 4.5871e-4,0.00853 0.008019,0.014899 0.0165713,0.01444 0.008534,-4.587e-4 0.0149239,-0.00756 0.0144646,-0.016108 -4.5871e-4,-0.00853 -0.00758,-0.015388 -0.0161329,-0.014928 z m 1.05568312,-0.056747 c -0.00853,4.587e-4 -0.014899,0.00803 -0.01444,0.016571 4.587e-4,0.00853 0.00756,0.014924 0.016108,0.014465 0.00853,-4.587e-4 0.015387,-0.00759 0.014928,-0.016133 -4.588e-4,-0.00853 -0.00804,-0.015363 -0.016596,-0.014903 z m -1.02362678,0.1172747 c -0.008534,4.587e-4 8.1547e-4,0.02795 0.020939,0.061125 0.0201152,0.033174 0.0439178,0.060355 0.052463,0.059896 0.008534,-4.587e-4 -0.001314,-0.028389 -0.0214271,-0.061564 -0.0201152,-0.033174 -0.0434314,-0.059917 -0.0519749,-0.059457 z m 0.99824358,-0.053659 c -0.00853,4.587e-4 -0.029315,0.02957 -0.045765,0.064711 -0.016443,0.035139 -0.02278,0.06394 -0.014241,0.063481 0.00853,-4.587e-4 0.02929,-0.030034 0.04574,-0.065174 0.016443,-0.03514 0.022805,-0.063477 0.014266,-0.063018 z m -0.89445348,0.20417242 c -0.008534,4.5871e-4 -0.0149239,0.007565 -0.0144646,0.016108 4.5871e-4,0.008534 0.00758,0.0153876 0.0161329,0.0149279 0.008534,-4.5871e-4 0.0153622,-0.008053 0.014903,-0.0165962 -4.5871e-4,-0.008534 -0.008019,-0.0148994 -0.0165713,-0.0144397 z M 1.0837029,-1.0398969 c -0.00853,4.587e-4 -0.015387,0.00759 -0.014928,0.016133 4.587e-4,0.00853 0.00804,0.015363 0.016596,0.014903 0.00853,-4.587e-4 0.014899,-0.00803 0.01444,-0.016571 -4.587e-4,-0.00853 -0.00756,-0.014924 -0.016108,-0.014465 z m -0.77533974,0.10392839 c -0.008534,4.5871e-4 0.001277,0.027926 0.0214022,0.0611007 0.0201152,0.0331743 0.0434296,0.0599166 0.0519749,0.0594573 0.008534,-4.5871e-4 -8.1395e-4,-0.0279518 -0.020939,-0.0611256 -0.0201152,-0.0331743 -0.0438928,-0.0598917 -0.0524381,-0.0594324 z m 0.74995654,-0.0403128 c -0.00853,4.5871e-4 -0.029315,0.0295704 -0.045765,0.0647111 -0.0164431,0.0351394 -0.0228049,0.0634769 -0.0142659,0.063018 0.008534,-4.5871e-4 0.0288515,-0.0295464 0.0453017,-0.0646862 0.016443,-0.0351395 0.023268,-0.0635019 0.014729,-0.0630429 z m -0.64758101,0.19043755 c -0.008534,4.5872e-4 0.0082,0.0415515 0.0374304,0.0913647 0.0292477,0.0498108 0.0603932,0.0901303 0.0689295,0.0896715 0.008534,-4.5871e-4 -0.008662,-0.0415285 -0.0378936,-0.0913398 -0.0292478,-0.0498116 -0.05993,-0.0901552 -0.0684663,-0.0896964 z m 0.56188839,-0.0302035 c -0.008534,4.5871e-4 -0.0347188,0.0438585 -0.0584566,0.0965189 -0.0237396,0.052659 -0.0364211,0.0953344 -0.0278839,0.0948755 0.008534,-4.5871e-4 0.035181,-0.0438852 0.0589198,-0.0965438 0.0237395,-0.0526599 0.0359579,-0.0953095 0.0274207,-0.0948506 z m -0.25984653,0.40326941 c -0.0394357,0.00212 -0.0648044,0.013866 -0.0561945,0.0262487 0.008604,0.012383 0.0350844,0.0213421 0.0586845,0.0200735 0.0236019,-0.001269 0.0485057,-0.012989 0.0557313,-0.0262238 0.007227,-0.013234 -0.0187928,-0.0222178 -0.0582213,-0.0200984 z"
       transform="matrix(1.1123724,0.05979396,-0.05979396,1.1123724,5.0756961,5.935795)" /><rect
       style="fill:#00fff2;fill-opacity:1;stroke:#ffffff;stroke-width:0"
       id="rect3"
       width="0.03286561"
       height="0.31622404"
       x="0.72240764"
       y="5.107439"
       transform="matrix(0.73289174,-0.68034528,0.53714997,0.84348676,0,0)" /><rect
       style="fill:#00fff2;fill-opacity:1;stroke:#ffffff;stroke-width:0"
       id="rect3-9"
       width="0.03286561"
       height="0.31622404"
       x="9.3516617"
       y="0.34729356"
       transform="matrix(0.92694979,0.37518541,-0.53607093,0.84417295,0,0)" /><path
       style="fill:#00fff2;fill-opacity:0.312336;stroke:#ffffff;stroke-width:0"
       d="m 21.412577,30.120141 c -0.49501,-0.766092 -1.800823,-2.973594 -3.943766,-6.667016 -2.832663,-4.882171 -4.481304,-7.671699 -5.054789,-8.552785 -0.143316,-0.220187 -0.272596,-0.419982 -0.287289,-0.443988 -0.02282,-0.03728 0.287328,-0.04047 2.126401,-0.02182 2.246495,0.02278 3.35168,0.05766 3.63006,0.114565 l 0.164444,0.03362 0.23046,0.349267 c 0.64529,0.977952 3.001901,5.079686 2.948922,5.132665 -0.0089,0.0089 -0.07435,-0.04987 -0.145423,-0.130619 -0.07108,-0.08075 -0.137035,-0.139006 -0.146577,-0.129465 -0.02428,0.02428 0.131911,0.324868 0.208708,0.401665 0.04748,0.04748 0.0864,0.05843 0.154511,0.04347 0.07275,-0.01598 0.106022,-0.0038 0.16561,0.06046 0.09348,0.100869 0.146471,0.100855 0.318714,-8.7e-5 0.07559,-0.0443 0.152052,-0.07152 0.169907,-0.06048 0.073,0.04511 0.156356,-0.02891 0.264666,-0.235023 0.06292,-0.119733 0.103083,-0.217976 0.08926,-0.218317 -0.01383,-3.41e-4 -0.09149,0.07349 -0.172585,0.164063 -0.08109,0.09057 -0.14789,0.150087 -0.148437,0.132249 -0.0025,-0.08092 1.466344,-2.687976 2.279362,-4.045692 0.569629,-0.951265 0.859648,-1.394165 0.952958,-1.455304 0.04116,-0.02697 0.20422,-0.05958 0.38031,-0.07606 0.373936,-0.03499 4.032382,-0.100203 4.896034,-0.08728 l 0.619035,0.0093 -0.272961,0.421875 c -0.578686,0.894391 -2.156743,3.560089 -4.458395,7.53125 -2.658531,4.586903 -4.473706,7.653694 -4.713676,7.963891 l -0.05668,0.07327 z m 0.411906,-9.471704 c 0.09476,-0.07878 0.04037,-0.138553 -0.141465,-0.155448 -0.169103,-0.01571 -0.323643,0.02975 -0.323643,0.09521 0,0.110077 0.350547,0.155476 0.465108,0.06024 z m -0.965133,-1.03125 c -5.3e-5,-0.118868 -0.345306,-0.757812 -0.409483,-0.757812 -0.08305,0 0.04609,0.33341 0.255604,0.659906 0.101698,0.158482 0.153921,0.19171 0.153879,0.09791 z m 1.814016,-0.360584 c 0.153623,-0.306867 0.182081,-0.397228 0.125099,-0.397228 -0.09617,0 -0.478489,0.731434 -0.415333,0.794591 0.03917,0.03917 0.142571,-0.102401 0.290234,-0.397363 z m -2.343992,-0.611622 c -0.04829,-0.168387 -0.224118,-0.441856 -0.284089,-0.441856 -0.07698,0 0.0472,0.326692 0.18115,0.476562 0.0788,0.08817 0.132944,0.06991 0.102939,-0.03471 z m 2.736492,-0.05904 c 0.103083,-0.1592 0.179692,-0.350796 0.151526,-0.378962 -0.0365,-0.0365 -0.123924,0.05477 -0.222935,0.232735 -0.0567,0.101909 -0.103255,0.209899 -0.10346,0.239977 -6.73e-4,0.09892 0.07712,0.05722 0.174869,-0.09375 z m -3.081491,-0.566969 c 0,-0.07563 -0.07818,-0.106629 -0.125406,-0.04973 -0.0459,0.0553 -0.01404,0.108886 0.06475,0.108886 0.03868,0 0.06066,-0.02143 0.06066,-0.05916 z m 3.40625,0 c 0,-0.06827 -0.06515,-0.102835 -0.124575,-0.06611 -0.05806,0.03588 -0.01447,0.125263 0.06109,0.125263 0.04145,0 0.06348,-0.02053 0.06348,-0.05916 z m -3.576578,-0.276781 c -0.04925,-0.202954 -0.329672,-0.571117 -0.329672,-0.432821 0,0.0743 0.05981,0.211428 0.161507,0.370321 0.107577,0.168075 0.202329,0.20329 0.168165,0.0625 z m 3.745896,-0.01731 c 0.09489,-0.124405 0.174432,-0.307082 0.174432,-0.400595 0,-0.06752 -8.02e-4,-0.06762 -0.06612,-0.0088 -0.151143,0.136073 -0.310337,0.512656 -0.216715,0.512656 0.01631,0 0.0651,-0.04646 0.108408,-0.103245 z m -4.106818,-0.63113 c 0,-0.05616 -0.01684,-0.07813 -0.0599,-0.07813 -0.03294,0 -0.06603,0.01758 -0.07352,0.03906 -0.02238,0.06417 0.01121,0.117188 0.07426,0.117188 0.04227,0 0.05916,-0.0223 0.05916,-0.07813 z m 4.462888,0.0074 c 0.01244,-0.06458 -0.07777,-0.108097 -0.125388,-0.06048 -0.04761,0.04761 -0.0041,0.137825 0.06048,0.125388 0.02993,-0.0058 0.05914,-0.03497 0.0649,-0.0649 z m -4.619138,-0.233473 c 0,-0.138826 -0.276976,-0.554202 -0.332513,-0.498664 -0.05205,0.05205 0.221033,0.552903 0.301459,0.552903 0.01708,0 0.03105,-0.02441 0.03105,-0.05424 z m 4.878331,-0.211386 c 0.08972,-0.15605 0.117936,-0.296875 0.05949,-0.296875 -0.04301,0 -0.245274,0.310948 -0.279189,0.429201 -0.05901,0.205768 0.07,0.128067 0.219701,-0.132326 z m -5.284581,-0.45437 c 0,-0.111631 -0.219953,-0.498755 -0.283378,-0.498755 -0.07957,0 0.01569,0.269078 0.168386,0.475604 0.07614,0.102985 0.114992,0.110807 0.114992,0.02315 z m 5.591875,-0.06362 c 0.103699,-0.143153 0.208993,-0.394678 0.178138,-0.425533 -0.03463,-0.03463 -0.16346,0.110298 -0.249902,0.281147 -0.139921,0.276549 -0.09274,0.371476 0.07176,0.144386 z m -5.941264,-0.615137 c 0.0075,-0.05259 -0.0056,-0.06999 -0.05284,-0.06999 -0.0748,0 -0.1103,0.04727 -0.08501,0.113181 0.02673,0.06966 0.126196,0.0385 0.13785,-0.04319 z m 6.28125,0 c 0.0075,-0.05259 -0.0056,-0.06999 -0.05284,-0.06999 -0.0748,0 -0.1103,0.04727 -0.08501,0.113181 0.02673,0.06966 0.126196,0.0385 0.13785,-0.04319 z m -6.448917,-0.265306 c -0.03462,-0.11447 -0.175114,-0.361727 -0.237728,-0.418392 -0.141846,-0.128368 -0.09189,0.114468 0.07321,0.355892 0.09923,0.145098 0.201221,0.183845 0.164518,0.0625 z m 6.600301,0.01563 c 0.137669,-0.174033 0.244878,-0.476562 0.168883,-0.476562 -0.05791,0 -0.283378,0.384405 -0.283378,0.48313 0,0.0645 0.06105,0.061 0.114495,-0.0066 z"
       id="path3"
       transform="matrix(0.26458333,0,0,0.26458333,0.17370761,0.09477717)" /><path
       style="fill:#00fff2;fill-opacity:0.312336;stroke:#ffffff;stroke-width:0"
       d="m 20.793151,19.607754 c -0.100857,-0.114499 -0.285045,-0.453296 -0.346817,-0.63794 -0.03351,-0.100158 -0.02562,-0.123216 0.02376,-0.06942 0.136054,0.148214 0.419028,0.723588 0.364843,0.741838 -0.0048,0.0016 -0.02365,-0.01388 -0.04179,-0.03448 z"
       id="path4"
       transform="matrix(0.26458333,0,0,0.26458333,0.17370761,0.09477717)" /><path
       style="fill:#00fff2;fill-opacity:0.312336;stroke:#ffffff;stroke-width:0"
       d="m 22.386719,19.633216 c 0,-0.02482 0.04294,-0.144945 0.08507,-0.237978 0.128761,-0.284347 0.336803,-0.597823 0.336803,-0.507493 0,0.05857 -0.131578,0.350339 -0.239803,0.53176 -0.09233,0.154783 -0.182072,0.260115 -0.182072,0.213711 z"
       id="path5"
       transform="matrix(0.26458333,0,0,0.26458333,0.17370761,0.09477717)" /></g></svg>
