<?xml version="1.0" encoding="UTF-8" standalone="no"?>
<!-- Created with Inkscape (http://www.inkscape.org/) -->

<svg
   width="43.022518"
   height="49.442574"
   viewBox="0 0 11.383041 13.081681"
   version="1.1"
   id="svg1"
   xml:space="preserve"
   xmlns:inkscape="http://www.inkscape.org/namespaces/inkscape"
   xmlns:sodipodi="http://sodipodi.sourceforge.net/DTD/sodipodi-0.dtd"
   xmlns="http://www.w3.org/2000/svg"
   xmlns:svg="http://www.w3.org/2000/svg"><sodipodi:namedview
     id="namedview1"
     pagecolor="#ffffff"
     bordercolor="#000000"
     borderopacity="0.25"
     inkscape:showpageshadow="2"
     inkscape:pageopacity="0.0"
     inkscape:pagecheckerboard="0"
     inkscape:deskcolor="#d1d1d1"
     inkscape:document-units="mm" /><defs
     id="defs1" /><g
     inkscape:label="Layer 1"
     inkscape:groupmode="layer"
     id="layer1"
     transform="translate(-0.08465065,-0.07928744)"><path
       id="path12-2"
       style="fill:#00fff2;fill-opacity:1;stroke:#ffffff;stroke-width:0"
       d="M 5.7773264,0.10874301 5.6703562,0.16300326 C 5.4201855,0.29020703 2.7695365,1.839441 1.5031687,2.5985135 l -1.37510985,0.8242391 0.004651,2.5419637 c 0.00269,1.3980972 0.0150285,2.8736464 0.0273885,3.2788696 l 0.0227376,0.736906 0.10076904,0.058394 c 0.78753431,0.459327 3.47493521,1.987679 4.38474531,2.493388 0.6506853,0.361678 1.1922073,0.657988 1.2030273,0.658358 0.050842,0.0017 2.6349514,-1.50443 4.3883624,-2.557467 l 1.251603,-0.7513752 -0.0052,-2.5099243 c -0.0026,-1.3805063 -0.01498,-2.8558448 -0.02739,-3.2783529 L 11.456566,3.3250842 11.132038,3.1359484 C 10.212543,2.5994374 8.1368363,1.4196685 7.0294464,0.80430779 Z M 6.284789,3.2873604 c 0.1639384,0 0.295097,0.050743 0.3932576,0.1524454 0.098667,0.1017025 0.1477946,0.2431218 0.1477946,0.4242635 0,0.1796239 -0.04859,0.3199772 -0.1462443,0.4216797 -0.097655,0.1011965 -0.2282749,0.1519287 -0.3917073,0.1519287 -0.1654563,0 -0.2971533,-0.050205 -0.394808,-0.1508951 C 5.795427,4.185586 5.7468373,4.0463309 5.7468373,3.869237 c 0,-0.1133401 0.016742,-0.2083446 0.050643,-0.2852539 0.025299,-0.05667 0.059838,-0.107413 0.1033529,-0.1524455 0.044021,-0.045032 0.092061,-0.078495 0.1441773,-0.1002523 0.06932,-0.029347 0.1492077,-0.043925 0.2397785,-0.043925 z m 3.5232991,0 c 0.1396512,0 0.2443779,0.030243 0.3147099,0.091467 0.07084,0.061224 0.108079,0.1432546 0.111621,0.2454631 l -0.224793,0.00982 C 10.000026,3.5769345 9.979491,3.5359135 9.947614,3.5111206 9.916243,3.4858216 9.868752,3.4728796 9.8055038,3.4728796 c -0.065272,0 -0.1160255,0.013491 -0.1529622,0.040308 -0.023781,0.017203 -0.036174,0.040405 -0.036174,0.069246 0,0.026311 0.011326,0.048975 0.03359,0.067696 0.028335,0.023781 0.097414,0.048609 0.2067057,0.074414 0.1092922,0.025805 0.1897287,0.052269 0.2418457,0.080098 0.05262,0.027323 0.09364,0.065103 0.12299,0.1131714 0.02985,0.047562 0.04496,0.1064018 0.04496,0.1767334 0,0.063754 -0.01781,0.1236592 -0.05323,0.1793172 -0.03542,0.055658 -0.08561,0.097217 -0.150378,0.1245403 -0.064766,0.026817 -0.1452028,0.040308 -0.2418454,0.040308 -0.1406632,0 -0.2491366,-0.032386 -0.324528,-0.097152 C 9.4210879,4.2762878 9.3762773,4.1812941 9.3616038,4.0568224 l 0.2185913,-0.021187 c 0.013156,0.073367 0.039609,0.1273404 0.079582,0.1617472 0.040479,0.034407 0.09499,0.05116 0.1632975,0.05116 0.072356,0 0.1268668,-0.015116 0.1632975,-0.045475 0.036937,-0.030865 0.055294,-0.066502 0.055294,-0.1074869 0,-0.026311 -0.0081,-0.048447 -0.02377,-0.066663 -0.01518,-0.018722 -0.041645,-0.034915 -0.0801,-0.048576 C 9.9114849,3.9712336 9.8515688,3.9550407 9.757962,3.9317655 9.6375382,3.9019125 9.5528051,3.8652092 9.5042307,3.8216947 9.4359231,3.7604708 9.4019114,3.6854599 9.4019114,3.597419 c 0,-0.05667 0.015665,-0.1095664 0.047542,-0.1586467 0.032383,-0.049586 0.078798,-0.08685 0.1390096,-0.1126546 0.060718,-0.025805 0.1341138,-0.038757 0.2196251,-0.038757 z M 1.7134918,3.3059639 H 1.9434519 L 2.1108836,4.0702583 2.3144887,3.3059639 H 2.5816559 L 2.7769928,4.0831774 2.947525,3.3059639 H 3.1738678 L 2.9036,4.4185575 H 2.6653717 L 2.4436798,3.5870837 2.2225047,4.4185575 h -0.243396 z m 1.567863,0 H 3.5061472 V 4.4185575 H 3.2813548 Z m 0.4413167,0 H 3.9412628 L 4.3965322,4.049071 V 3.3059639 H 4.6053049 V 4.4185575 H 4.3794789 L 3.9309275,3.6930204 v 0.7255371 h -0.208256 z m 1.1213786,0 h 0.7627441 v 0.188619 H 5.0688425 v 0.263033 H 5.5334137 V 3.9457181 H 5.0688425 V 4.4185575 H 4.8440501 Z m 2.1580078,0 h 0.4728393 c 0.1189059,0 0.2052648,0.01025 0.258899,0.030489 0.05414,0.019733 0.097325,0.055349 0.1297078,0.1064534 0.032383,0.051104 0.048576,0.1094054 0.048576,0.1751831 0,0.083487 -0.024817,0.1525764 -0.073897,0.2072225 -0.04908,0.05414 -0.122487,0.088152 -0.2201417,0.1023194 0.048574,0.028335 0.088519,0.059633 0.1198894,0.093534 0.031877,0.033901 0.07504,0.093828 0.1286743,0.1803507 L 8.002514,4.4185571 H 7.7337962 L 7.5710154,4.1767118 C 7.5133334,4.0901887 7.4739276,4.0356775 7.4526764,4.0134142 7.4314251,3.990645 7.4092782,3.9755179 7.385497,3.9674222 7.3617158,3.9588205 7.3239358,3.9545031 7.2723256,3.9545031 H 7.2268504 V 4.4185575 H 7.0020579 Z m 1.1187947,0 H 8.4567494 L 8.6588043,4.0650907 8.8582753,3.3059639 H 9.1952057 V 4.4185575 H 8.9864329 V 3.5431587 L 8.7657745,4.4185575 H 8.5492503 L 8.3296254,3.5431587 V 4.4185575 H 8.1208526 Z m -1.8339965,0.173116 c -0.092595,0 -0.1670889,0.031848 -0.223759,0.095601 -0.05667,0.063248 -0.084749,0.1587906 -0.084749,0.2868042 0,0.1259897 0.028628,0.2220492 0.086816,0.287321 0.058188,0.064766 0.1321329,0.097152 0.2216919,0.097152 0.089559,0 0.1629655,-0.032375 0.2201416,-0.096635 0.057682,-0.064766 0.086816,-0.1613959 0.086816,-0.2904215 0,-0.1275076 -0.028069,-0.2230288 -0.084233,-0.2857707 C 6.4539226,3.5103889 6.37945,3.4790799 6.2868561,3.4790799 Z m 0.9399943,0.015503 v 0.2821533 h 0.1658813 c 0.1077743,0 0.1752378,-0.00433 0.2020549,-0.013436 0.026817,-0.00911 0.047866,-0.025279 0.063045,-0.047542 0.015179,-0.022263 0.022738,-0.049804 0.022738,-0.083199 0,-0.037443 -0.01025,-0.067664 -0.030489,-0.090434 C 7.630347,3.51885 7.6022785,3.504272 7.5658478,3.4982002 7.5476324,3.4956703 7.4931103,3.4945829 7.4020335,3.4945829 Z M 2.541865,6.0613512 H 5.9478587 9.3533355 V 6.3062975 6.5517606 H 5.9478587 2.541865 V 6.3062975 Z m 5.312854,0.060462 V 6.3062975 6.4907824 H 8.0748606 8.295519 V 6.3062975 6.1218127 H 8.0748606 Z m 0.495577,0 V 6.3062975 6.4907824 H 8.5709544 8.791096 V 6.3062975 6.1218127 H 8.5709544 Z m 0.4960937,0 V 6.3062975 6.4907824 H 9.0670481 9.2871897 V 6.3062975 6.1218127 H 9.0670481 Z M 7.8821075,6.1492012 H 8.0748606 8.2676137 V 6.3062975 6.4633939 H 8.0748606 7.8821075 V 6.3062975 Z m 0.4960938,0 H 8.5709544 8.7637075 V 6.3062975 6.4633939 H 8.5709544 8.3782013 V 6.3062975 Z m 0.495577,0 H 9.0670481 9.2598012 V 6.3062975 6.4633939 H 9.0670481 8.8737783 V 6.3062975 Z m 0.094051,0.032556 v 0.0062 c 0,0.00356 0.016354,0.028815 0.036174,0.055811 0.01982,0.026997 0.037137,0.052645 0.038757,0.056844 l 0.0031,0.00723 -0.041858,0.056844 c -0.04336,0.058991 -0.045481,0.065629 -0.020671,0.065629 h 0.015503 l 0.032556,-0.046509 c 0.03987,-0.056629 0.032917,-0.056405 0.073897,0 l 0.034106,0.046509 h 0.015503 c 0.025089,0 0.02395,-0.00518 -0.01912,-0.063562 -0.04927,-0.06677 -0.049521,-0.055631 -0.0031,-0.1209229 0.0393,-0.055334 0.041994,-0.063562 0.020154,-0.063562 -0.01433,0 -0.025224,0.011282 -0.058394,0.059428 l -0.023254,0.034106 -0.034106,-0.045475 -0.03359,-0.044958 -0.018087,-0.00207 z m -0.4960938,0.028422 v 0.013436 0.013953 H 8.457783 8.4443471 v 0.082682 0.082682 H 8.5570017 8.6701731 V 6.3889798 6.375544 h 0.013953 0.013436 V 6.2928617 6.2101794 H 8.584907 Z m -0.00568,0.043925 h 0.09095 0.09095 v 0.066146 0.066146 h -0.09095 -0.09095 V 6.3202502 Z M 2.5366974,6.5791491 H 5.9447581 9.3533355 V 8.0999865 9.6213407 H 5.9447581 2.5366974 V 8.0999865 Z m 0.3963582,0.396875 V 8.13616 9.2962959 H 4.1593373 5.3856191 V 8.13616 6.9760241 H 4.1593373 Z m 0.027905,0.027388 H 4.1593373 5.3582306 V 8.13616 9.2683906 H 4.1593373 2.9609609 V 8.13616 Z m 2.9093831,0 V 7.2953844 7.5878731 H 7.501769 9.1331939 V 7.2953844 7.0034126 H 7.501769 Z m 0.027905,0.027905 H 7.501769 9.1052887 V 7.2953844 7.5599678 H 7.501769 5.8982493 V 7.2953844 Z M 5.8817128,7.8741605 V 8.2849881 8.695299 H 7.501769 9.1218251 V 8.2849881 7.8741605 H 7.501769 Z m 0.027388,0.027905 H 7.501769 9.0944366 V 8.2849881 8.6679105 H 7.501769 5.9091013 V 8.2849881 Z M 5.8925649,8.8772 V 9.2022448 9.5272896 H 7.5074534 9.1218251 V 9.2022448 8.8772 H 7.5074534 Z m 0.027388,0.027388 h 1.5875 1.5869832 V 9.2022448 9.499901 h -1.5869832 -1.5875 V 9.2022448 Z" /><path
       style="fill:#00fff2;fill-opacity:0.480315;stroke:#ffffff;stroke-width:0"
       d="M 2.5467161,6.3056707 V 6.0658921 H 5.949091 9.3514673 V 6.3056707 6.5454494 H 5.949091 2.5467161 Z m 5.7546861,0 V 6.1155015 H 8.07816 7.8549178 V 6.3056707 6.49584 H 8.07816 8.3014022 Z M 8.7974959,6.3055379 V 6.1152356 l -0.2253091,0.0022 -0.2253094,0.0022 -0.00222,0.1881021 -0.00222,0.1881024 H 8.569964 8.7974954 Z m 0.4960938,0 V 6.1152356 l -0.2253092,0.0022 -0.2253093,0.0022 -0.00222,0.1881021 -0.00222,0.1881024 h 0.2275316 0.2275313 z"
       id="path57156" /><path
       style="fill:#68fff2;fill-opacity:0.349081;stroke:#ffffff;stroke-width:0"
       d="M 2.5384478,8.1040106 V 6.5867905 h 3.4065091 3.4065104 v 1.5172201 1.51722 H 5.9449569 2.5384478 Z M 9.1282251,9.203685 V 8.87709 H 7.5076522 5.8870793 V 9.203685 9.5302801 H 7.5076522 9.1282251 Z M 5.3909855,8.1370835 V 6.9753973 H 4.1590194 2.9270546 v 1.1616862 1.1616862 h 1.2319648 1.2319661 z m 3.7372396,0.144694 V 7.868366 H 7.5035181 5.878811 v 0.4134115 0.4134114 h 1.6247071 1.624707 z m 0.00827,-0.9839193 V 7.000202 H 7.5035181 5.8705428 v 0.2976562 0.2976563 h 1.6329753 1.6329752 z"
       id="path57157" /><path
       style="fill:#00fff2;fill-opacity:0.792651;stroke:#ffffff;stroke-width:0"
       d="M 2.9683957,8.1370835 V 7.0084702 H 4.1631535 5.3579126 V 8.1370835 9.2656967 H 4.1631535 2.9683957 Z"
       id="path57158" /><path
       style="fill:#00fff2;fill-opacity:1;stroke:#ffffff;stroke-width:0"
       d="M 5.9036157,7.2937241 V 7.0332749 H 7.5035181 9.1034204 V 7.2937241 7.5541733 H 7.5035181 5.9036157 Z"
       id="path57159" /><path
       style="fill:#00fff2;fill-opacity:1;stroke:#ffffff;stroke-width:0"
       d="M 5.911884,8.2859116 V 7.9097072 h 1.5874999 1.5875 V 8.2859116 8.662116 h -1.5875 -1.5874999 z"
       id="path57160" /><path
       style="fill:#00fff2;fill-opacity:1;stroke:#ffffff;stroke-width:0"
       d="M 5.9201522,9.203685 V 8.9101629 H 7.5035181 9.0868839 V 9.203685 9.4972072 H 7.5035181 5.9201522 Z"
       id="path57161" /></g></svg>
